<?xml version="1.0" encoding="utf-8" ?>
<svg xmlns="http://www.w3.org/2000/svg" xmlns:xlink="http://www.w3.org/1999/xlink" width="306" height="74">
	<defs>
		<linearGradient id="gradient_0" gradientUnits="userSpaceOnUse" x1="21.250488" y1="0" x2="21.250488" y2="73.312012">
			<stop offset="0" stop-color="#20B2EC"/>
			<stop offset="1" stop-color="#7990F7"/>
		</linearGradient>
	</defs>
	<path fill="url(#gradient_0)" d="M42.500977 27.37793L24.205566 27.37793L24.205566 20.989746C24.205566 16.962729 24.031738 14.44222 23.684082 13.428223C23.336426 12.414226 22.510742 11.907227 21.207031 11.907227C20.077148 11.907227 19.309408 12.341797 18.903809 13.210938C18.498209 14.080078 18.29541 16.310873 18.29541 19.90332L18.29541 53.669434C18.29541 56.827312 18.498209 58.906006 18.903809 59.905518C19.309408 60.905029 20.120605 61.404785 21.337402 61.404785C22.670084 61.404785 23.575439 60.839844 24.053467 59.709961C24.531494 58.580078 24.770508 56.378254 24.770508 53.104492L24.770508 44.760742L21.07666 44.760742L21.07666 34.070312L42.500977 34.070312L42.500977 71.834473L30.984863 71.834473L29.290039 66.793457C28.044271 68.966309 26.472574 70.595947 24.574951 71.682373C22.677328 72.768799 20.439291 73.312012 17.86084 73.312012C14.789876 73.312012 11.91447 72.566002 9.2346191 71.073975C6.554769 69.581947 4.5195312 67.735023 3.1289062 65.533203C1.7382812 63.331379 0.86914062 61.020916 0.52148438 58.601807C0.17382812 56.182697 0 52.554035 0 47.71582L0 26.812988C0 20.091635 0.36214194 15.209961 1.0864258 12.167969C1.8107096 9.1259766 3.8894043 6.3374839 7.3225098 3.8024902C10.755615 1.2674967 15.195476 0 20.64209 0C26.001791 0 30.448893 1.1009115 33.983398 3.3027344C37.517902 5.5045571 39.821125 8.1192217 40.893066 11.146729C41.965008 14.174235 42.500977 18.570639 42.500977 24.335938L42.500977 27.37793Z"/>
	<defs>
		<linearGradient id="gradient_1" gradientUnits="userSpaceOnUse" x1="14.029785" y1="0" x2="14.029785" y2="48.600098">
			<stop offset="0" stop-color="#20B2EC"/>
			<stop offset="1" stop-color="#7990F7"/>
		</linearGradient>
	</defs>
	<path fill="url(#gradient_1)" transform="translate(48.0083 24.2139)" d="M28.05957 28.290039C28.05957 32.976238 27.949137 36.294025 27.728271 38.243408C27.507406 40.192791 26.816 41.974121 25.654053 43.587402C24.492105 45.200684 22.922037 46.439453 20.943848 47.303711C18.965658 48.167969 16.660971 48.600098 14.029785 48.600098C11.53304 48.600098 9.2907715 48.191975 7.3029785 47.375732C5.3151855 46.55949 3.7163086 45.335125 2.5063477 43.702637C1.2963867 42.070148 0.57617188 40.293621 0.34570312 38.373047C0.11523438 36.452473 0 33.091473 0 28.290039L0 20.310059C0 15.62386 0.11043295 12.306071 0.33129883 10.356689C0.55216473 8.4073076 1.2435709 6.6259766 2.4055176 5.0126953C3.5674641 3.3994141 5.1375327 2.1606445 7.1157227 1.2963867C9.0939131 0.43212891 11.398601 0 14.029785 0C16.526529 0 18.768799 0.40812173 20.756592 1.2243652C22.744385 2.0406086 24.343262 3.2649739 25.553223 4.8974609C26.763184 6.5299478 27.483398 8.3064775 27.713867 10.227051C27.944336 12.147624 28.05957 15.508626 28.05957 20.310059L28.05957 28.290039ZM15.931152 12.963867C15.931152 10.79362 15.811116 9.4060059 15.571045 8.8010254C15.330974 8.1960449 14.836426 7.8935547 14.087402 7.8935547C13.453613 7.8935547 12.968669 8.1384277 12.632568 8.6281738C12.296468 9.1179199 12.128418 10.563151 12.128418 12.963867L12.128418 34.743164C12.128418 37.451172 12.238851 39.12207 12.459717 39.755859C12.680583 40.389648 13.194336 40.706543 14.000977 40.706543C14.826823 40.706543 15.35498 40.341633 15.585449 39.611816C15.815918 38.882 15.931152 37.143879 15.931152 34.397461L15.931152 12.963867Z"/>
	<path fill="white" transform="translate(95.4585 41.0039)" d="M0 0L13.577637 0L13.577637 6.1699219L8.0170898 6.1699219L8.0170898 12.016113L12.968262 12.016113L12.968262 17.881348L8.0170898 17.881348L8.0170898 30.830566L0 30.830566L0 0Z"/>
	<path fill="white" transform="translate(110.75 40.3564)" d="M18.547852 18.700195C18.547852 21.797852 18.474854 23.990967 18.328857 25.279541C18.182861 26.568115 17.72583 27.745605 16.957764 28.812012C16.189697 29.878418 15.151855 30.697266 13.844238 31.268555C12.536621 31.839844 11.013184 32.125488 9.2739258 32.125488C7.6235352 32.125488 6.1413574 31.855713 4.8273926 31.316162C3.5134277 30.776611 2.456543 29.967285 1.6567383 28.888184C0.85693359 27.809082 0.38085938 26.634766 0.22851562 25.365234C0.076171875 24.095703 0 21.874023 0 18.700195L0 13.425293C0 10.327637 0.072998047 8.1345215 0.21899414 6.8459473C0.36499023 5.557373 0.82202148 4.3798828 1.5900879 3.3134766C2.3581543 2.2470703 3.3959961 1.4282227 4.7036133 0.85693359C6.0112305 0.28564453 7.534668 0 9.2739258 0C10.924316 0 12.406494 0.26977539 13.720459 0.80932617C15.034424 1.348877 16.091309 2.1582031 16.891113 3.2373047C17.690918 4.3164062 18.166992 5.4907227 18.319336 6.7602539C18.47168 8.0297852 18.547852 10.251465 18.547852 13.425293L18.547852 18.700195ZM10.530762 8.5693359C10.530762 7.1347656 10.451416 6.2175293 10.292725 5.817627C10.134033 5.4177246 9.8071289 5.2177734 9.3120117 5.2177734C8.8930664 5.2177734 8.5725098 5.3796387 8.3503418 5.7033691C8.1281738 6.0270996 8.0170898 6.9824219 8.0170898 8.5693359L8.0170898 22.96582C8.0170898 24.755859 8.0900879 25.860352 8.236084 26.279297C8.3820801 26.698242 8.7216797 26.907715 9.2548828 26.907715C9.8007812 26.907715 10.149902 26.666504 10.302246 26.184082C10.45459 25.70166 10.530762 24.552734 10.530762 22.737305L10.530762 8.5693359Z"/>
	<path fill="white" transform="translate(132.288 41.0039)" d="M0 0L5.6748047 0C9.4580078 0 12.019287 0.14599609 13.358643 0.43798828C14.697998 0.72998047 15.789795 1.4758301 16.634033 2.6755371C17.478271 3.8752441 17.900391 5.7890625 17.900391 8.4169922C17.900391 10.816406 17.602051 12.428711 17.005371 13.253906C16.408691 14.079102 15.234375 14.574219 13.482422 14.739258C15.069336 15.132812 16.135742 15.659668 16.681641 16.319824C17.227539 16.97998 17.567139 17.586182 17.700439 18.138428C17.83374 18.690674 17.900391 20.210938 17.900391 22.699219L17.900391 30.830566L10.45459 30.830566L10.45459 20.585449C10.45459 18.935059 10.324463 17.913086 10.064209 17.519531C9.8039551 17.125977 9.121582 16.929199 8.0170898 16.929199L8.0170898 30.830566L0 30.830566L0 0ZM8.0170898 5.2749023L8.0170898 12.130371C8.918457 12.130371 9.5500488 12.006592 9.9118652 11.759033C10.273682 11.511475 10.45459 10.708496 10.45459 9.3500977L10.45459 7.6552734C10.45459 6.6777344 10.280029 6.0366211 9.9309082 5.7319336C9.5817871 5.4272461 8.9438477 5.2749023 8.0170898 5.2749023Z"/>
	<path fill="#7DD3FC" transform="translate(170.509 0)" d="M42.500977 27.37793L24.205566 27.37793L24.205566 20.989746C24.205566 16.962729 24.031738 14.44222 23.684082 13.428223C23.336426 12.414226 22.510742 11.907227 21.207031 11.907227C20.077148 11.907227 19.309408 12.341797 18.903809 13.210938C18.498209 14.080078 18.29541 16.310873 18.29541 19.90332L18.29541 53.669434C18.29541 56.827312 18.498209 58.906006 18.903809 59.905518C19.309408 60.905029 20.120605 61.404785 21.337402 61.404785C22.670084 61.404785 23.575439 60.839844 24.053467 59.709961C24.531494 58.580078 24.770508 56.378254 24.770508 53.104492L24.770508 44.760742L21.07666 44.760742L21.07666 34.070312L42.500977 34.070312L42.500977 71.834473L30.984863 71.834473L29.290039 66.793457C28.044271 68.966309 26.472574 70.595947 24.574951 71.682373C22.677328 72.768799 20.439291 73.312012 17.86084 73.312012C14.789876 73.312012 11.91447 72.566002 9.2346191 71.073975C6.554769 69.581947 4.5195312 67.735023 3.1289062 65.533203C1.7382812 63.331379 0.86914062 61.020916 0.52148438 58.601807C0.17382812 56.182697 0 52.554035 0 47.71582L0 26.812988C0 20.091635 0.36214194 15.209961 1.0864258 12.167969C1.8107096 9.1259766 3.8894043 6.3374839 7.3225098 3.8024902C10.755615 1.2674967 15.195476 0 20.64209 0C26.001791 0 30.448893 1.1009115 33.983398 3.3027344C37.517902 5.5045571 39.821125 8.1192217 40.893066 11.146729C41.965008 14.174235 42.500977 18.570639 42.500977 24.335938L42.500977 27.37793Z"/>
	<path fill="#7DD3FC" transform="translate(218.518 24.2139)" d="M28.05957 28.290039C28.05957 32.976238 27.949137 36.294025 27.728271 38.243408C27.507406 40.192791 26.816 41.974121 25.654053 43.587402C24.492105 45.200684 22.922037 46.439453 20.943848 47.303711C18.965658 48.167969 16.660971 48.600098 14.029785 48.600098C11.53304 48.600098 9.2907715 48.191975 7.3029785 47.375732C5.3151855 46.55949 3.7163086 45.335125 2.5063477 43.702637C1.2963867 42.070148 0.57617188 40.293621 0.34570312 38.373047C0.11523438 36.452473 0 33.091473 0 28.290039L0 20.310059C0 15.62386 0.11043295 12.306071 0.33129883 10.356689C0.55216473 8.4073076 1.2435709 6.6259766 2.4055176 5.0126953C3.5674641 3.3994141 5.1375327 2.1606445 7.1157227 1.2963867C9.0939131 0.43212891 11.398601 0 14.029785 0C16.526529 0 18.768799 0.40812173 20.756592 1.2243652C22.744385 2.0406086 24.343262 3.2649739 25.553223 4.8974609C26.763184 6.5299478 27.483398 8.3064775 27.713867 10.227051C27.944336 12.147624 28.05957 15.508626 28.05957 20.310059L28.05957 28.290039ZM15.931152 12.963867C15.931152 10.79362 15.811116 9.4060059 15.571045 8.8010254C15.330974 8.1960449 14.836426 7.8935547 14.087402 7.8935547C13.453613 7.8935547 12.968669 8.1384277 12.632568 8.6281738C12.296468 9.1179199 12.128418 10.563151 12.128418 12.963867L12.128418 34.743164C12.128418 37.451172 12.238851 39.12207 12.459717 39.755859C12.680583 40.389648 13.194336 40.706543 14.000977 40.706543C14.826823 40.706543 15.35498 40.341633 15.585449 39.611816C15.815918 38.882 15.931152 37.143879 15.931152 34.397461L15.931152 12.963867Z"/>
	<path fill="white" transform="translate(252.331 1.47754)" d="M0 0L30.984863 0L30.984863 14.080078L18.29541 14.080078L18.29541 27.421387L29.594238 27.421387L29.594238 40.806152L18.29541 40.806152L18.29541 70.356934L0 70.356934L0 0Z"/>
	<path fill="white" transform="translate(286.172 32.9141)" d="M11.638672 0.69140625L11.177734 5.7041016C12.867839 2.1126301 15.316569 0.21126302 18.523926 0L18.523926 13.453613C16.39209 13.453613 14.826823 13.741699 13.828125 14.317871C12.829427 14.894043 12.214844 15.695882 11.984375 16.723389C11.753906 17.750895 11.638672 20.118002 11.638672 23.824707L11.638672 38.92041L0 38.92041L0 0.69140625L11.638672 0.69140625Z"/>
	<defs>
		<linearGradient id="gradient_2" gradientUnits="userSpaceOnUse" x1="21.250488" y1="0" x2="21.250488" y2="73.312012">
			<stop offset="0" stop-color="#20B2EC"/>
			<stop offset="1" stop-color="#7990F7"/>
		</linearGradient>
	</defs>
	<path fill="url(#gradient_2)" transform="translate(170 0)" d="M42.500977 27.37793L24.205566 27.37793L24.205566 20.989746C24.205566 16.962729 24.031738 14.44222 23.684082 13.428223C23.336426 12.414226 22.510742 11.907227 21.207031 11.907227C20.077148 11.907227 19.309408 12.341797 18.903809 13.210938C18.498209 14.080078 18.29541 16.310873 18.29541 19.90332L18.29541 53.669434C18.29541 56.827312 18.498209 58.906006 18.903809 59.905518C19.309408 60.905029 20.120605 61.404785 21.337402 61.404785C22.670084 61.404785 23.575439 60.839844 24.053467 59.709961C24.531494 58.580078 24.770508 56.378254 24.770508 53.104492L24.770508 44.760742L21.07666 44.760742L21.07666 34.070312L42.500977 34.070312L42.500977 71.834473L30.984863 71.834473L29.290039 66.793457C28.044271 68.966309 26.472574 70.595947 24.574951 71.682373C22.677328 72.768799 20.439291 73.312012 17.86084 73.312012C14.789876 73.312012 11.91447 72.566002 9.2346191 71.073975C6.554769 69.581947 4.5195312 67.735023 3.1289062 65.533203C1.7382812 63.331379 0.86914062 61.020916 0.52148438 58.601807C0.17382812 56.182697 0 52.554035 0 47.71582L0 26.812988C0 20.091635 0.36214194 15.209961 1.0864258 12.167969C1.8107096 9.1259766 3.8894043 6.3374839 7.3225098 3.8024902C10.755615 1.2674967 15.195476 0 20.64209 0C26.001791 0 30.448893 1.1009115 33.983398 3.3027344C37.517902 5.5045571 39.821125 8.1192217 40.893066 11.146729C41.965008 14.174235 42.500977 18.570639 42.500977 24.335938L42.500977 27.37793Z"/>
	<defs>
		<linearGradient id="gradient_3" gradientUnits="userSpaceOnUse" x1="14.029785" y1="0" x2="14.029785" y2="48.600098">
			<stop offset="0" stop-color="#20B2EC"/>
			<stop offset="1" stop-color="#7990F7"/>
		</linearGradient>
	</defs>
	<path fill="url(#gradient_3)" transform="translate(218.008 24.2139)" d="M28.05957 28.290039C28.05957 32.976238 27.949137 36.294025 27.728271 38.243408C27.507406 40.192791 26.816 41.974121 25.654053 43.587402C24.492105 45.200684 22.922037 46.439453 20.943848 47.303711C18.965658 48.167969 16.660971 48.600098 14.029785 48.600098C11.53304 48.600098 9.2907715 48.191975 7.3029785 47.375732C5.3151855 46.55949 3.7163086 45.335125 2.5063477 43.702637C1.2963867 42.070148 0.57617188 40.293621 0.34570312 38.373047C0.11523438 36.452473 0 33.091473 0 28.290039L0 20.310059C0 15.62386 0.11043295 12.306071 0.33129883 10.356689C0.55216473 8.4073076 1.2435709 6.6259766 2.4055176 5.0126953C3.5674641 3.3994141 5.1375327 2.1606445 7.1157227 1.2963867C9.0939131 0.43212891 11.398601 0 14.029785 0C16.526529 0 18.768799 0.40812173 20.756592 1.2243652C22.744385 2.0406086 24.343262 3.2649739 25.553223 4.8974609C26.763184 6.5299478 27.483398 8.3064775 27.713867 10.227051C27.944336 12.147624 28.05957 15.508626 28.05957 20.310059L28.05957 28.290039ZM15.931152 12.963867C15.931152 10.79362 15.811116 9.4060059 15.571045 8.8010254C15.330974 8.1960449 14.836426 7.8935547 14.087402 7.8935547C13.453613 7.8935547 12.968669 8.1384277 12.632568 8.6281738C12.296468 9.1179199 12.128418 10.563151 12.128418 12.963867L12.128418 34.743164C12.128418 37.451172 12.238851 39.12207 12.459717 39.755859C12.680583 40.389648 13.194336 40.706543 14.000977 40.706543C14.826823 40.706543 15.35498 40.341633 15.585449 39.611816C15.815918 38.882 15.931152 37.143879 15.931152 34.397461L15.931152 12.963867Z"/>
</svg>
