<?xml version="1.0" encoding="UTF-8"?>
<svg width="418px" height="74px" viewBox="0 0 418 74" version="1.1" xmlns="http://www.w3.org/2000/svg" xmlns:xlink="http://www.w3.org/1999/xlink">
    <title>Path</title>
    <defs>
        <linearGradient x1="41.9184831%" y1="18.4358115%" x2="64.0580893%" y2="50%" id="linearGradient-1">
            <stop stop-color="#20B2EC" offset="0%"></stop>
            <stop stop-color="#7990F7" offset="100%"></stop>
        </linearGradient>
        <linearGradient x1="40.2360527%" y1="18.4358115%" x2="66.9847375%" y2="50%" id="linearGradient-2">
            <stop stop-color="#20B2EC" offset="0%"></stop>
            <stop stop-color="#7990F7" offset="100%"></stop>
        </linearGradient>
        <linearGradient x1="42.1358486%" y1="18.4358115%" x2="63.6799741%" y2="50%" id="linearGradient-3">
            <stop stop-color="#20B2EC" offset="0%"></stop>
            <stop stop-color="#7990F7" offset="100%"></stop>
        </linearGradient>
        <linearGradient x1="40.9210235%" y1="18.4358115%" x2="65.7932061%" y2="50%" id="linearGradient-4">
            <stop stop-color="#20B2EC" offset="0%"></stop>
            <stop stop-color="#7990F7" offset="100%"></stop>
        </linearGradient>
        <linearGradient x1="42.7000846%" y1="18.4358115%" x2="62.6984653%" y2="50%" id="linearGradient-5">
            <stop stop-color="#20B2EC" offset="0%"></stop>
            <stop stop-color="#7990F7" offset="100%"></stop>
        </linearGradient>
        <linearGradient x1="42.4642997%" y1="18.4358115%" x2="63.1086216%" y2="50%" id="linearGradient-6">
            <stop stop-color="#20B2EC" offset="0%"></stop>
            <stop stop-color="#7990F7" offset="100%"></stop>
        </linearGradient>
        <linearGradient x1="42.3792471%" y1="18.4358115%" x2="63.2565737%" y2="50%" id="linearGradient-7">
            <stop stop-color="#20B2EC" offset="0%"></stop>
            <stop stop-color="#7990F7" offset="100%"></stop>
        </linearGradient>
    </defs>
    <g id="HACKATONS" stroke="none" stroke-width="1" fill="none" fill-rule="evenodd">
        <g id="Path" transform="translate(0.6018, 0.1655)" fill-rule="nonzero">
            <polygon fill="url(#linearGradient-1)" points="42.0664062 1.47753906 42.0664062 71.8344727 23.7709961 71.8344727 23.7709961 42.2836914 18.2954102 42.2836914 18.2954102 71.8344727 0 71.8344727 0 1.47753906 18.2954102 1.47753906 18.2954102 26.6391602 23.7709961 26.6391602 23.7709961 1.47753906"></polygon>
            <path d="M81.0039063,1.47753906 L91.4770508,71.8344727 L72.7470703,71.8344727 L71.8344727,59.1884766 L65.2724609,59.1884766 L64.1860352,71.8344727 L45.2387695,71.8344727 L54.5385742,1.47753906 L81.0039063,1.47753906 Z M71.3129883,46.7163086 C70.3859049,38.7491862 69.4588216,28.9134115 68.5317383,17.2089844 C66.6775716,30.6516927 65.5187174,40.4874674 65.0551758,46.7163086 L71.3129883,46.7163086 Z" id="Shape" fill="url(#linearGradient-2)"></path>
            <path d="M137.324219,32.1582031 L119.028809,32.1582031 L119.028809,19.9033203 C119.028809,16.3398438 118.833252,14.1162923 118.442139,13.232666 C118.051025,12.3490397 117.189128,11.9072266 115.856445,11.9072266 C114.349935,11.9072266 113.39388,12.4431966 112.988281,13.5151367 C112.582682,14.5870768 112.379883,16.9047852 112.379883,20.4682617 L112.379883,53.1479492 C112.379883,56.566569 112.582682,58.7973633 112.988281,59.840332 C113.39388,60.8833008 114.306478,61.4047852 115.726074,61.4047852 C117.087728,61.4047852 117.978597,60.8833008 118.398682,59.840332 C118.818766,58.7973633 119.028809,56.3492839 119.028809,52.4960937 L119.028809,43.6743164 L137.324219,43.6743164 L137.324219,46.4121094 C137.324219,53.6839193 136.809977,58.8408203 135.781494,61.8828125 C134.753011,64.9248047 132.47876,67.5901693 128.95874,69.8789062 C125.438721,72.1676432 121.10026,73.3120117 115.943359,73.3120117 C110.583659,73.3120117 106.165527,72.3414714 102.688965,70.4003906 C99.2124023,68.4593099 96.9091797,65.7722168 95.7792969,62.3391113 C94.6494141,58.9060059 94.0844727,53.741862 94.0844727,46.8466797 L94.0844727,26.2915039 C94.0844727,21.2215169 94.2583008,17.4190267 94.605957,14.8840332 C94.9536133,12.3490397 95.9893392,9.90820313 97.7131348,7.56152344 C99.4369303,5.21484375 101.827067,3.36791992 104.883545,2.02075195 C107.940023,0.673583984 111.452799,0 115.421875,0 C120.810547,0 125.25765,1.04296875 128.763184,3.12890625 C132.268717,5.21484375 134.57194,7.81502279 135.672852,10.9294434 C136.773763,14.0438639 137.324219,18.8893229 137.324219,25.4658203 L137.324219,32.1582031 Z" fill="url(#linearGradient-3)"></path>
            <polygon fill="url(#linearGradient-4)" points="187.473633 1.47753906 177.000488 33.2446289 188.473145 71.8344727 169.569336 71.8344727 162.181641 41.675293 162.181641 71.8344727 143.88623 71.8344727 143.88623 1.47753906 162.181641 1.47753906 162.181641 28.8120117 170.308105 1.47753906"></polygon>
            <path d="M223.23877,1.47753906 L233.711914,71.8344727 L214.981934,71.8344727 L214.069336,59.1884766 L207.507324,59.1884766 L206.420898,71.8344727 L187.473633,71.8344727 L196.773438,1.47753906 L223.23877,1.47753906 Z M213.547852,46.7163086 C212.620768,38.7491862 211.693685,28.9134115 210.766602,17.2089844 C208.912435,30.6516927 207.753581,40.4874674 207.290039,46.7163086 L213.547852,46.7163086 Z" id="Shape" fill="url(#linearGradient-2)"></path>
            <polygon fill="url(#linearGradient-5)" points="273.692383 1.47753906 273.692383 15.5576172 262.828125 15.5576172 262.828125 71.8344727 244.532715 71.8344727 244.532715 15.5576172 233.711914 15.5576172 233.711914 1.47753906"></polygon>
            <polygon fill="url(#linearGradient-1)" points="319.930664 1.47753906 319.930664 71.8344727 301.635254 71.8344727 301.635254 42.2836914 296.159668 42.2836914 296.159668 71.8344727 277.864258 71.8344727 277.864258 1.47753906 296.159668 1.47753906 296.159668 26.6391602 301.635254 26.6391602 301.635254 1.47753906"></polygon>
            <path d="M369.080566,42.6748047 C369.080566,49.7438151 368.913981,54.7486165 368.580811,57.689209 C368.24764,60.6298014 367.204671,63.3168945 365.451904,65.7504883 C363.699137,68.184082 361.330729,70.0527344 358.34668,71.3564453 C355.36263,72.6601562 351.886068,73.3120117 347.916992,73.3120117 C344.150716,73.3120117 340.768311,72.6963704 337.769775,71.4650879 C334.77124,70.2338053 332.359375,68.3868815 330.53418,65.9243164 C328.708984,63.4617513 327.622559,60.781901 327.274902,57.8847656 C326.927246,54.9876302 326.753418,49.9176432 326.753418,42.6748047 L326.753418,30.637207 C326.753418,23.5681966 326.920003,18.5633952 327.253174,15.6228027 C327.586344,12.6822103 328.629313,9.99511719 330.38208,7.56152344 C332.134847,5.12792969 334.503255,3.25927734 337.487305,1.95556641 C340.471354,0.651855469 343.947917,0 347.916992,0 C351.683268,0 355.065674,0.615641276 358.064209,1.84692383 C361.062744,3.07820638 363.474609,4.92513021 365.299805,7.38769531 C367.125,9.85026042 368.211426,12.5301107 368.559082,15.4272461 C368.906738,18.3243815 369.080566,23.3943685 369.080566,30.637207 L369.080566,42.6748047 Z M350.785156,19.5556641 C350.785156,16.281901 350.604085,14.1887207 350.241943,13.276123 C349.879801,12.3635254 349.133789,11.9072266 348.003906,11.9072266 C347.047852,11.9072266 346.316325,12.2766113 345.809326,13.0153809 C345.302327,13.7541504 345.048828,15.9342448 345.048828,19.5556641 L345.048828,52.4091797 C345.048828,56.4941406 345.215413,59.0146484 345.548584,59.9707031 C345.881755,60.9267578 346.656738,61.4047852 347.873535,61.4047852 C349.119303,61.4047852 349.916016,60.8543294 350.263672,59.753418 C350.611328,58.6525065 350.785156,56.030599 350.785156,51.8876953 L350.785156,19.5556641 Z" id="Shape" fill="url(#linearGradient-6)"></path>
            <polygon fill="url(#linearGradient-7)" points="416.75293 1.47753906 416.75293 71.8344727 400.717285 71.8344727 391.200195 39.8500977 391.200195 71.8344727 375.90332 71.8344727 375.90332 1.47753906 391.200195 1.47753906 401.456055 33.1577148 401.456055 1.47753906"></polygon>
        </g>
    </g>
</svg>