<svg width="110px" height="20px" viewBox="0 0 110 20" version="1.1" xmlns="http://www.w3.org/2000/svg" xmlns:xlink="http://www.w3.org/1999/xlink">
    <g id="Onboarding" stroke="none" stroke-width="1" fill="none" fill-rule="evenodd">
        <g id="Group-13">
            <rect id="Rectangle" fill="#494368" x="0" y="0" width="110" height="20" rx="3"></rect>
            <path d="M47.24,7.71 C47.66,7.71 47.99,7.84 48.29,8.11 C48.57,8.38 48.72,8.7 48.72,9.09 L48.72,13.88 L43.48,13.88 C43.06,13.88 42.71,13.75 42.43,13.48 C42.15,13.21 42,12.89 42,12.5 L42,10.23 L47.5,10.23 L47.5,9.08 C47.5,9.01 47.47,8.96 47.42,8.92 C47.37,8.88 47.31,8.85 47.25,8.85 L42.01,8.85 L42.01,7.71 L47.24,7.71 Z M47.5,12.73 L47.5,11.37 L43.24,11.37 L43.24,12.5 C43.24,12.57 43.27,12.62 43.32,12.66 C43.37,12.7 43.43,12.73 43.49,12.73 L47.5,12.73 Z M59.36,7.71 L60.66,7.71 L58.17,13.88 L57.17,13.88 L54.95,9.29 L52.85,13.88 L52.82,13.87 L52.83,13.88 L51.83,13.88 L49.23,7.71 L50.53,7.71 L52.32,11.8 L54.23,7.71 L55.63,7.71 L57.65,11.8 L59.36,7.71 L59.36,7.71 Z M66.31,7.71 C66.73,7.71 67.08,7.84 67.36,8.11 C67.64,8.38 67.79,8.7 67.79,9.09 L67.79,11.36 L62.29,11.36 L62.29,12.49 C62.29,12.56 62.32,12.61 62.37,12.65 C62.42,12.69 62.48,12.72 62.54,12.72 L67.78,12.72 L67.78,13.86 L62.54,13.86 C62.12,13.86 61.77,13.73 61.49,13.46 C61.21,13.19 61.06,12.87 61.06,12.48 L61.06,9.08 C61.06,8.7 61.21,8.37 61.49,8.1 C61.77,7.83 62.12,7.7 62.54,7.7 L66.31,7.7 L66.31,7.71 Z M62.3,10.21 L66.56,10.21 L66.56,9.08 C66.56,9.01 66.53,8.96 66.48,8.92 C66.43,8.88 66.37,8.85 66.31,8.85 L62.54,8.85 C62.47,8.85 62.42,8.88 62.37,8.92 C62.32,8.96 62.29,9.03 62.29,9.08 L62.29,10.21 L62.3,10.21 L62.3,10.21 Z M75.65,9.08 L75.65,9.31 L74.43,9.31 L74.43,9.08 C74.43,9.01 74.4,8.96 74.35,8.92 C74.3,8.88 74.24,8.85 74.18,8.85 L70.41,8.85 C70.34,8.85 70.29,8.88 70.24,8.92 C70.19,8.96 70.16,9.03 70.16,9.08 L70.16,9.98 C70.16,10.05 70.19,10.1 70.24,10.14 C70.29,10.18 70.35,10.21 70.41,10.21 L74.18,10.21 C74.6,10.21 74.93,10.34 75.23,10.61 C75.51,10.88 75.66,11.2 75.66,11.59 L75.66,12.48 C75.66,12.86 75.51,13.19 75.23,13.46 C74.95,13.73 74.6,13.86 74.18,13.86 L70.41,13.86 C69.99,13.86 69.64,13.73 69.36,13.46 C69.08,13.19 68.93,12.87 68.93,12.48 L68.93,12.25 L70.17,12.25 L70.17,12.48 C70.17,12.55 70.2,12.6 70.25,12.64 C70.3,12.68 70.36,12.71 70.42,12.71 L74.19,12.71 C74.26,12.71 74.31,12.68 74.36,12.64 C74.41,12.6 74.44,12.53 74.44,12.48 L74.44,11.59 C74.44,11.52 74.41,11.47 74.36,11.43 C74.31,11.39 74.25,11.36 74.19,11.36 L70.42,11.36 C70,11.36 69.65,11.23 69.37,10.96 C69.09,10.69 68.94,10.37 68.94,9.98 L68.94,9.08 C68.94,8.7 69.09,8.37 69.37,8.1 C69.65,7.83 70,7.7 70.42,7.7 L74.19,7.7 C74.61,7.7 74.94,7.83 75.24,8.1 C75.51,8.38 75.65,8.71 75.65,9.08 L75.65,9.08 Z M78.25,7.71 L82.02,7.71 C82.44,7.71 82.79,7.84 83.07,8.11 C83.35,8.38 83.5,8.7 83.5,9.09 L83.5,12.49 C83.5,12.87 83.35,13.2 83.07,13.47 C82.79,13.74 82.44,13.87 82.02,13.87 L78.25,13.87 C77.83,13.87 77.48,13.74 77.2,13.47 C76.92,13.2 76.77,12.88 76.77,12.49 L76.77,9.08 C76.77,8.7 76.92,8.37 77.2,8.1 C77.5,7.84 77.85,7.71 78.25,7.71 L78.25,7.71 Z M82.02,8.85 L78.25,8.85 C78.18,8.85 78.13,8.88 78.08,8.92 C78.03,8.96 78,9.03 78,9.08 L78,12.48 C78,12.55 78.03,12.6 78.08,12.64 C78.13,12.68 78.19,12.71 78.25,12.71 L82.02,12.71 C82.09,12.71 82.14,12.68 82.19,12.64 C82.24,12.6 82.27,12.53 82.27,12.48 L82.27,9.08 C82.27,9.01 82.24,8.96 82.19,8.92 C82.15,8.88 82.09,8.85 82.02,8.85 Z M93.14,7.71 C93.56,7.71 93.89,7.84 94.19,8.11 C94.47,8.38 94.62,8.7 94.62,9.09 L94.62,13.88 L93.4,13.88 L93.4,9.08 C93.4,9.01 93.37,8.96 93.32,8.92 C93.27,8.88 93.21,8.85 93.13,8.85 L90.52,8.85 C90.45,8.85 90.4,8.88 90.35,8.92 C90.3,8.96 90.27,9.03 90.27,9.08 L90.27,13.87 L89.03,13.87 L89.03,9.08 C89.03,9.01 89,8.96 88.95,8.92 C88.9,8.88 88.84,8.85 88.78,8.85 L86.16,8.85 C86.09,8.85 86.04,8.88 85.99,8.92 C85.94,8.96 85.91,9.03 85.91,9.08 L85.91,13.87 L84.67,13.87 L84.67,7.71 L93.14,7.71 L93.14,7.71 Z M101.06,7.71 C101.48,7.71 101.83,7.84 102.11,8.11 C102.39,8.38 102.54,8.7 102.54,9.09 L102.54,11.36 L97.04,11.36 L97.04,12.49 C97.04,12.56 97.07,12.61 97.12,12.65 C97.17,12.69 97.23,12.72 97.29,12.72 L102.53,12.72 L102.53,13.86 L97.29,13.86 C96.87,13.86 96.52,13.73 96.24,13.46 C95.96,13.19 95.81,12.87 95.81,12.48 L95.81,9.08 C95.81,8.7 95.96,8.37 96.24,8.1 C96.52,7.83 96.87,7.7 97.29,7.7 L101.06,7.7 L101.06,7.71 L101.06,7.71 Z M97.04,10.21 L101.3,10.21 L101.3,9.08 C101.3,9.01 101.27,8.96 101.22,8.92 C101.17,8.88 101.11,8.85 101.05,8.85 L97.28,8.85 C97.21,8.85 97.16,8.88 97.11,8.92 C97.06,8.96 97.03,9.03 97.03,9.08 L97.03,10.21 L97.04,10.21 L97.04,10.21 Z" id="Shape" fill="#000000" fill-rule="nonzero"></path>
            <path d="M47.24,7.01 C47.66,7.01 47.99,7.14 48.29,7.41 C48.57,7.68 48.72,8 48.72,8.39 L48.72,13.18 L43.48,13.18 C43.06,13.18 42.71,13.05 42.43,12.78 C42.15,12.51 42,12.19 42,11.8 L42,9.53 L47.5,9.53 L47.5,8.38 C47.5,8.31 47.47,8.26 47.42,8.22 C47.37,8.18 47.31,8.15 47.25,8.15 L42.01,8.15 L42.01,7.01 L47.24,7.01 Z M47.5,12.03 L47.5,10.67 L43.24,10.67 L43.24,11.8 C43.24,11.87 43.27,11.92 43.32,11.96 C43.37,12 43.43,12.03 43.49,12.03 L47.5,12.03 L47.5,12.03 Z M59.36,7.01 L60.66,7.01 L58.17,13.18 L57.17,13.18 L54.95,8.59 L52.85,13.18 L52.82,13.17 L52.83,13.18 L51.83,13.18 L49.23,7.01 L50.53,7.01 L52.32,11.1 L54.23,7.01 L55.63,7.01 L57.65,11.1 L59.36,7.01 L59.36,7.01 Z M66.31,7.01 C66.73,7.01 67.08,7.14 67.36,7.41 C67.64,7.68 67.79,8 67.79,8.39 L67.79,10.66 L62.29,10.66 L62.29,11.79 C62.29,11.86 62.32,11.91 62.37,11.95 C62.42,11.99 62.48,12.02 62.54,12.02 L67.78,12.02 L67.78,13.16 L62.54,13.16 C62.12,13.16 61.77,13.03 61.49,12.76 C61.21,12.49 61.06,12.17 61.06,11.78 L61.06,8.38 C61.06,8 61.21,7.67 61.49,7.4 C61.77,7.13 62.12,7 62.54,7 L66.31,7 L66.31,7.01 L66.31,7.01 Z M62.3,9.51 L66.56,9.51 L66.56,8.38 C66.56,8.31 66.53,8.26 66.48,8.22 C66.43,8.18 66.37,8.15 66.31,8.15 L62.54,8.15 C62.47,8.15 62.42,8.18 62.37,8.22 C62.32,8.26 62.29,8.33 62.29,8.38 L62.29,9.51 L62.3,9.51 L62.3,9.51 Z M75.65,8.38 L75.65,8.61 L74.43,8.61 L74.43,8.38 C74.43,8.31 74.4,8.26 74.35,8.22 C74.3,8.18 74.24,8.15 74.18,8.15 L70.41,8.15 C70.34,8.15 70.29,8.18 70.24,8.22 C70.19,8.26 70.16,8.33 70.16,8.38 L70.16,9.28 C70.16,9.35 70.19,9.4 70.24,9.44 C70.29,9.48 70.35,9.51 70.41,9.51 L74.18,9.51 C74.6,9.51 74.93,9.64 75.23,9.91 C75.51,10.18 75.66,10.5 75.66,10.89 L75.66,11.78 C75.66,12.16 75.51,12.49 75.23,12.76 C74.95,13.03 74.6,13.16 74.18,13.16 L70.41,13.16 C69.99,13.16 69.64,13.03 69.36,12.76 C69.08,12.49 68.93,12.17 68.93,11.78 L68.93,11.55 L70.17,11.55 L70.17,11.78 C70.17,11.85 70.2,11.9 70.25,11.94 C70.3,11.98 70.36,12.01 70.42,12.01 L74.19,12.01 C74.26,12.01 74.31,11.98 74.36,11.94 C74.41,11.9 74.44,11.83 74.44,11.78 L74.44,10.89 C74.44,10.82 74.41,10.77 74.36,10.73 C74.31,10.69 74.25,10.66 74.19,10.66 L70.42,10.66 C70,10.66 69.65,10.53 69.37,10.26 C69.09,9.99 68.94,9.67 68.94,9.28 L68.94,8.38 C68.94,8 69.09,7.67 69.37,7.4 C69.65,7.13 70,7 70.42,7 L74.19,7 C74.61,7 74.94,7.13 75.24,7.4 C75.51,7.68 75.65,8.01 75.65,8.38 L75.65,8.38 Z M78.25,7.01 L82.02,7.01 C82.44,7.01 82.79,7.14 83.07,7.41 C83.35,7.68 83.5,8 83.5,8.39 L83.5,11.79 C83.5,12.17 83.35,12.5 83.07,12.77 C82.79,13.04 82.44,13.17 82.02,13.17 L78.25,13.17 C77.83,13.17 77.48,13.04 77.2,12.77 C76.92,12.5 76.77,12.18 76.77,11.79 L76.77,8.38 C76.77,8 76.92,7.67 77.2,7.4 C77.5,7.14 77.85,7.01 78.25,7.01 Z M82.02,8.15 L78.25,8.15 C78.18,8.15 78.13,8.18 78.08,8.22 C78.03,8.26 78,8.33 78,8.38 L78,11.78 C78,11.85 78.03,11.9 78.08,11.94 C78.13,11.98 78.19,12.01 78.25,12.01 L82.02,12.01 C82.09,12.01 82.14,11.98 82.19,11.94 C82.24,11.9 82.27,11.83 82.27,11.78 L82.27,8.38 C82.27,8.31 82.24,8.26 82.19,8.22 C82.15,8.18 82.09,8.15 82.02,8.15 Z M93.14,7.01 C93.56,7.01 93.89,7.14 94.19,7.41 C94.47,7.68 94.62,8 94.62,8.39 L94.62,13.18 L93.4,13.18 L93.4,8.38 C93.4,8.31 93.37,8.26 93.32,8.22 C93.27,8.18 93.21,8.15 93.13,8.15 L90.52,8.15 C90.45,8.15 90.4,8.18 90.35,8.22 C90.3,8.26 90.27,8.33 90.27,8.38 L90.27,13.17 L89.03,13.17 L89.03,8.38 C89.03,8.31 89,8.26 88.95,8.22 C88.9,8.18 88.84,8.15 88.78,8.15 L86.16,8.15 C86.09,8.15 86.04,8.18 85.99,8.22 C85.94,8.26 85.91,8.33 85.91,8.38 L85.91,13.17 L84.67,13.17 L84.67,7.01 L93.14,7.01 L93.14,7.01 Z M101.06,7.01 C101.48,7.01 101.83,7.14 102.11,7.41 C102.39,7.68 102.54,8 102.54,8.39 L102.54,10.66 L97.04,10.66 L97.04,11.79 C97.04,11.86 97.07,11.91 97.12,11.95 C97.17,11.99 97.23,12.02 97.29,12.02 L102.53,12.02 L102.53,13.16 L97.29,13.16 C96.87,13.16 96.52,13.03 96.24,12.76 C95.96,12.49 95.81,12.17 95.81,11.78 L95.81,8.38 C95.81,8 95.96,7.67 96.24,7.4 C96.52,7.13 96.87,7 97.29,7 L101.06,7 L101.06,7.01 L101.06,7.01 Z M97.04,9.51 L101.3,9.51 L101.3,8.38 C101.3,8.31 101.27,8.26 101.22,8.22 C101.17,8.18 101.11,8.15 101.05,8.15 L97.28,8.15 C97.21,8.15 97.16,8.18 97.11,8.22 C97.06,8.26 97.03,8.33 97.03,8.38 L97.03,9.51 L97.04,9.51 L97.04,9.51 Z" id="Shape" fill="#FFFFFF" fill-rule="nonzero"></path>
            <path d="M3,0 L34,0 L34,0 L34,20 L3,20 C1.34314575,20 1.01453063e-16,18.6568542 0,17 L0,3 C-2.02906125e-16,1.34314575 1.34314575,2.02906125e-16 3,0 Z" id="Rectangle" fill="#CCA6C4" fill-rule="nonzero"></path>
            <path d="M21.23,5 L20.54,5.75 L24.63,9.5 L8.51,9.5 L12.6,5.75 L11.91,5 L7,9.5 L7,12.47 C7,13.81 8.29,14.9 9.88,14.9 L12.91,14.9 C14.5,14.9 15.79,13.81 15.79,12.47 L15.79,10.52 L17.36,10.52 L17.36,12.47 C17.36,13.81 18.65,14.9 20.24,14.9 L23.27,14.9 C24.86,14.9 26.15,13.81 26.15,12.47 L26.14,9.5 L21.23,5 Z" id="Path" fill="#261120" fill-rule="nonzero"></path>
        </g>
    </g>
</svg>