<svg width="158" height="48" viewBox="0 0 158 48" fill="none" xmlns="http://www.w3.org/2000/svg">
<g clip-path="url(#clip0_502_1264)">
<path d="M42.25 17.16C43.9 17.16 45.37 17.57 46.66 18.4C47.97 19.21 48.99 20.37 49.73 21.86C50.45 23.3 50.81 24.98 50.81 26.93C50.81 28.88 50.45 30.5 49.73 31.98C49.01 33.46 48 34.62 46.69 35.46C45.37 36.31 43.89 36.73 42.24 36.73C41.04 36.73 39.91 36.48 38.85 35.99C37.79 35.5 36.88 34.8 36.13 33.91V36.29H30V11H36.14V19.97C36.89 19.08 37.8 18.39 38.86 17.9C39.92 17.41 41.05 17.16 42.25 17.16ZM40.42 31.62C41.29 31.62 42.07 31.42 42.75 31.02C43.43 30.62 43.97 30.06 44.36 29.34C44.75 28.63 44.94 27.83 44.94 26.92C44.94 26.01 44.75 25.24 44.36 24.52C43.97 23.8 43.44 23.24 42.75 22.84C42.07 22.44 41.29 22.24 40.42 22.24C39.6 22.24 38.86 22.44 38.21 22.84C37.56 23.23 37.06 23.78 36.69 24.48C36.33 25.2 36.14 26.01 36.14 26.92C36.14 27.83 36.32 28.64 36.69 29.36C37.05 30.07 37.56 30.62 38.21 31.02C38.86 31.42 39.59 31.62 40.42 31.62Z" fill="white"/>
<path d="M51.66 36.27V11H57.8V36.27H51.66Z" fill="white"/>
<path d="M59.54 36.27V17.58H65.65V36.27H59.54Z" fill="white"/>
<path d="M78.92 17.16C80.23 17.16 81.4 17.47 82.45 18.08C83.5 18.68 84.32 19.53 84.92 20.62C85.5 21.73 85.79 22.98 85.79 24.38V36.27H79.93V25.76C79.93 25.08 79.79 24.47 79.52 23.94C79.26 23.4 78.89 22.98 78.41 22.69C77.94 22.4 77.39 22.25 76.75 22.25C76.15 22.25 75.6 22.4 75.09 22.69C74.58 22.97 74.19 23.36 73.91 23.86C73.62 24.33 73.47 24.88 73.47 25.52L73.43 36.28H67.32V17.58H73.43V19.72C74.01 18.92 74.78 18.3 75.74 17.85C76.71 17.39 77.76 17.16 78.92 17.16Z" fill="white"/>
<path d="M99.29 25.76L106.22 36.27H99.28L95.23 29.66L93.36 31.83V36.27H87.22V11H93.36V24.96L99.27 17.57H106.2L99.29 25.75V25.76Z" fill="white"/>
<path d="M59.54 11H65.67V15.78H59.54V11Z" fill="white"/>
<path d="M107.15 36.27V17.58H113.28V36.27H107.15Z" fill="white"/>
<path d="M126.23 30.94L127.45 34.88C126.9 35.41 126.2 35.84 125.35 36.17C124.51 36.5 123.7 36.66 122.9 36.66C121.75 36.66 120.72 36.41 119.81 35.9C118.9 35.38 118.2 34.66 117.69 33.75C117.18 32.86 116.93 31.83 116.93 30.66V22.41H114.48V17.58H116.93V11H122.79V17.58H126.66V22.41H122.79V29.53C122.79 30.13 122.95 30.62 123.27 31C123.59 31.38 123.99 31.56 124.49 31.56C124.84 31.56 125.17 31.51 125.48 31.4C125.79 31.29 126.04 31.14 126.24 30.94H126.23Z" fill="white"/>
<path d="M107.15 11H113.28V15.78H107.15V11Z" fill="white"/>
</g>
<defs>
<clipPath id="clip0_502_1264">
<rect width="97.44" height="25.72" fill="white" transform="translate(30 11)"/>
</clipPath>
</defs>
</svg>
