<?xml version="1.0" encoding="UTF-8"?>
<svg width="158px" height="48px" viewBox="0 0 158 48" version="1.1" xmlns="http://www.w3.org/2000/svg" xmlns:xlink="http://www.w3.org/1999/xlink">
    <title>cassan</title>
    <g id="Page-1" stroke="none" stroke-width="1" fill="none" fill-rule="evenodd">
        <g id="cassan">
            <g id="Group-2-Copy">
                <rect id="Rectangle" x="0" y="0" width="158" height="48"></rect>
            </g>
            <g id="Group-63" transform="translate(11, 0)">
                <rect id="Rectangle-Copy-39" x="0" y="0" width="136" height="48"></rect>
                <text id="cassandra" fill="#FFFFFF" fill-rule="nonzero" font-family="OpenSans-Italic, Open Sans" font-size="16" font-style="italic" font-weight="normal">
                    <tspan x="62" y="29">cassandra</tspan>
                </text>
                <g id="Simpleicons-Team-Simple-Apache-cassandra" transform="translate(1, 9)" fill="#FFFFFF" fill-rule="nonzero">
                    <path d="M40.13625,0.00264677575 C40.1316667,0.010587103 39.5702083,0.680221367 39.249375,1.08253128 C38.410625,2.13330125 37.1410417,3.66313763 36.2427083,4.04692012 L36.2335417,4.04692012 C36.1127653,3.9976311 35.9904604,3.95348834 35.866875,3.91458133 L37.4825,0.14292589 L37.4641667,0.174687199 C37.41375,0.288498556 35.8141667,3.91987488 33.64625,3.39846006 L33.6416667,3.40375361 C33.6095833,3.39581328 33.5820833,3.40904716 33.55,3.39846006 C34.5927083,1.86333013 34.99375,0.452598653 34.99375,0.452598653 C34.99375,0.452598653 33.26125,3.66313763 31.1208333,2.79499519 C31.0674906,2.77732474 31.0248168,2.73099557 31.00625,2.67059673 C30.9899905,2.60126515 30.9899905,2.52818624 31.00625,2.45885467 C31.0291667,2.35298364 31.0979167,2.2153513 31.1597917,2.08830606 C31.3775,1.62247353 31.7464583,1.11429259 31.7464583,1.11429259 C31.7464583,1.11429259 31.3889583,1.5166025 30.9077083,1.89509143 L30.903125,1.90038499 C30.5433333,2.18358999 30.1125,2.45091434 29.7114583,2.52502406 C29.5847486,2.54921462 29.4554597,2.54921462 29.32875,2.52502406 C28.8383333,2.42709336 28.8520833,1.86333013 28.9872917,1.3207411 L28.9872917,1.31544755 C29.1247917,0.775505294 29.3860417,0.256737247 29.3860417,0.256737247 C29.3860417,0.256737247 28.950625,1.04547642 28.4739583,1.81304139 C28.1072917,2.40327238 27.76125,2.86116458 27.520625,3.06761309 L27.245625,3.07820019 C27.10125,2.61236766 27.4747917,1.07723773 27.4747917,1.06665063 C27.2537671,1.4750133 27.0135463,1.86909061 26.7552083,2.24711261 C26.5323677,2.58376473 26.270143,2.88305993 25.9760417,3.13642926 L25.9141667,3.13642926 C25.72625,3.15495669 25.5475,3.18936477 25.3641667,3.21847931 C25.2843922,3.13077332 25.2333767,3.0138671 25.2197917,2.88763234 C25.1235417,2.17829644 25.5016667,0.886669875 25.50625,0.87078922 C25.5016667,0.886669875 25.3,1.55895091 25.025,2.19947064 L25.025,2.21005775 C24.9516667,2.38739172 24.8645833,2.52767084 24.7797917,2.68118383 C24.5827083,3.04114533 24.3764583,3.32699711 24.1816667,3.26347449 C23.890625,3.16025024 23.71875,2.72617902 23.6179167,2.31857555 C23.5170833,1.91097209 23.4872917,1.52718961 23.4872917,1.52718961 C23.4872917,1.52718961 23.41625,2.19153032 23.2191667,2.81087584 C23.1472819,3.06712553 23.0337236,3.30518062 22.8845833,3.51227141 C22.8295833,3.58373436 22.7539583,3.60755534 22.6875,3.65784408 C20.6307691,4.07842894 18.6198156,4.75647214 16.6902083,5.67998075 C16.1791667,5.89701636 15.668125,6.10081809 15.145625,6.36020212 C13.426875,7.20717036 11.639375,8.28176131 9.77395833,9.66337825 C7.70907881,11.2065088 5.74795641,12.9273867 3.90729167,14.8113571 C2.87833333,15.8515399 1.82875,16.9817132 0.751666667,18.2256978 C8.90770833,13.1544755 12.1458333,5.67204042 27.4175,5.00505294 C38.9789583,4.50216554 44.3804167,10.6638595 46.1633333,10.7512031 C50.648125,10.9708855 53.6295833,7.04571704 54.580625,5.5979307 C54.8372917,5.22208855 54.9908333,4.97064485 55,4.95211742 C54.9770833,4.98123195 54.2483333,5.94201155 53.2102083,6.86308951 L53.1964583,6.87367661 C52.1422917,7.80004812 50.7902083,8.67348412 49.5825,8.46174206 L49.5779167,8.46174206 C49.4220833,8.4352743 49.2616667,8.44321463 49.1127083,8.37704524 C50.8177083,7.22834456 51.9475,5.2273821 52.51125,4.15279115 C52.6854167,3.82194418 53.0452083,3.19995188 53.0452083,3.19995188 C53.0452083,3.19995188 49.0416667,7.93238691 46.0602083,7.61477382 L46.055625,7.62006737 C45.93875,7.60683349 45.815,7.6385948 45.7004167,7.60948027 C46.9997917,6.42901829 47.9577083,4.84359962 48.6291667,3.50697786 L48.6291667,3.49639076 L48.63375,3.49639076 C49.3602083,2.04595765 49.7383333,0.889316651 49.7429167,0.87078922 C49.7314583,0.891963426 48.9958333,2.18888354 47.9875,3.61549567 L47.9645833,3.64196343 C46.95625,5.07122233 45.6775,6.61164581 44.6095833,7.0827719 C44.4491667,7.15158807 44.28875,7.2574591 44.1397917,7.27333975 C46.62625,4.73243503 47.6689583,1.12487969 47.6689583,1.12487969 C47.6689583,1.12487969 45.1527083,5.34648701 43.02375,6.12728585 C42.8954167,6.17228104 42.7625,6.25168431 42.6341667,6.27021174 C43.9358333,4.91241578 44.625625,3.83517806 45.0564583,2.98820982 L45.0564583,2.97762271 C45.601875,1.90832531 45.7004167,1.25721848 45.7004167,1.25721848 L45.69125,1.26780558 C45.4901131,1.56792305 45.2830448,1.86267487 45.0702083,2.15182868 L45.0335417,2.19682387 C44.4491667,2.99085659 43.5554167,4.13691049 42.63875,5.05004812 L42.6272917,5.06063523 C42.3922435,5.29309069 42.1475076,5.51215167 41.8939583,5.71703561 C41.8252083,5.7726179 41.7564583,5.8387873 41.6877083,5.88907603 C41.4891783,6.03320614 41.2797867,6.15633991 41.0620833,6.25697786 C41.0116667,6.28344562 40.96125,6.31520693 40.913125,6.33638114 C40.7572917,6.21727623 40.610625,6.09287777 40.4433333,5.97906641 C40.3379167,6.13787295 40.2233333,6.28873917 40.1179167,6.44489894 L40.1133333,6.44489894 C40.0675,6.42901829 40.0125,6.42901829 39.9689583,6.40255053 C41.9375,3.92781521 43.2689583,0.791385948 43.2689583,0.791385948 L43.2620833,0.801973051 C43.24375,0.828440808 40.5258333,5.063282 39.2975,5.32795958 C39.1370833,5.23532243 38.9766667,5.14268527 38.8025,5.05534167 C38.8149487,4.906874 38.8490402,4.7619054 38.9033333,4.626564 C39.1829167,3.87487969 39.9689583,2.72882579 39.9689583,2.72882579 C39.9689583,2.72882579 39.7558333,2.9141001 39.6870833,2.98291627 C39.4632412,3.20497122 39.2307792,3.41516548 38.9904167,3.61284889 C38.8620833,3.71871992 38.7291667,3.80341675 38.59625,3.89870067 C38.4573032,4.00066995 38.3134611,4.09345607 38.1654167,4.17661213 C37.9793833,4.29740423 37.7745921,4.374747 37.5627083,4.40423484 C37.4641667,4.40423484 37.3747917,4.39100096 37.310625,4.3327719 C38.34875,3.59961501 40.1247917,0.0238209817 40.13625,0 L40.13625,0.00264677575 Z M29.1591667,5.73556304 C28.4609936,5.71641983 27.7624786,5.72171582 27.0645833,5.7514437 C26.4091667,5.77791145 25.8041667,5.8387873 25.1922917,5.89172281 L25.1877083,5.89701636 C24.5452596,6.20864357 23.9417845,6.61811264 23.3933333,7.11453321 C23.4458476,7.25495649 23.4731347,7.40623039 23.4735417,7.55919153 C23.4715055,7.73414244 23.4346525,7.90620791 23.3658333,8.06207892 L25.3939583,9.76130895 L25.444375,9.72425409 L24.619375,6.37872955 L26.0470833,9.32723773 C26.0929167,9.30606352 26.1433333,9.29018287 26.1914583,9.27430221 L26.145625,6.00288739 L27.0554167,9.07844081 L28.14625,6.0346487 L28.1875,9.39340712 C28.1966667,9.39870067 28.2035417,9.40928778 28.215,9.41458133 L29.8466667,6.75192493 L29.0147917,9.97834456 L29.033125,10.0048123 L31.41875,8.1732435 L29.6816667,10.952358 L29.6816667,10.9708855 L31.85875,10.0709817 C31.8885417,10.0259865 31.9275,9.99157844 31.955,9.94658325 C31.7151425,9.60002146 31.6914067,9.11612204 31.8958399,8.74049015 C32.1002731,8.36485826 32.4881091,8.17974868 32.8625,8.27911453 C33.1352083,7.63065448 33.3414583,6.94513956 33.4766667,6.24109721 C32.04983,5.95388383 30.6069252,5.78581929 29.1591667,5.73820982 L29.1591667,5.73556304 Z M23.4116667,6.09023099 L23.3658333,6.09552454 C22.6577083,6.19080847 21.9747917,6.30197305 21.319375,6.42637151 C20.6616667,6.55076997 20.0314583,6.69104909 19.4310417,6.84985563 L19.3989583,6.85514918 C19.6625,7.88209817 20.0727083,8.85611165 20.6158333,9.71366699 C20.8633333,9.07844081 21.175,8.49350337 21.5370833,7.96150144 C21.3994309,7.53391517 21.4927917,7.05280503 21.7752882,6.73397505 C22.0577847,6.41514508 22.4763886,6.31844394 22.8433333,6.48724735 C23.0197917,6.33373436 23.22375,6.22256978 23.4116667,6.09023099 Z M33.6325,6.33373436 C33.5930661,7.07824416 33.4682255,7.81341235 33.26125,8.51997113 C33.5559341,8.83072464 33.6390552,9.3280381 33.4656915,9.74314411 C33.2923278,10.1582501 32.9035966,10.3926962 32.5095833,10.3197786 C32.1550049,10.9374132 31.7311833,11.4981081 31.2491667,11.9872474 L32.7616667,12.0772377 L30.48375,12.7018768 C30.4241667,12.7495188 30.3783333,12.8130414 30.31875,12.8606833 C31.6139796,13.0940561 32.8312081,13.7247673 33.8433333,14.6869586 C34.5766667,13.1677093 34.9983333,11.4181906 34.9983333,9.55221367 C34.9983333,8.13618864 34.4552083,7.09600577 33.6370833,6.33373436 L33.6325,6.33373436 Z M19.1514583,6.93190568 C18.473125,7.11717998 17.8222917,7.32098171 17.2035417,7.5406641 C16.8850395,8.14708467 16.7169742,8.84294409 16.7177035,9.55221367 C16.7181809,13.7120122 18.8329398,17.4839834 22.1191667,19.1864774 L22.12375,19.1573628 C21.5903075,18.5433928 21.1419887,17.8381288 20.7945833,17.06641 C20.1561197,17.1747393 19.5443652,16.7302656 19.3525013,16.0186571 C19.1606374,15.3070486 19.4457455,14.5400157 20.0245833,14.210539 C19.8940869,12.9718935 20.0036756,11.7152324 20.3454167,10.5315207 C19.7110043,9.45514223 19.3029511,8.22255395 19.15375,6.93190568 L19.1514583,6.93190568 Z M36.64375,7.00072185 C36.9645833,8.0858999 37.159375,9.22930703 37.159375,10.4230029 C37.159375,16.8811357 32.1108333,22.1191049 25.8820833,22.1191049 C19.6533333,22.1191049 14.6047917,16.8784889 14.6047917,10.4203561 C14.6047917,9.79836381 14.6575,9.18431184 14.7491667,8.58614052 C13.0900155,9.39914673 11.4977323,10.3833226 9.99166667,11.5267084 C9.50125,12.5536574 9.26291667,13.6256015 9.343125,14.7028393 C9.53791667,17.3125602 11.5225,19.4882098 14.5566667,20.9624639 L13.97,20.7824832 C8.71979167,19.072666 4.55354167,22.1138114 0,19.4749759 C1.05416667,20.4384023 2.255,21.3727141 5.726875,21.385948 C6.9025,21.3912416 10.6722917,21.174206 11.3666667,21.8782483 C12.0610417,22.5796439 9.026875,25.8854668 9.026875,25.8854668 C9.026875,25.8854668 14.1602083,20.8645332 14.6620833,22.5769971 C14.9760417,23.641001 13.1885417,26.4836381 13.1885417,26.4836381 C13.1885417,26.4836381 14.9852083,23.6780558 16.314375,23.0772377 C17.2310417,22.6643407 17.99875,22.7172762 18.6564583,23.7812801 C19.091875,24.4826756 16.5710417,27.8917228 16.5710417,27.8917228 C16.5710417,27.8917228 19.9558333,24.0803657 20.5608333,24.2815207 C21.1704167,24.4826756 20.5608333,27.8917228 20.5608333,27.8917228 C20.5608333,27.8917228 21.8097917,24.4323869 22.474375,24.1782964 C23.3864583,23.8262753 20.39125,32.2006737 20.39125,32.2006737 C20.39125,32.2006737 24.04875,24.4562079 24.7316667,24.2815207 C25.9004167,23.9797883 26.6841667,29.6915303 26.6841667,29.6915303 C26.6841667,29.6915303 26.11125,24.6997113 26.73,24.3794514 C30.6120833,22.3493744 28.3754167,33 28.3754167,33 C28.3754167,33 30.9191667,25.7743022 29.35625,24.1677093 C33.4789583,27.3253128 32.9747917,33 32.9747917,33 C32.9747917,33 34.0564583,30.3002887 31.0154167,23.6568816 C32.6654167,23.5563041 35.1404167,28.5904716 35.1404167,28.5904716 C35.1404167,28.5904716 32.4545833,23.0798845 34.2764583,22.979307 C37.8972917,22.7807988 38.2639583,30.297642 38.2639583,30.297642 C38.2639583,30.297642 39.3502083,29.2442252 36.4420833,21.8782483 C38.29375,20.5072185 42.7785417,28.6936959 42.7785417,28.6936959 C42.7785417,28.6936959 38.6420833,20.7057267 39.3066667,20.171078 C39.97125,19.6364293 42.4004167,22.7119827 42.4004167,22.7119827 C42.4004167,22.7119827 40.54875,19.7740616 41.0391667,19.4749759 C41.5341667,19.1732435 46.454375,25.31641 46.454375,25.31641 C46.454375,25.31641 42.1116667,19.3055823 42.8633333,18.5671319 C43.615,17.833975 46.798125,20.642204 46.798125,20.642204 C46.798125,20.642204 41.9077083,16.936718 42.8633333,16.3597209 C44.1925,15.5656882 47.9852083,18.2653994 47.9852083,18.2653994 C47.9852083,18.2653994 45.7027083,16.0950433 46.0785417,15.5656882 C46.454375,15.0283927 50.936875,18.9720885 50.936875,18.9720885 C50.936875,18.9720885 46.9745833,15.3592397 46.770625,14.4566891 C46.5689583,13.5567854 49.891875,14.7610683 49.891875,14.7610683 C49.891875,14.7610683 46.220625,12.7918672 46.1633333,12.2228104 C46.10375,11.6564004 48.5925,12.8580366 48.5925,12.8580366 C48.5925,12.8580366 45.1779167,9.61573628 44.3414583,12.2545717 C44.1489583,12.6780558 43.9129167,13.0486044 43.6929167,13.4456208 C43.9060417,12.7309913 44.0022917,12.0084216 43.945,11.2752647 C43.9216461,11.0250929 43.8818084,10.7773423 43.8258333,10.5341675 C42.260625,9.56280077 39.9254167,8.0647257 36.64375,6.99807507 L36.64375,7.00072185 Z M23.2810417,8.20500481 C23.0285201,8.64780014 22.5434253,8.82831725 22.1145833,8.63907603 C21.9908333,8.83229066 21.8854167,9.04138595 21.7754167,9.24783446 L24.7041667,10.4918191 C24.7270833,10.457411 24.75,10.4124158 24.7775,10.3806545 L23.2810417,8.20500481 Z M21.7708333,9.25048123 C21.5554167,9.66073147 21.3583333,10.0868624 21.2116667,10.5447546 C21.4866667,10.8835419 21.8075,11.1667469 22.1191667,11.4525987 L24.234375,11.3758422 L24.2389583,11.3652551 L21.7708333,9.25048123 Z M31.3660417,10.6823869 L29.9772917,11.9078441 L30.09875,11.9131376 C30.559375,11.5637632 30.9764583,11.1455727 31.3660417,10.6823869 L31.3660417,10.6823869 Z M20.9733333,11.4525987 C20.96875,11.48436 20.9572917,11.5134745 20.9504167,11.5452358 C20.7912848,12.3773953 20.7541026,13.2344839 20.8404167,14.080847 C21.3801628,14.2041349 21.7941683,14.7066783 21.8739583,15.3354187 L24.0235417,13.7473532 C23.82875,13.66795 23.6339583,13.5885467 23.4483333,13.490616 L21.0375,13.289461 L22.4995833,12.9215592 C21.9354772,12.5141615 21.4220133,12.019971 20.9733333,11.4525987 L20.9733333,11.4525987 Z M22.790625,12.0110683 C23.1091667,12.238691 23.4322917,12.4345525 23.7760417,12.6012993 L24.041875,12.5377767 C24.041875,12.487488 24.0533333,12.439846 24.055625,12.3895573 L22.790625,12.0110683 Z M29.9429167,13.8108758 L32.0420833,16.192974 L29.2966667,14.9595765 L30.9077083,17.8154475 L28.4510417,15.6106833 L28.4235417,15.626564 L29.2164583,19.014437 L27.850625,16.0076997 L27.6283333,19.5279115 L26.7047917,16.0182868 L25.6277083,19.3611646 L25.8866667,15.7615496 L25.85,15.7403754 L23.9891667,18.7921078 L24.6697917,15.8541867 C23.871926,16.7379884 23.2515902,17.8131316 22.8525,19.0038499 C23.0702083,19.273821 23.3016667,19.5279115 23.5445833,19.768768 C27.3566071,20.9201946 31.3782098,19.1179828 33.5202083,15.2983638 C32.6515564,14.6013316 31.6690903,14.1159297 30.6327083,13.8717517 L29.9429167,13.8108758 Z M24.3604167,14.4011068 L21.8877083,15.4333494 C21.89,15.4809913 21.910625,15.520693 21.910625,15.5683349 C21.9110039,15.9907199 21.7580537,16.3939447 21.4889583,16.6799808 C21.7227083,17.2569779 22.0114583,17.8022137 22.3483333,18.3103946 C22.5379576,17.7204352 22.7839202,17.1567216 23.0816667,16.629692 L22.405625,17.2622714 L24.3604167,14.4011068 Z M32.6883333,21.7882579 C32.2620833,21.91795 31.8404167,22.0449952 31.405,22.1508662 C31.8427083,22.0449952 32.2620833,21.9126564 32.6883333,21.7909047 L32.6883333,21.7882579 Z M30.1927083,22.4102502 C29.9314583,22.4631858 29.6770833,22.5320019 29.4135417,22.5769971 C28.950625,22.6564004 28.5197917,22.6881617 28.070625,22.7410972 C28.7925,22.6537536 29.500625,22.5452358 30.1927083,22.4102502 Z M27.0989583,22.8602021 C26.846875,22.8813763 26.60625,22.8787295 26.3564583,22.8919634 C26.6085417,22.873436 26.846875,22.8840231 27.0989583,22.8602021 Z" id="Shape"></path>
                </g>
            </g>
        </g>
    </g>
</svg>