<?xml version="1.0" encoding="UTF-8"?>
<svg width="503px" height="576px" viewBox="0 0 503 576" version="1.1" xmlns="http://www.w3.org/2000/svg" xmlns:xlink="http://www.w3.org/1999/xlink">
    <title>logo - For Dark Copy 2@1x</title>
    <defs>
        <linearGradient x1="62.2471873%" y1="-8.33962962%" x2="40.096113%" y2="50%" id="linearGradient-1">
            <stop stop-color="#313131" offset="0%"></stop>
            <stop stop-color="#000000" offset="100%"></stop>
        </linearGradient>
    </defs>
    <g id="Final-Logo" stroke="none" stroke-width="1" fill="none" fill-rule="evenodd">
        <g id="Logo-" transform="translate(-3103, -747)">
            <g id="Logo---GoFr-for-printing--Copy-4" transform="translate(3103, 747)">
                <g id="Group-94-Copy-2" opacity="0.249674479" transform="translate(-10.8999, -77.2474)">
                    <g id="Group-95" transform="translate(0, -0)">
                        <g id="GoFr.dev" transform="translate(94.2518, 651.3787)"></g>
                    </g>
                </g>
                <g id="Group-95">
                    <path d="M279.265876,106.564619 C256.417713,106.564619 234.802659,114.20002 217.243685,128.045645 L199.175031,142.293163 L197.100585,140.218166 L183.009793,170.453368 C176.925573,183.506317 173.511774,197.690872 173.034449,212.396399 L172.998311,213.776549 L172.461209,240.673762 L172.458691,241.200346 C172.44351,243.522028 172.431749,245.959991 172.423409,248.514166 L172.420045,249.615927 L172.407793,253.436537 L172.407835,271.529599 L172.407157,283.447915 L172.322003,283.517789 L172.172347,336.675414 L151.358624,304.597841 L147.028502,314.688924 C146.568452,315.760545 146.09302,316.899148 145.595375,318.120617 L145.21787,319.052506 C143.306158,323.797809 141.456605,331.940099 139.840177,343.209461 L143.715721,343.794196 L144.617699,365.159724 C144.727835,367.768562 145.144225,371.750602 145.912143,377.363929 C145.999206,378.00034 146.104357,378.351291 146.189834,378.523016 C146.193175,378.529729 146.179618,378.51152 146.243165,378.571416 C147.132523,379.40967 149.315507,380.463492 153.190491,381.336561 L172.886773,385.77431 L173.395158,405.981679 C173.54619,411.984897 173.719553,417.177499 173.896403,421.420965 L173.916392,421.934335 L174.058543,421.962893 L175.698055,441.581374 C175.791174,442.695643 175.882049,443.944511 175.981216,445.451384 C176.64791,455.582055 177.099485,460.732612 177.911037,465.38456 L178.049727,466.156036 C178.428982,468.205093 178.885655,470.204839 179.470233,472.548712 C182.362746,484.146266 187.310602,494.419609 194.818745,504.076049 C195.927992,505.502684 197.092256,506.91265 198.312767,508.306407 C199.162227,509.276443 200.047117,510.265632 200.978349,511.287219 L201.345945,511.690483 L201.696263,512.10888 C203.138632,513.831556 204.622597,515.496445 206.147003,517.101773 L213.122169,524.446561 L221.122747,530.290907 C239.246567,543.528717 260.966538,550.89603 283.825431,551.213174 L285.008791,551.224278 C305.284469,551.288158 324.562965,545.046546 340.702812,533.53578 L348.834596,527.736521 L355.585341,520.420107 C363.390108,511.960408 369.618603,502.172462 373.942418,491.525004 L374.414987,490.33844 L376.921737,483.916851 L378.831693,476.233596 C379.108334,475.120094 379.354116,474.01716 379.557163,472.992022 L379.70125,472.238805 L379.961204,470.785542 C380.211438,469.341624 380.435674,467.901858 380.633992,466.46615 L381.07686,463.253311 L381.348662,460.068905 C381.922474,453.32722 381.919063,446.660703 381.34096,440.053878 L381.184463,438.403407 L381.050613,437.093054 L381.049342,436.826669 L380.6347,433.905044 C380.506357,433.003418 380.367172,432.102549 380.217132,431.202399 L379.983929,429.852707 L379.959327,429.712976 L385.853551,428.671459 L386.101208,426.878998 L379.7259,427.176988 C379.333616,418.736051 378.981902,411.083608 378.665293,404.096092 L378.597984,402.608899 L377.511174,378.568306 L377.5255,378.565211 L377.51679,378.32504 C377.429296,376.309434 377.345425,374.361744 377.265179,372.481975 L377.205675,371.084884 L377.182263,370.533935 L377.182267,369.982488 L377.182343,357.796165 L414.97664,355.305358 L415.033189,347.461147 L415.416918,347.052907 L415.411755,346.988222 C413.565146,330.654097 411.272479,319.122237 408.874732,312.941545 L408.727803,312.569826 C404.443058,301.934111 401.385557,296.307753 396.926848,290.789086 C396.204909,289.895522 394.566756,288.247225 392.118436,286.072508 L381.882742,276.980669 L383.615615,263.390971 C384.040793,260.056605 384.403942,257.190497 384.721191,254.664155 L384.874924,253.437843 C386.347247,241.672089 386.947691,236.241225 387.253247,232.104457 L387.283764,231.683488 C387.314845,231.245725 387.343791,230.807949 387.371334,230.360118 L387.41781,229.604426 L387.508246,228.852736 C388.01333,224.654506 388.2708,220.320839 388.2708,215.95983 C388.2708,206.405494 387.034267,197.04466 384.631578,188.04258 L384.516531,187.624378 L258.388489,273.005492 L383.723383,131.259103 L378.277809,127.320733 C377.346834,126.647188 375.679527,126.09663 373.829134,126.021416 L373.399514,126.011374 L358.243555,138.71519 L342.00228,127.404998 C337.551108,124.305266 332.876223,121.547776 328.01688,119.158993 L327.539263,118.924203 L327.071681,118.669971 C312.527216,110.761904 296.228804,106.564619 279.265876,106.564619 Z" id="Path" fill="#FFFFFF" fill-rule="nonzero"></path>
                    <polygon id="Path" fill="#FFFFFF" fill-rule="nonzero" points="399.560439 426.251799 394.882486 426.470589 395.478156 426.972997"></polygon>
                    <polygon id="Path" fill="#FFFFFF" fill-rule="nonzero" points="182.495415 126.02078 182.197502 126.037305 190.315126 134.432374 191.351074 134.461546 182.909554 126.012639"></polygon>
                    <path d="M184.528241,148.702034 C197.937732,148.702034 208.808272,137.818055 208.808272,124.391987 C208.808272,110.965919 197.937732,100.08194 184.528241,100.08194 C171.118749,100.08194 156.497506,108.517083 156.497506,121.943152 C156.497506,135.36922 171.118749,148.702034 184.528241,148.702034 Z" id="Oval-Copy-25" fill="#6AD7E4"></path>
                    <path d="M184.528241,98.460886 C198.831686,98.460886 210.427036,110.070571 210.427036,124.391987 C210.427036,138.713403 198.831686,150.323088 184.528241,150.323088 C170.028346,150.323088 154.878742,136.082874 154.878742,121.943152 C154.878742,108.454081 168.947416,98.460886 184.528241,98.460886 Z M184.528241,101.702994 C170.544048,101.702994 158.11627,110.530636 158.11627,121.943152 C158.11627,134.24481 171.772166,147.08098 184.528241,147.08098 C197.043778,147.08098 207.189508,136.922707 207.189508,124.391987 C207.189508,111.861267 197.043778,101.702994 184.528241,101.702994 Z" id="Oval-Copy-25" fill="#000000" fill-rule="nonzero"></path>
                    <ellipse id="Oval-Copy-26" fill="url(#linearGradient-1)" cx="182.909572" cy="124.391987" rx="8.09334389" ry="8.10334899"></ellipse>
                    <path d="M378.768494,148.702034 C392.177985,148.702034 403.048526,137.818055 403.048526,124.391987 C403.048526,110.965919 392.177985,100.08194 378.768494,100.08194 C365.359003,100.08194 350.737759,108.517083 350.737759,121.943152 C350.737759,135.36922 365.359003,148.702034 378.768494,148.702034 Z" id="Oval-Copy-27" fill="#6AD7E4" transform="translate(376.8931, 124.392) scale(-1, 1) translate(-376.8931, -124.392)"></path>
                    <path d="M378.768494,98.460886 C393.071939,98.460886 404.66729,110.070571 404.66729,124.391987 C404.66729,138.713403 393.071939,150.323088 378.768494,150.323088 C364.268599,150.323088 349.118995,136.082874 349.118995,121.943152 C349.118995,108.454081 363.187669,98.460886 378.768494,98.460886 Z M378.768494,101.702994 C364.784302,101.702994 352.356523,110.530636 352.356523,121.943152 C352.356523,134.24481 366.012419,147.08098 378.768494,147.08098 C391.284031,147.08098 401.429762,136.922707 401.429762,124.391987 C401.429762,111.861267 391.284031,101.702994 378.768494,101.702994 Z" id="Oval-Copy-27" fill="#000000" fill-rule="nonzero" transform="translate(376.8931, 124.392) scale(-1, 1) translate(-376.8931, -124.392)"></path>
                    <ellipse id="Oval-Copy-28" fill="url(#linearGradient-1)" transform="translate(376.6365, 124.392) scale(-1, 1) translate(-376.6365, -124.392)" cx="376.636459" cy="124.391987" rx="8.09334389" ry="8.10334899"></ellipse>
                    <path d="M340.525475,342.891466 L365.471242,335.744391 C374.853262,331.452707 380.849572,331.772988 383.460171,336.705234 C387.376071,344.103604 390.652979,351.342981 382.035711,365.716998 C376.290866,375.299676 371.21898,380.317148 366.820053,380.769414 L329.9014,380.763125" id="Path-56-Copy-2" fill="#FFC396" transform="translate(358.6872, 356.7593) scale(-1, 1) rotate(8) translate(-358.6872, -356.7593)"></path>
                    <path d="M361.404115,332.76255 C371.84456,328.127447 379.437578,328.651051 383.015775,335.413555 C389.031975,346.783689 389.419949,354.405445 381.500576,367.613318 C375.262202,378.017633 369.586142,383.63313 363.838072,384.225247 L363.506869,384.242265 L326.589068,384.243173 L326.589068,377.758957 L363.293721,377.757437 L363.412889,377.742796 C366.374887,377.244763 370.600041,373.044257 375.546696,364.940984 L375.949347,364.275406 C382.590187,353.199859 382.323135,347.953615 377.294287,338.449497 C375.719611,335.473487 371.536799,335.250871 363.512394,338.92297 L363.291428,339.024088 L363.057867,339.09105 L338.111391,346.243184 L336.329219,340.009411 L361.050834,332.922687 L361.404115,332.76255 Z" id="Path-56-Copy-2" fill="#000000" fill-rule="nonzero" transform="translate(357.0408, 356.9869) scale(-1, 1) rotate(8) translate(-357.0408, -356.9869)"></path>
                    <polygon id="Path-35-Copy" fill="#FFFFFF" points="179.688155 299.262001 120.03936 248.908311 94.739143 278.98892 153.675343 325.639679"></polygon>
                    <path d="M120.03936,248.908311 L179.688155,299.262001 L153.675343,325.639679 L94.739143,278.98892 L120.03936,248.908311 Z M120.817431,258.045652 L103.993077,278.049458 L153.140551,316.95115 L170.157358,299.697732 L120.817431,258.045652 Z" id="Path-35-Copy-2" fill="#000000" fill-rule="nonzero"></path>
                    <path d="M460.078722,501.669066 L400.429926,451.315376 L375.12971,481.395985 L405.018007,505.05397 C421.547431,518.137783 445.276386,516.679025 460.078722,501.669066 L460.078722,501.669066 L460.078722,501.669066 Z" id="Path-35-Copy-4" fill="#FFFFFF"></path>
                    <path d="M400.429926,451.315376 L460.078722,501.669066 C445.271085,516.684401 421.555504,518.144173 405.023006,505.057927 L375.12971,481.395985 L400.429926,451.315376 Z M401.207997,460.452717 L384.383644,480.456523 L409.038225,499.970941 C420.963438,509.410305 437.320023,509.875969 449.617918,501.890524 L449.995746,501.638294 L401.207997,460.452717 Z" id="Path-35-Copy-4" fill="#000000" fill-rule="nonzero"></path>
                    <polygon id="Path-36-Copy" fill="#000000" opacity="0.120744978" points="104.551792 264.621538 164.749495 311.865013 153.675343 322.39834 94.739143 275.74758"></polygon>
                    <path d="M383.32369,462.166594 L441.35057,507.870254 C432.04215,510.410731 422.083749,508.58851 414.278087,502.916443 L373.511041,473.292636 L373.511041,473.292636 L383.32369,462.166594 Z" id="Path-36-Copy-2" fill="#000000" opacity="0.120744978"></path>
                    <path d="M68.861633,280.705657 L118.624755,219.910724 C119.191462,219.218385 120.212121,219.116541 120.90446,219.683248 C121.000633,219.76197 121.087428,219.851497 121.163131,219.950063 L134.998163,237.963331 C135.446245,238.546736 135.444995,239.35881 134.99512,239.940832 L90.5194235,297.480854 C89.9716455,298.187716 88.9548741,298.31828 88.2462752,297.772752 L69.1253791,283.014194 C68.4171165,282.467518 68.2861247,281.45019 68.8328006,280.741927 C68.842238,280.7297 68.8518498,280.717609 68.861633,280.705657 Z" id="Path-37-Copy" fill="#EB202B"></path>
                    <path d="M120.904598,219.68258 C121.000067,219.760946 121.086271,219.849991 121.16153,219.947978 L134.996992,237.961807 C135.445632,238.545938 135.444381,239.359604 134.993947,239.942349 L90.5175094,297.483331 C89.9710755,298.190274 88.9562766,298.32077 88.2492099,297.775017 L69.1268859,283.015357 C68.4187905,282.46881 68.2872037,281.45091 68.8329786,280.741813 C68.8428539,280.728982 68.8529208,280.7163 68.8631757,280.703772 L118.626475,219.908623 C119.193229,219.216226 120.21318,219.115024 120.904598,219.68258 Z M119.757274,228.755049 L77.0416893,280.938577 L88.3622455,289.676057 L127.579501,238.93887 L119.757274,228.755049 Z" id="Path-37-Copy" fill="#000000" fill-rule="nonzero"></path>
                    <path d="M10.3625584,207.077415 L85.4689702,271.211502 L85.4689702,271.211502 L110.276144,240.537353 L34.7831966,178.913949 C29.519741,174.617494 21.8317044,175.115292 17.1662635,180.054639 L9.35681764,188.322574 C4.44195444,193.525987 4.6758702,201.72847 9.8792831,206.643334 C10.0367227,206.792043 10.1978651,206.936782 10.3625584,207.077415 Z" id="Path-38-Copy" fill="#EB202B"></path>
                    <path d="M17.1779973,180.042216 C21.8385728,175.10802 29.5112528,174.610565 34.7682634,178.90176 L110.276144,240.537353 L85.4689702,271.211502 L10.375394,207.088376 C10.2061168,206.943828 10.0405871,206.794937 9.87896973,206.641849 C4.6829939,201.720115 4.4550407,193.512133 9.36982201,188.308806 L17.1779973,180.042216 Z M21.8820705,184.49801 L14.0738953,192.7646 C11.6165046,195.366263 11.7304812,199.470255 14.3284691,201.931122 C14.4092778,202.007665 14.4920427,202.082111 14.5766813,202.154385 L84.6145926,261.96166 L101.179944,241.478743 L30.6772036,183.927782 C28.0486983,181.782185 24.2123583,182.030912 21.8820705,184.49801 Z" id="Path-38-Copy" fill="#000000" fill-rule="nonzero"></path>
                    <path d="M15.8888352,190.844239 L14.0626808,192.82546 C11.6371605,195.456942 11.8041254,199.556453 14.4356074,201.981973 C14.5180408,202.057955 14.6024322,202.131784 14.6886962,202.203387 L16.6166659,203.803684 L16.6166659,203.803684 L84.6180503,261.787573 L15.8888352,190.844239 Z" id="Path-45-Copy" fill="#000000" opacity="0.048874628"></path>
                    <path d="M27.8026671,180.449001 L24.881764,209.356975 C24.7018762,211.137312 25.999297,212.726389 27.7796346,212.906277 C28.1589785,212.944606 28.5421103,212.915678 28.9113984,212.820825 L54.3587505,206.284525 C56.0918942,205.839357 57.8577648,206.883468 58.3029328,208.616611 C58.3999969,208.994505 58.4280087,209.386823 58.3856192,209.774673 L55.705017,234.301366 C55.510605,236.080176 56.7950135,237.679789 58.5738237,237.874201 C59.0693388,237.928357 59.5706678,237.867453 60.0388019,237.696226 L84.2435961,228.842977 C85.9241134,228.228304 87.784733,229.092341 88.3994062,230.772859 C88.5298271,231.12943 88.5965604,231.506149 88.5965604,231.885823 L88.5965604,263.320122 L88.5965604,263.320122" id="Path-39-Copy" fill="#EB202B" opacity="0.0985398065"></path>
                    <path d="M24.5815863,180.122617 L31.0237479,180.775385 L28.1030428,209.681399 L53.5583583,203.143054 C57.0223037,202.25332 60.5506396,204.344103 61.4391172,207.812948 C61.6327388,208.568897 61.6884966,209.353639 61.6037084,210.129426 L58.9234941,234.652568 L83.1375741,225.795923 C86.496604,224.56731 90.2142165,226.298206 91.441094,229.661987 C91.7010718,230.37478 91.8340883,231.127739 91.8340883,231.886588 L91.8340883,263.320122 L85.3590324,263.320122 L85.3590324,231.886588 L61.1449524,240.743233 C60.2098652,241.085255 59.2086186,241.206755 58.2190199,241.098292 C54.6641733,240.708672 52.0978046,237.506972 52.486875,233.947097 L55.1670892,209.423955 L29.7117737,215.9623 C28.9741158,216.151772 28.2088643,216.209447 27.4511968,216.132674 C23.8932891,215.77216 21.3008766,212.591572 21.6608812,209.028631 L24.5815863,180.122617 Z" id="Path-39-Copy" fill="#000000" fill-rule="nonzero"></path>
                    <path d="M125.975105,365.557315 L121.955136,404.767862 C142.65511,402.434416 154.018597,393.859212 156.045598,379.042249 C158.0726,364.225286 158.0726,356.593793 156.045598,356.147768" id="Path-58-Copy" fill="#FFC396" transform="translate(139.7605, 380.4578) scale(-1, 1) translate(-139.7605, -380.4578)"></path>
                    <path d="M154.63543,355.799872 C154.827296,354.925449 155.690693,354.372348 156.563881,354.564485 C160.076632,355.337437 160.076632,362.768663 157.82026,379.262273 C155.679385,394.911633 143.675738,403.969919 122.307091,406.378742 L120.310515,406.60381 L120.515715,404.602302 L124.535683,365.391755 C124.62699,364.501153 125.421965,363.853301 126.311308,363.944737 C127.200652,364.036173 127.847589,364.832272 127.756282,365.722874 L123.942627,402.906168 L124.50497,402.829361 C142.613454,400.224192 152.481076,392.439522 154.52396,379.426538 L154.612692,378.822226 C155.617062,371.480488 156.117963,365.933153 156.117963,362.205907 C156.117963,360.419674 156.001757,359.081587 155.786714,358.224646 C155.702546,357.889242 155.612396,357.665761 155.542314,357.562389 L155.490387,357.597035 C154.843553,357.272645 154.473082,356.539768 154.63543,355.799872 Z" id="Path-58-Copy" fill="#000000" fill-rule="nonzero" transform="translate(139.8459, 380.5651) scale(-1, 1) translate(-139.8459, -380.5651)"></path>
                    <path d="M117.737868,265.390259 C125.731809,271.718736 131.204346,276.709324 134.155481,280.362026 C142.231942,290.358483 146.904994,301.656628 149.596681,308.338009 C153.596075,318.265415 156.700959,335.187255 158.911335,359.103529 C159.067781,360.81309 157.863344,362.347707 156.16558,362.602005 L126.966508,367.00071 C125.197071,367.267268 123.546571,366.048943 123.280013,364.279506 C123.277008,364.259556 123.274189,364.239579 123.271557,364.219577 L114.731456,299.321614 L114.731456,299.321614" id="Path-57-Copy" fill="#1C2230" transform="translate(136.958, 316.4414) scale(-1, 1) translate(-136.958, -316.4414)"></path>
                    <path d="M118.98736,264.118582 C127.067941,270.515649 132.615291,275.574461 135.659532,279.342403 C142.341888,287.613338 146.544132,295.818439 151.343481,307.731517 C155.416404,317.841442 158.544999,334.892506 160.768977,358.955965 C161.003607,361.526399 159.191741,363.832231 156.647653,364.205675 L127.449248,368.60428 C124.797034,369.003823 122.323553,367.174632 121.924574,364.518666 C121.918102,364.474669 121.918102,364.474669 121.912165,364.430597 L113.372166,299.533404 L116.581944,299.109825 L125.121943,364.007017 L125.12608,364.036374 C125.259073,364.921696 126.083566,365.531426 126.967638,365.398245 L156.172068,360.998744 C157.020224,360.87424 157.623027,360.107096 157.545059,359.252923 C155.348117,335.482005 152.266943,318.689389 148.34108,308.944501 C143.653098,297.307861 139.572216,289.339725 133.142628,281.381648 C130.2846,277.844188 124.886874,272.921823 116.979575,266.661936 L118.98736,264.118582 Z" id="Path-57-Copy" fill="#000000" fill-rule="nonzero" transform="translate(137.0808, 316.3888) scale(-1, 1) translate(-137.0808, -316.3888)"></path>
                    <path d="M280.884545,79.0132326 C332.870537,79.0132326 377.51817,110.471328 396.874183,155.412065 C374.530903,114.248761 330.966857,86.3062467 280.884545,86.3062467 C230.803046,86.3062467 187.239601,114.247853 164.896678,155.410423 C184.252245,110.470394 228.899324,79.0132326 280.884545,79.0132326 Z" id="Combined-Shape-Copy-7" fill="#FFFFFF" opacity="0.103352865"></path>
                    <path d="M258.990827,284.641142 C297.690488,282.884767 336.731932,286.925525 375.978618,297.982358 C376.408923,298.103586 376.659618,298.551186 376.538561,298.9821 C376.417504,299.413014 375.970536,299.664063 375.540231,299.542835 C336.466317,288.534677 297.596961,284.51173 259.064115,286.260534 C229.065666,287.622006 201.163448,292.301446 173.401681,299.546924 C172.969121,299.659817 172.527073,299.400179 172.414339,298.967007 C172.301606,298.533835 172.560877,298.091161 172.993437,297.978268 C200.857942,290.705977 228.86957,286.008188 258.990827,284.641142 Z" id="Path-90-Copy-2" fill="#FFFFFF" fill-rule="nonzero"></path>
                    <path d="M258.990827,328.401824 C297.690488,326.645449 336.731932,330.686207 375.978618,341.743039 C376.408923,341.864268 376.659618,342.311867 376.538561,342.742781 C376.417504,343.173695 375.970536,343.424745 375.540231,343.303516 C336.466317,332.295358 297.596961,328.272411 259.064115,330.021215 C229.065666,331.382688 201.163448,336.062128 173.401681,343.307606 C172.969121,343.420499 172.527073,343.160861 172.414339,342.727689 C172.301606,342.294516 172.560877,341.851843 172.993437,341.73895 C200.857942,334.466658 228.86957,329.76887 258.990827,328.401824 Z" id="Path-90-Copy-3" fill="#FFFFFF" fill-rule="nonzero" transform="translate(274.4785, 335.6704) scale(1, -1) translate(-274.4785, -335.6704)"></path>
                    <path d="M409.242141,359.074635 L405.222172,398.285183 C425.922146,395.951737 437.285633,387.376533 439.312634,372.55957 C441.339636,357.742607 441.339636,350.111113 439.312634,349.665089" id="Path-58-Copy-2" fill="#FFC396"></path>
                    <path d="M437.731588,349.317193 C437.923455,348.44277 438.786851,347.889668 439.660039,348.081806 C443.17279,348.854757 443.17279,356.285984 440.916419,372.779593 C438.775543,388.428954 426.771896,397.48724 405.403249,399.896063 L403.406673,400.121131 L403.611873,398.119623 L407.631841,358.909076 C407.723148,358.018474 408.518123,357.370622 409.407467,357.462058 C410.29681,357.553494 410.943747,358.349593 410.85244,359.240195 L407.038785,396.423489 L407.601128,396.346682 C425.709612,393.741513 435.577234,385.956842 437.620118,372.943859 L437.70885,372.339547 C438.71322,364.997809 439.214122,359.450473 439.214122,355.723228 C439.214122,353.936995 439.097916,352.598908 438.882872,351.741967 C438.798704,351.406563 438.708554,351.183081 438.638472,351.07971 L438.586545,351.114356 C437.939711,350.789965 437.56924,350.057089 437.731588,349.317193 Z" id="Path-58-Copy-2" fill="#000000" fill-rule="nonzero"></path>
                    <path d="M401.004905,258.90758 C408.998845,265.236057 414.471382,270.226645 417.422517,273.879346 C425.498978,283.875803 430.17203,295.173949 432.863717,301.85533 C436.863111,311.782736 439.967995,328.704576 442.178371,352.62085 C442.334817,354.33041 441.13038,355.865028 439.432616,356.119326 L410.233544,360.518031 C408.464107,360.784589 406.813607,359.566264 406.547049,357.796826 C406.544044,357.776877 406.541225,357.7569 406.538593,357.736897 L397.998492,292.838935 L397.998492,292.838935" id="Path-57-Copy-2" fill="#1C2230"></path>
                    <path d="M402.008797,257.635903 C410.089378,264.03297 415.636728,269.091782 418.68097,272.859724 C425.363325,281.130659 429.565569,289.33576 434.364918,301.248838 C438.437841,311.358763 441.566436,328.409827 443.790415,352.473286 C444.025044,355.04372 442.213179,357.349552 439.66909,357.722996 L410.470686,362.1216 C407.818471,362.521144 405.34499,360.691953 404.946011,358.035986 C404.939539,357.99199 404.939539,357.99199 404.933603,357.947917 L396.393603,293.050725 L399.603381,292.627145 L408.143381,357.524338 L408.147517,357.553694 C408.28051,358.439016 409.105003,359.048747 409.989075,358.915566 L439.193505,354.516065 C440.041661,354.391561 440.644464,353.624417 440.566496,352.770244 C438.369554,328.999326 435.28838,312.206709 431.362517,302.461822 C426.674535,290.825182 422.593653,282.857046 416.164065,274.898969 C413.306037,271.361509 407.908311,266.439143 400.001012,260.179257 L402.008797,257.635903 Z" id="Path-57-Copy-2" fill="#000000" fill-rule="nonzero"></path>
                    <path d="M282.247995,82.2545722 C355.10623,82.2545722 414.1695,141.390857 414.1695,214.339161 C414.1695,219.721079 413.848015,225.027817 413.223222,230.241174 C412.050371,249.348769 401.818975,315.839968 401.818975,332.649191 C401.818975,340.586683 403.452328,379.150028 406.719035,448.339226 C406.814049,450.351236 406.858336,452.36532 406.851872,454.379562 C406.639339,520.607982 352.778305,574.124432 286.549885,573.911899 C215.622646,573.684287 157.279325,517.985453 153.764285,447.145002 C151.34024,398.291646 150.194308,371.252467 150.326489,366.027464 C150.55425,357.024297 149.775545,302.555535 149.748447,258.964604 L149.748028,255.202877 C149.755573,237.166981 149.904886,221.341067 150.326489,211.908156 C150.330063,211.828199 150.335208,211.748644 150.341917,211.669491 L150.352845,211.672219 C151.771472,139.954972 210.279728,82.2545722 282.247995,82.2545722 Z" id="Combined-Shape-Copy-8" fill="#6AD7E4"></path>
                    <path d="M282.247995,80.6335182 C356.000184,80.6335182 415.788264,140.495509 415.788264,214.339161 C415.788264,219.749197 415.467273,225.119884 414.839197,230.33844 C414.820284,230.646695 414.800502,230.955768 414.779651,231.267449 L414.747547,231.737148 C414.253188,238.818671 413.165972,247.672462 409.181227,278.662447 C409.030111,279.838008 409.030111,279.838008 408.879127,281.01413 C405.074348,310.664278 403.437739,325.443252 403.437739,332.649191 L403.438228,332.895097 C403.470528,341.313243 405.101654,379.752332 408.327629,448.085518 C408.424099,450.129994 408.469088,452.176347 408.46254,454.222625 C408.247455,521.435853 353.662978,575.748333 286.544698,575.533583 C214.754865,575.302564 155.70067,518.848978 152.138601,447.045775 C149.88813,401.681582 148.742195,375.174653 148.698744,367.445006 L148.698018,366.751144 C148.699265,366.46209 148.702654,366.207414 148.708244,365.98641 C148.730478,365.107524 148.743513,363.758677 148.747804,361.941843 L148.74795,358.940824 C148.740779,354.875203 148.707525,349.353138 148.64551,341.402118 C148.630716,339.505358 148.596484,335.346213 148.560015,330.950078 L148.54955,329.68934 C148.498816,323.581518 148.446943,317.389603 148.439236,316.447501 C148.339004,304.19435 148.268816,294.471945 148.216796,285.031841 C148.164411,275.525509 148.134608,266.886987 148.129683,258.964352 L148.129683,253.343563 C148.149152,234.320715 148.330129,220.3202 148.709344,211.835673 C148.713764,211.736782 148.720087,211.638222 148.72297,211.643191 C150.16915,138.939151 209.500348,80.6335182 282.247995,80.6335182 Z M282.247995,83.8756261 C211.264024,83.8756261 153.370942,140.768002 151.954515,211.810947 C151.949806,211.867178 151.946177,211.923737 151.943634,211.980639 C151.567158,220.403894 151.386634,234.369328 151.367211,253.345402 L151.367211,258.963595 C151.372132,266.879206 151.401917,275.512571 151.454275,285.01395 C151.506276,294.450673 151.576445,304.170434 151.676656,316.420943 C151.684093,317.330102 151.732707,323.13378 151.781718,329.030796 L151.792212,330.294121 C151.830601,334.918722 151.867437,339.389231 151.88294,341.376796 C151.947486,349.652503 151.980908,355.299925 151.986212,359.420246 L151.985327,361.94624 C151.980978,363.789219 151.96774,365.159118 151.944734,366.068518 C151.939763,366.265002 151.936671,366.497448 151.93553,366.756392 L151.936246,367.434123 C151.979269,375.084921 153.125243,401.592719 155.372141,446.884909 C158.848789,516.966214 216.486817,572.065998 286.555073,572.291475 C351.885325,572.500504 405.015674,519.634906 405.225028,454.212236 C405.231402,452.220457 405.187611,450.228594 405.093711,448.238584 C401.83001,379.106271 400.200211,340.620063 400.200211,332.649191 L400.201018,332.360331 C400.242487,324.852437 401.884049,310.088775 405.668003,280.600905 C405.819048,279.424313 405.819048,279.424313 405.970209,278.2484 C409.937702,247.392586 411.028131,238.511773 411.524267,231.441727 L411.556487,230.972852 C411.577414,230.661762 411.597267,230.353364 411.616246,230.045887 C412.237454,224.861721 412.550736,219.620021 412.550736,214.339161 C412.550736,142.286205 354.212276,83.8756261 282.247995,83.8756261 Z" id="Combined-Shape-Copy-8" fill="#000000" fill-rule="nonzero"></path>
                    <ellipse id="Oval-Copy-29" fill="#FFFFFF" cx="234.706973" cy="198.942798" rx="33.9920443" ry="30.7927262"></ellipse>
                    <path d="M234.706973,168.150071 C253.48026,168.150071 268.699017,181.936445 268.699017,198.942798 C268.699017,215.949151 253.48026,229.735524 234.706973,229.735524 C215.933685,229.735524 200.714928,215.949151 200.714928,198.942798 C200.714928,181.936445 215.933685,168.150071 234.706973,168.150071 Z M234.706973,169.771125 C216.793516,169.771125 202.333692,182.869996 202.333692,198.942798 C202.333692,215.015599 216.793516,228.11447 234.706973,228.11447 C252.620429,228.11447 267.080253,215.015599 267.080253,198.942798 C267.080253,182.869996 252.620429,169.771125 234.706973,169.771125 Z" id="Oval-Copy-29" fill="#000000" fill-rule="nonzero"></path>
                    <ellipse id="Oval-Copy-30" fill="#000000" cx="220.948288" cy="198.942798" rx="10.5213471" ry="11.3446886"></ellipse>
                    <ellipse id="Oval-Copy-31" fill="#FFFFFF" cx="224.185626" cy="201.373802" rx="3.75762395" ry="4.05167449"></ellipse>
                    <ellipse id="Oval-Copy-32" fill="#FFFFFF" cx="315.640412" cy="198.942798" rx="33.9920443" ry="30.7927262"></ellipse>
                    <path d="M315.640412,168.150071 C334.413699,168.150071 349.632456,181.936445 349.632456,198.942798 C349.632456,215.949151 334.413699,229.735524 315.640412,229.735524 C296.867124,229.735524 281.648367,215.949151 281.648367,198.942798 C281.648367,181.936445 296.867124,168.150071 315.640412,168.150071 Z M315.640412,169.771125 C297.726955,169.771125 283.267131,182.869996 283.267131,198.942798 C283.267131,215.015599 297.726955,228.11447 315.640412,228.11447 C333.553868,228.11447 348.013692,215.015599 348.013692,198.942798 C348.013692,182.869996 333.553868,169.771125 315.640412,169.771125 Z" id="Oval-Copy-32" fill="#000000" fill-rule="nonzero"></path>
                    <ellipse id="Oval-Copy-33" fill="#000000" cx="300.263058" cy="197.322128" rx="10.5213471" ry="11.3446886"></ellipse>
                    <ellipse id="Oval-Copy-34" fill="#FFFFFF" cx="303.500396" cy="199.753133" rx="3.75762395" ry="4.05167449"></ellipse>
                    <path d="M157.536583,292.699306 L157.682431,292.707864 C158.124779,292.772341 158.431178,293.183712 158.366791,293.626686 C153.88135,324.486185 152.386451,345.311868 153.871324,356.036453 C153.932715,356.479853 153.623544,356.889137 153.18077,356.950615 C152.737996,357.012093 152.32929,356.702483 152.267899,356.259083 C150.755281,345.334113 152.257874,324.401243 156.764908,293.393192 C156.829294,292.950218 157.240083,292.643386 157.682431,292.707864 L157.536583,292.699306 Z" id="Path-89-Copy" fill="#FFFFFF" fill-rule="nonzero"></path>
                    <rect id="Rectangle-Copy-6" fill="#FFFFFF" x="258.987004" y="245.942222" width="16.2819036" height="32.413396" rx="8.1"></rect>
                    <path d="M267.175088,245.942222 C271.645181,245.942222 275.268908,249.571075 275.268908,254.047491 L275.268908,270.250348 C275.268908,274.726765 271.645181,278.355618 267.175088,278.355618 L267.080824,278.355618 C262.610731,278.355618 258.987004,274.726765 258.987004,270.250348 L258.987004,254.047491 C258.987004,249.571075 262.610731,245.942222 267.080824,245.942222 L267.175088,245.942222 Z M267.175088,247.563276 L267.080824,247.563276 C263.50475,247.563276 260.605768,250.466358 260.605768,254.047491 L260.605768,270.250348 C260.605768,273.831481 263.50475,276.734564 267.080824,276.734564 L267.175088,276.734564 C270.751163,276.734564 273.650144,273.831481 273.650144,270.250348 L273.650144,254.047491 C273.650144,250.466358 270.751163,247.563276 267.175088,247.563276 Z" id="Rectangle-Copy-6" fill="#000000" fill-rule="nonzero"></path>
                    <rect id="Rectangle-Copy-7" fill="#FFFFFF" x="273.459808" y="245.942222" width="16.2819036" height="32.413396" rx="8.1"></rect>
                    <path d="M281.647891,245.942222 C286.117985,245.942222 289.741711,249.571075 289.741711,254.047491 L289.741711,270.250348 C289.741711,274.726765 286.117985,278.355618 281.647891,278.355618 L281.553628,278.355618 C277.083534,278.355618 273.459808,274.726765 273.459808,270.250348 L273.459808,254.047491 C273.459808,249.571075 277.083534,245.942222 281.553628,245.942222 L281.647891,245.942222 Z M281.647891,247.563276 L281.553628,247.563276 C277.977553,247.563276 275.078572,250.466358 275.078572,254.047491 L275.078572,270.250348 C275.078572,273.831481 277.977553,276.734564 281.553628,276.734564 L281.647891,276.734564 C285.223966,276.734564 288.122947,273.831481 288.122947,270.250348 L288.122947,254.047491 C288.122947,250.466358 285.223966,247.563276 281.647891,247.563276 Z" id="Rectangle-Copy-7" fill="#000000" fill-rule="nonzero"></path>
                    <path d="M264.804195,234.764963 C251.787855,240.091762 246.444273,250.751205 253.696555,257.341973 C260.948836,263.93274 270.031273,253.337616 276.792361,253.337616 C283.553449,253.337616 287.933434,259.676954 297.536306,257.341973 C307.139179,255.006991 302.752381,237.889317 286.23692,234.764963 C269.721458,231.64061 277.820536,229.438165 264.804195,234.764963 Z" id="Path-92-Copy" fill="#FFC396"></path>
                    <path d="M264.804195,234.764963 C277.820536,229.438165 269.721458,231.64061 286.23692,234.764963 C302.752381,237.889317 307.139179,255.006991 297.536306,257.341973 C287.933434,259.676954 283.553449,253.337616 276.792361,253.337616 C274.301434,253.337616 271.49542,254.775735 268.581926,256.262721 L267.746754,256.687703 C262.999571,259.089872 258.022477,261.273308 253.696555,257.341973 C246.444273,250.751205 251.787855,240.091762 264.804195,234.764963 Z M265.416561,236.265551 C253.293069,241.22696 248.663891,250.579302 254.78441,256.141541 C257.103798,258.249368 259.688917,258.369211 263.408584,256.909449 C264.561522,256.456985 265.63571,255.945571 267.539828,254.975059 C272.555514,252.41861 274.29187,251.716562 276.792361,251.716562 C278.91139,251.716562 280.811923,252.212098 283.296938,253.244034 C283.605506,253.372171 283.925219,253.508963 284.308609,253.676085 C284.53387,253.774277 285.338665,254.1279 285.304751,254.113033 C290.188544,256.253966 292.928336,256.794265 297.154351,255.766691 C300.676608,254.910238 301.907541,251.328238 300.175798,246.945974 C298.175324,241.883673 292.964404,237.687378 285.936433,236.357844 C281.352016,235.490576 276.17392,233.968502 274.475484,233.407254 L274.205928,233.316156 C273.938295,233.223066 273.838339,233.177616 273.944938,233.195223 C273.820685,233.174699 273.757324,233.141081 273.711501,233.110187 L273.679745,233.087775 L273.665063,233.077416 L273.635552,233.059318 L273.583295,233.041503 C273.312801,232.993388 272.396941,233.408905 265.416561,236.265551 Z" id="Path-92-Copy" fill="#000000" fill-rule="nonzero"></path>
                    <ellipse id="Oval-Copy-35" fill="#000000" cx="274.364358" cy="232.976863" rx="13.9794122" ry="8.10334899"></ellipse>
                    <path d="M195.274063,527.609384 C176.675821,545.084188 159.720106,556.111396 164.217242,563.812861 C168.714378,571.514326 183.075062,553.624364 181.172664,556.366882 C179.270266,559.1094 167.50224,573.722942 179.379805,573.722942 C191.257369,573.722942 206.107185,548.822597 208.717914,548.822597 C211.328643,548.822597 213.872305,510.134579 195.274063,527.609384 Z" id="Path-93" fill="#FFC396"></path>
                    <path d="M195.274063,527.609384 C213.872305,510.134579 211.328643,548.822597 208.717914,548.822597 C206.107185,548.822597 191.257369,573.722942 179.379805,573.722942 C172.393002,573.722942 173.588064,568.666353 176.144064,563.943887 L176.45688,563.37914 C178.208495,560.285646 180.434086,557.431624 181.172664,556.366882 C183.075062,553.624364 168.714378,571.514326 164.217242,563.812861 C159.720106,556.111396 176.675821,545.084188 195.274063,527.609384 Z M197.489305,529.973717 C195.567744,531.779205 191.493022,535.411648 187.202091,539.227163 L186.027932,540.271062 L185.528697,540.714862 L184.531818,541.601098 C179.559402,546.022079 174.833292,550.233454 173.353663,551.688989 C167.674888,557.275289 166.011024,560.462058 167.012015,562.176282 C167.349663,562.754513 168.136053,562.720751 170.433513,561.314109 C171.58731,560.607685 172.855014,559.641914 174.195987,558.471688 C175.480371,557.350845 176.608741,556.25357 177.988793,554.836367 C178.307922,554.50803 178.46418,554.347247 178.571977,554.237165 C178.785317,554.019305 178.92183,553.883575 179.050814,553.765192 C179.190092,553.632581 179.388968,553.468351 179.643356,553.313641 C180.023781,552.958346 180.023781,552.958346 182.474949,553.041255 C184.232358,554.279102 184.232358,554.279102 184.563699,555.732507 C184.563029,556.611355 184.563029,556.611355 184.453445,556.994532 C184.336323,557.399441 184.229676,557.598668 184.040118,557.902478 C183.979357,557.999861 183.912431,558.100032 183.831616,558.216535 C183.63311,558.502704 182.57422,559.953162 182.423594,560.16221 C181.704352,561.160419 181.086466,562.0546 180.50023,562.961576 C179.738241,564.140461 179.093471,565.246663 178.583581,566.270977 C177.657368,568.131638 177.279493,569.557336 177.39283,570.180373 L177.480018,570.220509 C177.774604,570.350184 178.289851,570.452239 179.042605,570.475727 L179.379805,570.480834 C180.894024,570.480834 182.734785,569.824532 184.848342,568.496254 C187.915183,566.568879 191.276899,563.432236 195.103758,559.119288 C196.301692,557.769192 197.497885,556.360702 198.92599,554.633526 C199.356386,554.112997 201.634734,551.334901 202.216784,550.63628 C204.334271,548.09471 205.475643,546.78294 206.515265,546.140174 L206.593232,546.092121 L206.608184,546.036616 C206.782702,545.317499 206.941827,544.347557 207.061825,543.233174 L207.110788,542.747048 C207.435636,539.288284 207.335153,535.381384 206.764275,532.244166 C206.17247,528.991942 205.144565,526.954511 204.140168,526.451646 C203.107312,525.934534 200.967455,526.705667 197.489305,529.973717 Z" id="Path-93" fill="#000000" fill-rule="nonzero"></path>
                    <path d="M383.039641,527.609384 C364.441399,545.084188 347.485684,556.111396 351.98282,563.812861 C356.479956,571.514326 370.84064,553.624364 368.938242,556.366882 C367.035844,559.1094 355.267818,573.722942 367.145383,573.722942 C379.022947,573.722942 393.872763,548.822597 396.483492,548.822597 C399.094221,548.822597 401.637883,510.134579 383.039641,527.609384 Z" id="Path-93-Copy" fill="#FFC396" transform="translate(374.7738, 548.3998) scale(-1, 1) translate(-374.7738, -548.3998)"></path>
                    <path d="M383.039641,527.609384 C401.637883,510.134579 399.094221,548.822597 396.483492,548.822597 C393.872763,548.822597 379.022947,573.722942 367.145383,573.722942 C360.15858,573.722942 361.353643,568.666353 363.909642,563.943887 L364.222458,563.37914 C365.974073,560.285646 368.199664,557.431624 368.938242,556.366882 C370.84064,553.624364 356.479956,571.514326 351.98282,563.812861 C347.485684,556.111396 364.441399,545.084188 383.039641,527.609384 Z M385.254883,529.973717 C383.333322,531.779205 379.2586,535.411648 374.967669,539.227163 L373.79351,540.271062 L373.294275,540.714862 L372.297397,541.601098 C367.324981,546.022079 362.59887,550.233454 361.119241,551.688989 C355.440466,557.275289 353.776603,560.462058 354.777593,562.176282 C355.115242,562.754513 355.901631,562.720751 358.199091,561.314109 C359.352889,560.607685 360.620592,559.641914 361.961566,558.471688 C363.24595,557.350845 364.374319,556.25357 365.754372,554.836367 C366.0735,554.50803 366.229758,554.347247 366.337555,554.237165 C366.550895,554.019305 366.687408,553.883575 366.816392,553.765192 C366.95567,553.632581 367.154546,553.468351 367.408934,553.313641 C367.789359,552.958346 367.789359,552.958346 370.240527,553.041255 C371.997936,554.279102 371.997936,554.279102 372.329277,555.732507 C372.328607,556.611355 372.328607,556.611355 372.219023,556.994532 C372.101901,557.399441 371.995255,557.598668 371.805696,557.902478 C371.744936,557.999861 371.67801,558.100032 371.597195,558.216535 C371.398689,558.502704 370.339798,559.953162 370.189172,560.16221 C369.46993,561.160419 368.852044,562.0546 368.265808,562.961576 C367.50382,564.140461 366.85905,565.246663 366.349159,566.270977 C365.422947,568.131638 365.045071,569.557336 365.158408,570.180373 L365.245596,570.220509 C365.540182,570.350184 366.055429,570.452239 366.808184,570.475727 L367.145383,570.480834 C368.659602,570.480834 370.500363,569.824532 372.613921,568.496254 C375.680761,566.568879 379.042477,563.432236 382.869336,559.119288 C384.067271,557.769192 385.263463,556.360702 386.691568,554.633526 C387.121964,554.112997 389.400312,551.334901 389.982362,550.63628 C392.099849,548.09471 393.241221,546.78294 394.280843,546.140174 L394.35881,546.092121 L394.373762,546.036616 C394.54828,545.317499 394.707405,544.347557 394.827403,543.233174 L394.876367,542.747048 C395.201215,539.288284 395.100731,535.381384 394.529854,532.244166 C393.938048,528.991942 392.910143,526.954511 391.905746,526.451646 C390.872891,525.934534 388.733033,526.705667 385.254883,529.973717 Z" id="Path-93-Copy" fill="#000000" fill-rule="nonzero" transform="translate(374.7738, 548.3998) scale(-1, 1) translate(-374.7738, -548.3998)"></path>
                    <path d="M331.294012,314.59809 C304.455459,354.611091 288.106786,376.564333 282.247995,380.457815 C273.459808,386.298038 280.883765,388.348733 280.883765,388.348733 C280.883765,388.348733 296.203536,373.072715 326.843076,342.520681 L349.632456,305.536277 L331.294012,314.59809 Z" id="Path-96" fill="#387880" opacity="0.260300409"></path>
                    <path d="M195.426372,298.762596 C206.612976,306.226651 214.946852,311.518252 220.428002,314.637398 C244.288924,344.325462 266.927513,365.325283 288.34377,377.636859 C320.468155,396.104224 307.25802,404.767862 307.25802,404.767862 C307.25802,404.767862 285.647858,393.152527 242.427534,369.921857 C214.61913,334.268191 200.714928,316.441358 200.714928,316.441358 C200.714928,316.441358 178.646466,287.566514 195.426372,298.762596 Z" id="Path-106" fill="#387880" opacity="0.260300409"></path>
                    <path d="M403.346426,263.370347 C403.881103,262.652821 404.895392,262.505206 405.611905,263.04064 C406.328417,263.576073 406.475823,264.591798 405.941146,265.309323 C393.438701,282.08735 367.309577,299.585482 327.519545,317.91408 C326.707332,318.288212 325.746038,317.932146 325.372435,317.118784 C324.998831,316.305422 325.354395,315.342768 326.166607,314.968636 C365.50615,296.847548 391.244166,279.611332 403.346426,263.370347 Z" id="Path" fill="#000000" fill-rule="nonzero"></path>
                    <path d="M410.128804,257.28691 L397.998492,270.885009 C370.602551,290.087096 353.849012,303.662827 347.737875,311.612203 C338.57117,323.536268 300.263058,378.014593 279.727012,384.546183 C266.036314,388.900576 241.300432,366.198968 205.519366,316.441358 L195.054175,300.892944 L164.749495,275.923663 L149.747725,253.279525 L149.747725,300.892944 C149.901541,383.145313 150.821493,428.550784 152.507582,437.109354 C155.036716,449.94721 150.366919,486.960359 181.674975,522.712447 C202.547011,546.547173 226.041308,562.050889 252.157866,569.223597 C281.32923,575.809549 306.864096,574.732588 328.762464,565.992712 C350.660832,557.252837 367.146622,545.59315 378.219834,531.013652 C392.950305,511.379357 401.951084,492.671454 405.222172,474.889943 C408.49326,457.108432 408.49326,439.62123 405.222172,422.428338 L403.083399,376.207772 L403.083399,326.826305 L406.889815,285.059512 L410.128804,257.28691 Z" id="Path-99" fill="#1C2230"></path>
                    <path d="M148.128961,247.903864 L151.096624,252.383347 L165.962344,274.821531 L196.082675,299.641141 L196.264727,299.791141 L196.396493,299.98691 L206.832971,315.49406 C242.111628,364.553014 266.594316,387.022251 279.237004,383.001182 C285.987162,380.854261 295.477093,372.898901 306.971966,360.307069 C310.841224,356.068567 314.886952,351.361097 319.104431,346.220577 C324.500053,339.644065 329.877884,332.735968 335.757315,324.926817 C336.754,323.603005 338.846824,320.796601 340.931304,318.002219 L341.664858,317.018899 C343.853691,314.085039 345.887493,311.361789 346.455185,310.623334 C352.703684,302.495277 369.533558,288.85769 397.070263,269.55694 L396.913202,269.666579 L408.921586,256.206951 L412.330147,252.385948 L411.73664,257.474956 L408.50188,285.206843 L404.702163,326.826305 L404.700428,376.132735 L406.832628,422.243779 L407.112849,423.756291 C410.021086,440.078511 410.021137,456.662235 407.114501,473.499102 L406.814148,475.183632 C403.493617,493.233915 394.385201,512.165537 379.508272,531.994999 C368.243965,546.826102 351.517569,558.655959 329.361774,567.498576 C307.138606,576.368083 281.274491,577.458931 251.729722,570.786924 C225.293906,563.526534 201.530958,547.845537 180.4579,523.781255 C178.902025,522.004531 177.417037,520.205566 176.001265,518.384702 C165.979111,505.494919 159.60882,491.833685 155.961714,477.210585 C153.432893,467.071252 152.793607,461.285335 151.757129,445.535658 C151.485407,441.406736 151.270617,439.20574 150.91943,437.423116 C149.201316,428.701988 148.283229,383.388586 148.128961,300.892944 L148.128961,247.903864 Z M151.366486,258.652418 L151.366486,300.889908 C151.519853,382.90204 152.44167,428.399579 154.095735,436.795593 C154.483078,438.761745 154.706683,441.053073 154.987649,445.322457 C156.011386,460.878525 156.636563,466.536749 159.102755,476.424969 C162.644455,490.625446 168.822794,503.875032 178.555764,516.392887 C179.932828,518.163969 181.377682,519.914314 182.892049,521.643639 C203.563064,545.248808 226.788711,560.575245 252.513878,567.642234 C281.383969,574.160167 306.589587,573.097092 328.163154,564.486848 C349.804095,555.849715 366.049279,544.360198 376.925633,530.039939 C391.515408,510.593177 400.408552,492.108993 403.630197,474.596254 C406.865264,457.010548 406.865264,439.725757 403.632013,422.731736 L403.605144,422.503375 L401.464635,376.207772 L401.471335,326.678974 L405.28198,284.871467 L407.926193,262.188117 L399.205711,271.964969 L398.926721,272.213078 C371.671545,291.316501 354.994341,304.830377 349.020566,312.601072 C348.089874,313.811718 343.083711,320.539085 340.059072,324.586922 L339.48236,325.358334 C339.026774,325.967357 338.637447,326.486771 338.342421,326.878629 C332.438042,334.720916 327.034009,341.66267 321.605945,348.278725 C317.35433,353.460852 313.272091,358.210804 309.361487,362.494599 C297.491379,375.497475 287.689143,383.714639 280.21702,386.091184 C265.478313,390.778902 240.489236,367.844922 204.177048,317.347392 L193.844655,301.995799 L163.720996,277.175465 L163.534273,277.021617 L163.400596,276.819841 L151.366486,258.652418 Z" id="Path-99" fill="#000000" fill-rule="nonzero"></path>
                    <path d="M150.326489,293.509939 C150.326489,328.083551 159.184518,403.032642 159.184518,419.296615 C159.184518,435.560588 173.197559,452.489646 173.197559,467.075674 C173.197559,481.661702 169.944301,502.585938 174.816228,506.999164 C178.064179,509.941314 180.019068,514.692538 180.680893,521.252836 C172.783879,512.236562 166.695587,502.221511 162.416015,491.207682 C158.136443,480.193853 154.833632,463.348253 152.507582,440.67088 L150.326489,407.381387 L150.326489,333.176457 C150.326489,283.683037 150.326489,270.460864 150.326489,293.509939 Z" id="Path-104" fill="#FFFFFF" opacity="0.063406808"></path>
                    <path d="M407.140709,271.211502 C403.220068,275.645044 398.259566,280.261048 392.259204,285.059512 C386.258842,289.857976 375.068546,298.157698 358.688315,309.958679 C352.23929,322.46105 343.702552,334.616073 333.078101,346.423749 C322.45365,358.231425 306.392143,373.414106 284.893579,391.971794 C281.590036,388.18929 279.938265,386.298038 279.938265,386.298038 C279.938265,386.298038 298.90229,367.137891 336.830342,328.817596 L349.632456,305.536277 L392.259204,274.628019 L410.128804,257.28691 L407.140709,271.211502 Z" id="Path-101" fill="#FFFFFF" opacity="0.063406808"></path>
                    <path d="M159.184518,271.211502 C183.08493,315.87785 206.004507,347.971501 227.94325,367.492457 C249.881992,387.013412 290.445061,411.406219 349.632456,440.67088 L260.384946,380.457815 L191.002916,300.892944 L159.184518,271.211502 Z" id="Path-95" fill="#FFFFFF" opacity="0.063406808"></path>
                    <path d="M164.749495,274.628019 C188.122603,312.124863 211.441762,341.033188 234.706973,361.352994 C257.972184,381.6728 296.649113,408.112095 350.737759,440.67088 C303.591596,404.494502 270.157736,377.441958 250.436178,359.513249 C230.71462,341.58454 214.178818,322.671869 200.828773,302.775237 L164.749495,274.628019 Z" id="Path-97" fill="#FF3334"></path>
                    <path d="M406.946441,281.920829 C399.480515,314.333237 396.122708,337.184768 396.873022,350.475424 C397.623335,363.766079 397.998492,384.732335 397.998492,413.374192 L387.753795,410.68835 L396.873022,418.356517 L399.967179,422.178394 L396.873022,448.525946 L396.873022,500.21143 C404.738148,484.766528 408.095954,468.60289 406.946441,451.720516 C405.796929,434.838141 405.029377,414.620012 404.643786,391.066129 L401.818975,332.649191 L406.946441,281.920829 Z" id="Path-103" fill="#FFFFFF" opacity="0.063406808"></path>
                    <path d="M194.825896,449.336281 C210.763269,453.300848 234.404105,466.532605 244.70325,466.532605 C255.002394,466.532605 257.047363,466.532605 265.550539,466.532605 C274.053714,466.532605 279.388531,475.203461 284.862075,470.868033 C290.335618,466.532605 295.002417,469.566507 300.263058,463.111975 C305.523699,456.657443 343.38111,467.755851 351.331666,456.657443 C356.632036,449.258504 360.188567,447.498075 362.001258,451.376157 L353.006987,448.525946 C236.928011,446.423126 184.20098,446.693237 194.825896,449.336281 Z" id="Path-105" fill="#FFFFFF" opacity="0.063406808"></path>
                    <path d="M342.760465,309.958679 C335.838995,323.143491 328.408225,334.629351 320.468155,344.416259 C312.528085,354.203167 299.788032,367.579808 282.247995,384.546183 C302.61914,368.957777 317.484168,356.250299 326.843076,346.423749 C336.201985,336.5972 346.817065,321.420264 358.688315,300.892944 L342.760465,309.958679 Z" id="Path-98" fill="#FF3334"></path>
                    <path d="M152.507582,430.404409 C210.120932,438.566091 253.271275,442.646932 281.958612,442.646932 C310.645949,442.646932 352.308559,438.566091 406.946441,430.404409 L406.946441,440.67088 C352.592998,451.35727 311.026849,456.862752 282.247995,457.187328 C253.46914,457.511903 210.222336,452.00642 152.507582,440.67088 L152.507582,430.404409 Z" id="Path-100" fill="#FF3334"></path>
                    <path d="M408.565205,428.523612 L408.565205,442.004617 L407.258302,442.261566 C352.816385,452.965351 311.16312,458.482372 282.266225,458.808279 C253.352699,459.134373 210.010412,453.616735 152.196031,442.261627 L150.888818,442.004882 L150.888818,440.67088 L150.888818,428.537897 L152.73432,428.799336 C210.278778,436.951258 253.363339,441.025878 281.958612,441.025878 L282.98527,441.024146 C311.542384,440.928302 352.791639,436.85494 406.707618,428.801095 L408.565205,428.523612 Z M154.126346,432.270422 L154.126346,439.334615 L154.713293,439.451077 C210.751249,450.393191 252.953729,455.765852 281.280195,455.57492 L282.229765,455.566377 C310.890578,455.243132 352.369612,449.749188 406.634581,439.080193 L405.326143,439.334615 L405.326143,432.284832 L405.236846,432.297862 C352.130885,440.180823 311.390801,444.171237 282.992084,444.266248 L280.983052,444.266438 C252.206237,444.175626 209.314971,440.08911 152.280845,432.009483 L154.126346,432.270422 Z" id="Path-100" fill="#2A303D" fill-rule="nonzero"></path>
                    <path d="M148.128961,247.903864 L151.096624,252.383347 L152.730719,254.8499 C161.504712,268.093638 172.19456,279.958734 184.450281,290.05673 L196.082675,299.641141 C196.77305,300.20997 196.872234,301.231547 196.304209,301.922898 C195.736185,302.61425 194.71605,302.713574 194.025675,302.144746 L182.393282,292.560335 C170.783064,282.994195 160.550288,271.873602 151.980831,259.51586 L151.366489,258.619997 L151.366486,300.889908 C151.518319,382.081919 152.423311,427.485977 154.046333,436.532583 L154.095735,436.795593 C154.483078,438.761745 154.706683,441.053073 154.987649,445.322457 C156.011386,460.878525 156.636563,466.536749 159.102755,476.424969 C162.644455,490.625446 168.822794,503.875032 178.555764,516.392887 C179.932828,518.163969 181.377682,519.914314 182.892049,521.643639 C203.563064,545.248808 226.788711,560.575245 252.513878,567.642234 C281.383969,574.160167 306.589587,573.097092 328.163154,564.486848 C349.804095,555.849715 366.049279,544.360198 376.925633,530.039939 C391.515408,510.593177 400.408552,492.108993 403.630197,474.596254 C406.865264,457.010548 406.865264,439.725757 403.632013,422.731736 L403.605144,422.503375 L401.464635,376.207772 L401.471335,326.678974 L405.28198,284.871467 L407.926193,262.188117 L399.205711,271.964969 L399.011926,272.149074 C372.884398,293.155502 354.632031,305.578929 340.9936,311.367578 C340.170463,311.716948 339.220358,311.331939 338.871482,310.507638 C338.522606,309.683336 338.907071,308.731887 339.730208,308.382518 C353.018541,302.742463 371.076193,290.451568 396.985058,269.620944 L396.882625,269.700802 L408.921586,256.206951 L412.330147,252.385948 L411.73664,257.474956 L408.50188,285.206843 L404.702163,326.826305 L404.700428,376.132735 L406.832628,422.243779 L407.112849,423.756291 C410.021086,440.078511 410.021137,456.662235 407.114501,473.499102 L406.814148,475.183632 C403.493617,493.233915 394.385201,512.165537 379.508272,531.994999 C368.243965,546.826102 351.517569,558.655959 329.361774,567.498576 C307.138606,576.368083 281.274491,577.458931 251.729722,570.786924 C225.293906,563.526534 201.530958,547.845537 180.4579,523.781255 C178.902025,522.004531 177.417037,520.205566 176.001265,518.384702 C165.979111,505.494919 159.60882,491.833685 155.961714,477.210585 C153.432893,467.071252 152.793607,461.285335 151.757129,445.535658 C151.485407,441.406736 151.270617,439.20574 150.91943,437.423116 C149.201316,428.701988 148.283229,383.388586 148.128961,300.892944 L148.128961,247.903864 Z" id="Path" fill="#000000" fill-rule="nonzero"></path>
                    <path d="M269.274992,465.835911 C264.721977,472.639207 261.832204,477.91447 260.605673,481.661702 C259.484622,485.086677 258.917391,489.788167 258.90398,495.766172 C258.900304,497.555571 260.347919,499.009145 262.137317,499.01282 C262.480868,499.013526 262.822345,498.959586 263.148907,498.852885 L271.679416,496.068324 C273.379871,495.511174 274.307454,493.681405 273.751003,491.980721 C273.712397,491.862729 273.667041,491.747053 273.615457,491.634128 C271.836982,487.764955 271.008587,484.440813 271.130272,481.661702 C271.264177,478.603512 272.623646,474.490408 275.20868,469.32239 C275.926069,467.882721 275.478961,466.13464 274.156966,465.218328 L273.813678,464.979426 C272.346457,463.958349 270.329292,464.32002 269.308215,465.787242 C269.296995,465.803365 269.285921,465.819589 269.274992,465.835911 Z" id="Path-102" fill="#FF3334"></path>
                    <path d="M267.97491,464.86594 C269.503994,462.657676 272.531583,462.109965 274.73222,463.644604 L275.07597,463.883831 C277.062603,465.261599 277.733813,467.893006 276.651738,470.056962 C274.162475,475.035032 272.86938,478.948741 272.747482,481.732713 C272.638499,484.221721 273.40697,487.304509 275.072618,490.928267 C275.157681,491.103328 275.229621,491.284321 275.291428,491.473359 C276.126085,494.026155 274.735936,496.773108 272.185069,497.608267 L263.646547,500.395444 C263.155807,500.555611 262.642718,500.636428 262.12659,500.634863 C259.44455,500.626589 257.277005,498.442602 257.285207,495.758024 C257.299269,489.626275 257.885696,484.76717 259.067435,481.156786 C260.35075,477.236071 263.303627,471.846125 267.934876,464.926577 L267.923849,464.941964 L267.93977,464.917905 C267.945824,464.908408 267.95077,464.900912 267.956122,464.893043 L267.97491,464.86594 Z M270.624211,466.731643 C266.14418,473.425257 263.314476,478.590373 262.143911,482.166619 C261.084102,485.404491 260.536074,489.945412 260.522739,495.766715 C260.520003,496.661998 261.242522,497.389997 262.136537,497.392755 C262.308601,497.393277 262.479675,497.366331 262.643255,497.312942 L271.180355,494.52623 C272.029644,494.248171 272.492796,493.332976 272.214626,492.482193 C272.196875,492.427903 272.179075,492.383121 272.146626,492.315493 C270.26797,488.229317 269.378603,484.661541 269.513062,481.590691 C269.658823,478.261732 271.081752,473.955061 273.756877,468.605302 C274.117514,467.884092 273.893988,467.00778 273.230562,466.547679 L272.883371,466.306059 C272.151568,465.795728 271.144685,465.977879 270.635399,466.713376 L270.641574,466.701709 L270.637977,466.707112 L270.624211,466.731643 Z" id="Path-102" fill="#2A303D" fill-rule="nonzero"></path>
                    <path d="M306.504374,451.249883 C301.951359,458.053178 299.061586,463.328442 297.835055,467.075674 C296.714004,470.500649 296.146773,475.202139 296.133362,481.180144 C296.129685,482.969543 297.5773,484.423116 299.366699,484.426792 C299.71025,484.427497 300.051727,484.373558 300.378289,484.266857 L308.908798,481.482296 C310.609253,480.925145 311.536836,479.095377 310.980385,477.394693 C310.941779,477.276701 310.896423,477.161024 310.844839,477.0481 C309.066364,473.178926 308.237969,469.854784 308.359654,467.075674 C308.493559,464.017484 309.853028,459.90438 312.438062,454.736362 C313.155451,453.296693 312.708343,451.548612 311.386347,450.6323 L311.04306,450.393398 C309.575839,449.372321 307.558674,449.733992 306.537597,451.201214 C306.526376,451.217336 306.515303,451.233561 306.504374,451.249883 Z" id="Path-102-Copy" fill="#FF3334" transform="translate(304.9298, 467.0757) scale(-1, 1) translate(-304.9298, -467.0757)"></path>
                    <path d="M306.15365,450.279912 C307.682733,448.071648 310.710323,447.523937 312.91096,449.058576 L313.25471,449.297803 C315.241343,450.675571 315.912552,453.306978 314.830478,455.470934 C312.341214,460.449003 311.04812,464.362713 310.926222,467.146685 C310.817239,469.635693 311.585709,472.718481 313.251357,476.342239 C313.33642,476.5173 313.40836,476.698293 313.470168,476.887331 C314.304825,479.440127 312.914675,482.18708 310.363808,483.022239 L301.825286,485.809416 C301.334546,485.969583 300.821457,486.0504 300.30533,486.048835 C297.623289,486.040561 295.455744,483.856574 295.463947,481.171996 C295.478008,475.040247 296.064436,470.181142 297.246175,466.570758 C298.52949,462.650042 301.482366,457.260097 306.113616,450.340549 L306.102589,450.355936 L306.11851,450.331876 C306.124563,450.32238 306.129509,450.314884 306.134862,450.307015 L306.15365,450.279912 Z M308.802951,452.145615 C304.322919,458.839228 301.493215,464.004345 300.322651,467.58059 C299.262841,470.818463 298.714814,475.359383 298.701478,481.180686 C298.698743,482.07597 299.421261,482.803969 300.315276,482.806727 C300.487341,482.807249 300.658414,482.780303 300.821994,482.726914 L309.359095,479.940201 C310.208383,479.662142 310.671535,478.746948 310.393365,477.896165 C310.375614,477.841875 310.357815,477.797093 310.325366,477.729465 C308.44671,473.643289 307.557342,470.075513 307.691801,467.004663 C307.837562,463.675704 309.260492,459.369033 311.935617,454.019274 C312.296254,453.298064 312.072727,452.421752 311.409302,451.961651 L311.06211,451.72003 C310.330307,451.209699 309.323424,451.391851 308.814139,452.127348 L308.820314,452.11568 L308.816716,452.121084 L308.802951,452.145615 Z" id="Path-102-Copy" fill="#2A303D" fill-rule="nonzero" transform="translate(305.4045, 467.1184) scale(-1, 1) translate(-305.4045, -467.1184)"></path>
                    <ellipse id="Oval" fill="#FF3334" cx="274.364358" cy="457.43963" rx="13.7586846" ry="13.7756933"></ellipse>
                    <path d="M274.364358,442.042883 C282.857024,442.042883 289.741806,448.936177 289.741806,457.43963 C289.741806,465.943084 282.857024,472.836378 274.364358,472.836378 C265.871692,472.836378 258.986909,465.943084 258.986909,457.43963 C258.986909,448.936177 265.871692,442.042883 274.364358,442.042883 Z M274.364358,445.284991 C267.6596,445.284991 262.224437,450.726873 262.224437,457.43963 C262.224437,464.152388 267.6596,469.59427 274.364358,469.59427 C281.069115,469.59427 286.504278,464.152388 286.504278,457.43963 C286.504278,450.726873 281.069115,445.284991 274.364358,445.284991 Z" id="Oval" fill="#2A303D" fill-rule="nonzero"></path>
                    <ellipse id="Oval-Copy-24" fill="#FF3334" cx="295.407052" cy="449.336281" rx="13.7586846" ry="13.7756933"></ellipse>
                    <path d="M295.407052,433.939534 C303.899718,433.939534 310.784501,440.832828 310.784501,449.336281 C310.784501,457.839735 303.899718,464.733029 295.407052,464.733029 C286.914386,464.733029 280.029603,457.839735 280.029603,449.336281 C280.029603,440.832828 286.914386,433.939534 295.407052,433.939534 Z M295.407052,437.181642 C288.702294,437.181642 283.267131,442.623524 283.267131,449.336281 C283.267131,456.049039 288.702294,461.490921 295.407052,461.490921 C302.11181,461.490921 307.546973,456.049039 307.546973,449.336281 C307.546973,442.623524 302.11181,437.181642 295.407052,437.181642 Z" id="Oval-Copy-24" fill="#2A303D" fill-rule="nonzero"></path>
                    <path d="M378.191893,150.048402 C395.420605,135.311196 401.579569,114.221861 396.668786,86.7803976 C393.672179,70.0353515 385.397659,42.6633752 388.556561,19.0806421 C388.950816,16.1373348 389.473021,13.3764475 390.123176,10.7979802 C390.918787,7.64264481 398.875128,21.6431302 407.018662,25.2556803 C414.92682,28.763815 423.03903,21.7354084 423.118012,28.7427618 C423.161039,32.5601113 418.496159,33.8835902 418.93648,39.0702173 C422.057886,75.8378672 432.243379,103.866322 421.139807,121.697788 C413.737426,133.585432 401.924963,144.960307 385.702418,155.822414" id="Path-34" fill="#EB202B"></path>
                    <path d="M389.368893,12.1342513 L389.44104,12.2799561 C391.229836,15.8674222 393.111682,18.5399148 395.086578,20.2974338 C393.060806,25.7850147 391.995623,30.4396408 391.891004,34.2609649 C391.108247,62.8522032 401.765522,76.5180307 404.76213,93.2630768 C409.225908,118.206678 404.54347,137.901926 390.714815,152.348821 C389.094373,153.512273 387.423206,154.670229 385.702418,155.822414 L378.191893,150.048402 C395.420605,135.311196 401.579569,114.221861 396.668786,86.7803976 C395.073621,77.8666168 384.171656,57.2992446 382.106104,44.5373814 C380.291398,33.3253561 387.079217,30.1097332 388.556561,19.0806421 C388.931182,16.2839126 389.196557,14.0309913 389.352684,12.3218783 L389.368893,12.1342513 Z M388.366166,9.98885283 C389.409723,7.16644671 389.745433,7.86755847 389.373297,12.0921881 L389.368893,12.1342513 L389.260306,11.9137278 C389.01975,11.4212575 388.780889,10.9121234 388.543723,10.3863256 Z" id="Combined-Shape" fill="#F1686F"></path>
                    <path d="M387.937797,0 L392.305989,6.95677818 C397.001162,14.4343055 401.641109,19.26817 406.111608,21.5110063 C410.39485,23.659896 415.593323,23.8435096 421.852321,21.9468552 L431.956161,18.8851041 L425.30378,27.093117 C421.872673,31.3265752 421.071565,37.1985419 423.09064,45.0063233 C431.731309,78.4198708 431.3011,109.332228 420.289728,127.015626 C412.609957,139.348737 401.629758,149.874469 387.39068,158.588814 L384.014156,153.056015 C397.423829,144.849268 407.670388,135.026811 414.795379,123.584634 C424.653454,107.75334 425.060718,78.4896978 416.822356,46.631877 C415.203342,40.3711323 415.092227,34.8163484 416.540915,30.0486647 L416.686101,29.5923659 L416.271018,29.6333421 C411.737302,30.018294 407.568866,29.3483629 403.802621,27.5943364 L403.211299,27.3083715 C399.28548,25.3388 395.487248,22.0398578 391.779135,17.4288098 L391.314673,16.841876 L391.261777,17.1270901 C389.860398,24.6671924 388.906098,30.2752614 388.40084,33.9349445 L388.342365,34.3647532 C386.764621,46.1433797 388.427099,53.933842 393.984662,67.9918089 C394.045625,68.1460162 394.66673,69.7145481 394.848945,70.1763393 C395.180386,71.0163215 395.450774,71.7076265 395.707439,72.3732178 C397.827532,77.8711231 399.084322,81.8988966 399.855546,86.2084968 C404.957839,114.72012 398.457906,136.976988 380.294638,152.513602 L376.089148,147.583202 C392.383303,133.645404 398.201299,113.723603 393.482026,87.3522984 C392.797828,83.5290034 391.651208,79.8543011 389.667113,74.7090735 C389.417333,74.0613348 389.15273,73.3848207 388.826966,72.5592279 C388.646483,72.1018232 388.026492,70.5361061 387.964231,70.3786159 C382.034356,55.3788791 380.16676,46.6272213 381.924788,33.5026864 C382.583953,28.5817075 384.069419,20.1177017 386.386128,8.06953508 L387.937797,0 Z" id="Path-34" fill="#000000" fill-rule="nonzero"></path>
                    <path d="M417.583671,185.440791 C427.802887,176.643552 431.450923,164.048483 428.527779,147.655586 C426.744048,137.652481 421.824787,121.300002 423.691686,107.214608 C424.486713,101.216287 428.077671,92.8220113 434.464561,82.031781 C436.067292,87.937105 438.376818,91.651979 441.39314,93.1764029 C444.409462,94.7008269 450.497682,95.2301043 459.657801,94.764235 C448.288109,97.6431102 443.2247,106.403557 444.467577,121.045575 C446.331892,143.008602 449.644346,157.872845 443.060974,168.520326 C438.672059,175.618647 431.665907,182.409254 422.042517,188.892148" id="Path-34" fill="#211F20" transform="translate(438.6207, 135.462) rotate(59) translate(-438.6207, -135.462)"></path>
                    <path d="M436.79354,77.488177 L437.995887,81.9369647 C439.463401,87.3668949 441.490204,90.6358019 443.911279,91.8608104 C446.525399,93.1834953 452.35473,93.6877031 461.180046,93.2324252 L461.758122,97.0605288 C451.403097,99.6939935 446.866369,107.553875 448.0248,121.330027 C448.235339,123.833774 448.471926,126.343225 448.779473,129.398699 C450.169693,143.210493 450.471828,146.275869 450.513745,149.76528 L450.517526,150.178429 C450.517973,150.247838 450.518332,150.317578 450.51861,150.387734 L450.518439,151.254945 C450.517075,151.629088 450.514301,152.022042 450.510899,152.444335 C450.451814,159.777664 449.216305,165.328422 446.306606,170.041209 C441.759077,177.406761 434.561439,184.39774 424.731211,191.037096 L422.558862,187.81161 C431.963524,181.459682 438.772117,174.846579 443.00216,167.995251 C445.486462,163.971472 446.572164,159.093751 446.625991,152.412946 C446.629257,152.007634 446.631894,151.63019 446.633135,151.270327 L446.633038,150.435147 C446.632741,150.367484 446.632363,150.300195 446.631899,150.233198 L446.628027,149.834059 C446.625523,149.635582 446.622128,149.43825 446.617678,149.239842 L446.607322,148.840931 C446.516378,145.761518 446.151257,142.080731 444.914026,129.788875 C444.604515,126.713894 444.366039,124.184402 444.153468,121.656487 C443.19953,110.312179 445.922593,102.087344 452.274724,97.2505208 L452.296695,97.2309729 L452.033124,97.2229825 C447.787628,97.0398143 444.621066,96.4725226 442.487549,95.4915914 L442.159257,95.3332658 C439.456702,93.9658352 437.328226,91.2807833 435.704212,87.3275223 L435.641412,87.1732338 L435.207631,87.9558243 C430.716985,96.100414 428.09819,102.604364 427.342782,107.40918 L427.268976,107.917477 C426.821455,111.28537 426.75498,114.954637 427.028667,118.958703 C427.38667,124.196336 428.245273,129.485044 429.74405,136.625424 C430.03003,137.987873 430.984697,142.418351 431.012878,142.550535 C431.48727,144.775684 431.806362,146.359968 432.061874,147.800733 C435.084887,164.846734 431.231187,178.153267 420.460909,187.445908 L417.925033,184.498478 C427.582947,176.165589 431.033456,164.251247 428.236695,148.481028 C427.990714,147.094002 427.679276,145.547719 427.21347,143.362846 C427.187205,143.239651 426.230629,138.800314 425.9421,137.425719 C424.409402,130.123735 423.525587,124.679725 423.152703,119.224384 C422.862292,114.975642 422.933405,111.050359 423.417888,107.404302 C424.258098,101.081152 427.940257,92.4660567 434.449211,81.4542842 L436.79354,77.488177 Z" id="Path-34" fill="#000000" fill-rule="nonzero" transform="translate(439.8416, 134.2626) rotate(59) translate(-439.8416, -134.2626)"></path>
                    <path d="M417.583671,185.440791 C427.802887,176.643552 431.450923,164.048483 428.527779,147.655586 C426.744048,137.652481 421.824787,121.300002 423.691686,107.214608 C424.486713,101.216287 428.077671,92.8220113 434.464561,82.031781 C436.067292,87.937105 438.376818,91.651979 441.39314,93.1764029 C444.409462,94.7008269 450.497682,95.2301043 459.657801,94.764235 C448.288109,97.6431102 443.2247,106.403557 444.467577,121.045575 C446.331892,143.008602 449.644346,157.872845 443.060974,168.520326 C438.672059,175.618647 431.665907,182.409254 422.042517,188.892148" id="Path-34" fill="#EB202B" transform="translate(438.6207, 135.462) rotate(59) translate(-438.6207, -135.462)"></path>
                    <path d="M434.493838,81.9806044 C435.285621,84.9087133 436.251048,87.2985139 437.390119,89.1500064 C432.188223,98.382255 429.230087,105.688288 428.515477,111.067928 C426.642594,125.167134 431.548478,141.531782 433.325139,151.542998 C435.971469,166.45468 433.19592,178.229052 424.998489,186.866113 C424.037626,187.562443 423.045956,188.255355 422.024815,188.944811 L417.571895,185.492752 C427.786636,176.681946 431.438228,164.073446 428.526671,147.667255 C426.750011,137.656038 421.844126,121.29139 423.717009,107.192184 C424.514584,101.187981 428.10686,92.7841211 434.493838,81.9806044 Z M459.657284,94.7108738 C456.54279,95.5025075 453.901561,96.7363011 451.733597,98.4122548 C449.333638,98.1251338 447.492369,97.6568122 446.208524,97.0073112 C444.852871,96.3214819 443.640438,95.1916623 442.571225,93.6178522 C445.861622,94.7635679 451.557182,95.127994 459.657284,94.7108738 Z" id="Combined-Shape" fill="#F1686F" transform="translate(438.6146, 135.4627) rotate(59) translate(-438.6146, -135.4627)"></path>
                    <path d="M438.323862,74.4981494 L440.327773,81.9127955 C441.708708,87.0223719 443.55017,89.9923552 445.577135,91.0179529 C447.925842,92.2063446 453.587013,92.6960074 462.19527,92.251927 L463.158731,98.6320997 C453.473481,101.095229 449.288011,108.346555 450.397092,121.535834 C450.606954,124.031525 450.842911,126.534297 451.149804,129.583268 C452.409291,142.096245 452.779226,145.82282 452.870252,149.021895 L452.880593,149.436853 L452.888073,149.849901 C452.892171,150.125535 452.894563,150.40261 452.895649,150.686557 L452.895389,151.564446 C452.893983,151.943348 452.891164,152.341473 452.887716,152.769426 C452.826879,160.320263 451.541434,166.095366 448.489936,171.037823 C443.83658,178.574783 436.509259,185.69172 426.537176,192.426885 L423.427812,187.811288 L422.957933,188.242106 L422.388049,188.743013 L418.16159,183.830628 C427.448716,175.817657 430.764827,164.367379 428.043484,149.02242 C427.800679,147.653308 427.491793,146.119692 427.028849,143.948244 C427.003223,143.828046 426.046011,139.385755 425.756632,138.007111 C424.212627,130.65126 423.320408,125.155482 422.942563,119.627571 C422.646578,115.297272 422.719237,111.286649 423.21604,107.547871 C424.084429,101.012657 427.826383,92.2576594 434.416647,81.1083281 L438.323862,74.4981494 Z M436.622537,90.3661327 L436.517655,90.5653016 C432.502399,98.0803646 430.212237,104.055456 429.63452,108.403163 C429.199321,111.678335 429.134392,115.262263 429.402504,119.18477 C429.755547,124.349834 430.605745,129.586775 432.093215,136.673287 C432.118009,136.791409 432.14786,136.932737 432.181722,137.092433 L432.294287,137.621779 C432.682198,139.441871 433.337388,142.482722 433.361195,142.594392 C433.83845,144.832967 434.160093,146.429917 434.418782,147.888595 C437.036422,162.6488 434.596168,174.767715 427.057958,183.969552 L426.748077,184.33863 L427.631794,183.677701 C434.185372,178.698309 439.14701,173.58051 442.53087,168.342859 L442.982527,167.627893 C447.214095,160.774097 447.256143,155.555326 444.707392,130.233562 C444.397227,127.152078 444.158121,124.615906 443.944872,122.079935 C443.089656,111.909638 445.137932,104.058738 450.038195,98.815784 L450.207564,98.6371102 L449.72676,98.5897433 C446.924302,98.2856289 444.695579,97.7542566 443.009993,96.9759462 L442.657098,96.8053785 C440.313726,95.6196862 438.392808,93.5948455 436.83894,90.7701798 L436.622537,90.3661327 Z" id="Path-34" fill="#000000" fill-rule="nonzero" transform="translate(440.6602, 133.4625) rotate(59) translate(-440.6602, -133.4625)"></path>
                    <path d="M185.539426,130.482589 C217.062252,131.911887 249.433923,132.626536 282.654439,132.626536 C316.475004,132.626536 350.322237,131.885837 384.196137,130.404439 C399.296985,129.74401 412.074003,141.450306 412.734404,156.551155 C412.751825,156.949505 412.760538,157.348187 412.760538,157.746917 L412.760538,157.746917 L412.760538,157.746917 L287.273659,161.263961 C284.194805,161.350252 281.114117,161.34872 278.03535,161.259366 L157.010871,157.746917 L157.010871,157.746917 C157.010871,142.673772 169.23007,130.454573 184.303216,130.454573 C184.715444,130.454573 185.12762,130.463913 185.539426,130.482589 Z" id="Rectangle" fill="#EB202B"></path>
                    <path d="M412.734492,156.552304 L412.754026,157.149468 L412.760538,157.746917 L287.263619,161.264242 C284.191455,161.350346 281.117466,161.348818 278.045389,161.259658 L157.010871,157.746917 C157.010871,142.672815 169.213584,130.452841 184.266392,130.452841 C184.677665,130.452841 185.088886,130.462163 185.499738,130.480789 C217.035081,131.911287 249.419981,132.626536 282.654439,132.626536 C316.488279,132.626536 350.348807,131.885255 384.236024,130.402695 C399.31646,129.742983 412.075658,141.450537 412.734492,156.552304 Z M384.518637,136.880731 C350.537331,138.367408 316.582577,139.110751 282.654439,139.110751 C249.323499,139.110751 216.840969,138.393346 185.206734,136.958363 C184.893525,136.944163 184.579943,136.937056 184.266392,136.937056 C175.085005,136.937056 167.29434,142.899867 164.545329,151.169392 L164.446394,151.474854 L278.232968,154.778163 C280.444863,154.842358 282.657792,154.859233 284.870239,154.828786 L287.082469,154.782564 L405.323872,151.467649 L405.253198,151.240367 C402.416712,142.557748 394.078935,136.462505 384.518637,136.880731 Z" id="Rectangle" fill="#000000" fill-rule="nonzero"></path>
                    <polygon id="Path-28" fill="#000000" opacity="0.254487537" points="161.18798 153.519783 163.690219 147.908969 282.736372 151.669406 406.066457 147.908969 409.553225 151.669406 408.002754 154.845007 239.296548 158.152085"></polygon>
                    <path d="M401.168422,141.864106 L287.273659,145.057263 C284.194805,145.143554 281.114117,145.142022 278.03535,145.052668 L168.638231,141.877708 C173.072014,138.764609 178.474214,136.937253 184.303216,136.937253 C184.715444,136.937253 185.12762,136.946592 185.539426,136.965268 C217.062252,138.394566 249.433923,139.109215 282.654439,139.109215 C316.475004,139.109215 350.322237,138.368516 384.196137,136.887118 C390.49472,136.611653 396.389018,138.487669 401.168422,141.864106 Z" id="Combined-Shape" fill="#FFFFFF" opacity="0.3203125"></path>
                    <path d="M412.734492,156.552304 L412.754026,157.149468 L412.760538,157.746917 L287.263619,161.264242 C284.191455,161.350346 281.117466,161.348818 278.045389,161.259658 L157.010871,157.746917 C157.010871,142.672815 169.213584,130.452841 184.266392,130.452841 C184.677665,130.452841 185.088886,130.462163 185.499738,130.480789 C217.035081,131.911287 249.419981,132.626536 282.654439,132.626536 C316.488279,132.626536 350.348807,131.885255 384.236024,130.402695 C399.31646,129.742983 412.075658,141.450537 412.734492,156.552304 Z M384.518637,136.880731 C350.537331,138.367408 316.582577,139.110751 282.654439,139.110751 C249.323499,139.110751 216.840969,138.393346 185.206734,136.958363 C184.893525,136.944163 184.579943,136.937056 184.266392,136.937056 C175.085005,136.937056 167.29434,142.899867 164.545329,151.169392 L164.446394,151.474854 L278.232968,154.778163 C280.444863,154.842358 282.657792,154.859233 284.870239,154.828786 L287.082469,154.782564 L405.323872,151.467649 L405.253198,151.240367 C402.416712,142.557748 394.078935,136.462505 384.518637,136.880731 Z" id="Rectangle" fill="#000000" fill-rule="nonzero"></path>
                </g>
            </g>
        </g>
    </g>
</svg>