<svg width="158" height="48" viewBox="0 0 158 48" fill="none" xmlns="http://www.w3.org/2000/svg">
<g clip-path="url(#clip0_502_1195)">
<path d="M113.43 33.2945C112.258 34.5608 110.84 35.194 109.177 35.194C107.515 35.194 106.064 34.5608 104.885 33.2945C103.792 32.1147 103.209 30.7017 103.129 29.0488H118.379C118.379 29.0488 118.266 28.0024 118.22 27.6491C118.18 27.3692 118.014 26.5161 118.014 26.5161C117.908 26.0229 117.769 25.5363 117.584 25.0631C117.133 23.9367 116.458 22.9169 115.603 22.0638C114.755 21.1973 113.748 20.5042 112.635 20.0176C111.542 19.5511 110.363 19.3111 109.177 19.3178C105.474 19.3178 102.142 21.5839 100.758 25.0431C100.307 26.1895 100.075 27.4159 100.082 28.6489C100.075 29.8753 100.301 31.0883 100.758 32.228C101.215 33.3544 101.891 34.3809 102.732 35.254C103.573 36.1204 104.573 36.8136 105.68 37.2868C106.786 37.7601 107.978 38 109.177 37.9933C110.363 37.9933 111.536 37.7467 112.622 37.2735C113.742 36.7803 114.755 36.0738 115.603 35.194C116.358 34.4342 116.974 33.5411 117.418 32.5546H114.013C113.834 32.8146 113.642 33.0612 113.43 33.2945ZM109.177 22.0971C110.847 22.0971 112.264 22.7303 113.43 23.9967C114.093 24.7098 114.589 25.5696 114.874 26.5094H103.427C103.712 25.5696 104.209 24.7098 104.878 23.9967C106.051 22.7303 107.488 22.0971 109.177 22.0971Z" fill="white"/>
<path d="M71.5575 33.2878C70.385 34.5542 68.9674 35.1873 67.3047 35.1873C65.6419 35.1873 64.2045 34.5542 63.0121 33.2878C61.8329 32.0214 61.2434 30.4751 61.2434 28.6422C61.2434 26.8093 61.8263 25.263 62.9988 23.9967C64.1713 22.7303 65.6022 22.0971 67.298 22.0971C68.9939 22.0971 70.3784 22.7303 71.5443 23.99C71.9351 23.0836 72.4452 22.2238 73.0679 21.4573C72.3723 20.8641 71.5906 20.3775 70.756 20.0176C69.6629 19.5511 68.4838 19.3111 67.298 19.3178C63.595 19.3178 60.263 21.5839 58.8785 25.0431C58.428 26.1895 58.2028 27.4159 58.2094 28.6489C58.2028 29.8753 58.428 31.0883 58.8851 32.228C59.3422 33.3544 60.0112 34.3809 60.8525 35.254C61.6938 36.1204 62.6941 36.8136 63.8004 37.2868C64.9066 37.7601 66.099 38 67.298 37.9933C68.4838 37.9933 69.6563 37.7467 70.7427 37.2735C71.5906 36.9003 72.3789 36.407 73.0811 35.8072C72.4717 35.0407 71.955 34.1942 71.5575 33.2945" fill="white"/>
<path d="M85.7933 33.2945C84.6208 34.5608 83.2032 35.194 81.5404 35.194C79.8777 35.194 78.4469 34.5608 77.2479 33.2945C76.1548 32.1147 75.5719 30.7017 75.4924 29.0488H90.7351C90.7351 29.0488 90.6225 28.0024 90.5761 27.6491C90.5363 27.3692 90.3707 26.5161 90.3707 26.5161C90.2648 26.0229 90.119 25.5363 89.9335 25.0631C89.4831 23.9367 88.814 22.9169 87.9595 22.0638C87.1115 21.1973 86.1046 20.5042 84.9917 20.0243C83.8987 19.5511 82.7196 19.3111 81.5338 19.3178C77.8308 19.3178 74.4987 21.5839 73.1142 25.0431C72.6638 26.1895 72.4319 27.4159 72.4386 28.6489C72.4319 29.8753 72.6572 31.0883 73.1142 32.228C73.5779 33.3544 74.247 34.3809 75.0883 35.254C75.9296 36.1204 76.9299 36.8136 78.0362 37.2868C79.1424 37.7601 80.3282 38 81.5338 37.9933C82.7196 37.9933 83.8921 37.7534 84.9785 37.2735C86.098 36.7803 87.1115 36.0738 87.9661 35.194C88.7213 34.4342 89.3373 33.5411 89.7812 32.5613H86.3762C86.1974 32.8212 86.0053 33.0678 85.7933 33.3011M81.5338 22.0971C83.2032 22.0971 84.6208 22.7303 85.7867 23.9967C86.4491 24.7098 86.9459 25.5696 87.2308 26.5094H75.7839C76.0687 25.5696 76.5655 24.7098 77.2346 23.9967C78.4071 22.7303 79.8446 22.0971 81.5338 22.0971Z" fill="white"/>
<path d="M99.8701 22.1105C99.9695 22.1304 100.082 22.1571 100.188 22.1838C100.559 21.6372 100.976 21.124 101.433 20.6508C101.712 20.3709 102.003 20.1043 102.308 19.851C102.023 19.7643 101.606 19.6377 101.566 19.6244C101.314 19.5444 101.062 19.4777 100.811 19.4311C100.486 19.3778 100.155 19.3444 99.8237 19.3444C98.32 19.3444 97.0746 19.651 95.816 20.5242C95.5179 20.7174 95.2463 20.9441 95.0078 21.1973C94.7892 21.4306 94.2195 22.0505 94.2195 22.3837V19.931H91.6824V37.2468H94.511V28.8089C94.511 26.5361 94.8886 24.8365 95.6437 23.7101C96.3989 22.5837 97.5317 22.0171 99.042 22.0171C99.3269 22.0171 99.6051 22.0438 99.8833 22.1038" fill="white"/>
<path d="M56.8514 25.0431C54.9833 20.3709 49.7103 18.1047 45.06 19.9843C42.768 20.9107 40.9529 22.737 40.0321 25.0431C39.575 26.1895 39.3498 27.4159 39.3564 28.6489C39.3498 29.8753 39.575 31.0883 40.0321 32.2214C40.4958 33.3478 41.1649 34.3742 42.0062 35.2473C42.8475 36.1138 43.8478 36.807 44.954 37.2802C47.1864 38.2266 49.6971 38.2266 51.9295 37.2802C53.0358 36.807 54.036 36.1138 54.8773 35.2473C55.7186 34.3742 56.3877 33.3478 56.8514 32.2214C57.3085 31.0883 57.5337 29.8686 57.5271 28.6489C57.5337 27.4159 57.3085 26.1895 56.8514 25.0431ZM52.7244 33.2878C51.5453 34.5542 50.121 35.1873 48.4384 35.1873C46.7625 35.1873 45.3316 34.5608 44.1525 33.2878C42.9733 32.0214 42.3838 30.4685 42.3838 28.6422C42.3838 26.816 42.9733 25.263 44.1525 23.9967C45.325 22.7303 46.7559 22.0971 48.4451 22.0971C50.1343 22.0971 51.5652 22.7303 52.7377 23.9967C53.9168 25.263 54.4998 26.816 54.4998 28.6422C54.4998 30.4685 53.9036 32.0214 52.7244 33.2878Z" fill="white"/>
<path d="M38.1708 10H35.3422V21.8438C34.5473 21.064 33.6132 20.4375 32.5865 20.0043C27.9494 18.0714 22.63 20.2909 20.709 24.9564C20.6957 24.9831 20.6891 25.0098 20.6758 25.0364C20.2187 26.1895 19.9935 27.4092 20.0001 28.6422C19.9935 29.8686 20.2187 31.0816 20.6758 32.2147C21.1395 33.3411 21.8086 34.3675 22.6499 35.2407C23.4912 36.1071 24.4915 36.8003 25.5977 37.2735C27.8302 38.2199 30.3408 38.2199 32.5732 37.2735C33.6795 36.8003 34.6798 36.1071 35.5211 35.2407C36.3623 34.3675 37.0314 33.3411 37.4951 32.2147C37.9522 31.075 38.1774 29.8619 38.1708 28.6422C38.1708 28.5223 38.1708 28.4156 38.1642 28.3023H38.1708V10ZM33.3681 33.2945C32.189 34.5608 30.7648 35.194 29.0888 35.194C27.4128 35.194 25.9886 34.5608 24.8028 33.2945C23.6237 32.0281 23.0341 30.4751 23.0341 28.6489C23.0341 26.8227 23.6171 25.2697 24.7896 24.0033C25.9621 22.737 27.3929 22.1038 29.0822 22.1038C30.7714 22.1038 32.2089 22.737 33.3814 24.0033C34.5539 25.2697 35.1368 26.8227 35.1368 28.6489C35.1368 30.4751 34.5473 32.0281 33.3681 33.2945Z" fill="white"/>
<path d="M128.481 35.2473C126.977 35.1673 125.546 34.4142 124.519 33.2945C124.341 33.0945 124.175 32.8879 124.023 32.6679C123.294 31.5949 122.85 30.3418 122.744 29.0488H134.827C134.787 29.6553 134.668 30.2485 134.476 30.8217C134.058 32.1081 133.264 33.2278 132.204 34.0543C131.197 34.8274 129.971 35.2473 128.706 35.2473C128.627 35.2473 128.547 35.2473 128.474 35.2473M125.301 20.0243C124.195 20.5042 123.195 21.1973 122.353 22.0638C121.512 22.9369 120.843 23.9633 120.379 25.0897C119.922 26.2228 119.697 27.4425 119.703 28.6689C119.697 29.9019 119.922 31.1283 120.379 32.2747C120.83 33.4011 121.499 34.4275 122.353 35.294C124.042 37.0469 126.374 38.0267 128.799 38C129.945 38 131.084 37.7801 132.151 37.3468C132.23 37.3468 132.303 37.3335 132.376 37.3068C133.489 36.8336 134.489 36.1471 135.33 35.2806C136.172 34.4075 136.847 33.3811 137.311 32.2614C137.854 30.915 138.086 29.462 137.973 28.0224C137.934 27.5158 137.861 27.0159 137.742 26.5294H131.488H123.022C123.612 24.7632 124.943 23.2302 126.679 22.537C126.798 22.4904 126.917 22.4504 127.03 22.4104C128.15 22.0571 129.355 22.0438 130.481 22.3837C131.356 22.657 132.157 23.1302 132.826 23.7701H136.589C135.542 22.1238 134.025 20.8241 132.243 20.0509C131.157 19.5777 129.985 19.3311 128.805 19.3311H128.752C127.567 19.3311 126.394 19.5711 125.308 20.0376L125.301 20.0243Z" fill="white"/>
</g>
<defs>
<clipPath id="clip0_502_1195">
<rect width="118" height="28" fill="white" transform="translate(20 10)"/>
</clipPath>
</defs>
</svg>
