<?xml version="1.0" encoding="UTF-8"?>
<svg id="Layer_1" xmlns="http://www.w3.org/2000/svg" version="1.1" width="400" height="115" viewBox="0 0 311 48">
  <!-- Generator: Adobe Illustrator 29.8.1, SVG Export Plug-In . SVG Version: 2.1.1 Build 2)  -->
  <defs>
    <style>
      .st0 {
        fill: #fff;
      }
    </style>
  </defs>
  <g>
    <path class="st0" d="M31.14,26.45c.02.39-.27.73-.67.75-.03,0-.06,0-.09,0h-5.86c-.39.02-.73-.27-.75-.67,0-.03,0-.06,0-.09v-4.36c-.02-.39.27-.73.67-.75.03,0,.06,0,.09,0h5.86c.39-.02.73.27.75.67,0,.03,0,.06,0,.09v4.36Z"/>
    <path class="st0" d="M41.66,30.96c.02.39-.27.73-.67.75-.03,0-.06,0-.09,0h-5.86c-.39.02-.73-.27-.75-.67,0-.03,0-.06,0-.09v-4.36c-.02-.39.27-.73.67-.75.03,0,.06,0,.09,0h5.86c.39-.02.73.27.75.67,0,.03,0,.06,0,.09v4.36Z"/>
    <path class="st0" d="M31.14,35.47c.02.39-.27.73-.67.75-.03,0-.06,0-.09,0h-5.86c-.39.02-.73-.27-.75-.67,0-.03,0-.06,0-.09v-4.36c-.02-.39.27-.73.67-.75.03,0,.06,0,.09,0h5.86c.39-.02.73.27.75.67,0,.03,0,.06,0,.09v4.36Z"/>
    <path class="st0" d="M20.62,21.94c.02.39-.27.73-.67.75-.03,0-.06,0-.09,0h-6.01c-.39.02-.73-.27-.75-.67,0-.03,0-.06,0-.09v-4.51c-.02-.39.27-.73.67-.75.03,0,.06,0,.09,0h5.86c.6,0,.9.3.9.75v4.51Z"/>
    <path class="st0" d="M46.92,6.16H4.84c-.39-.02-.73.27-.75.67,0,.03,0,.06,0,.09v9.02c-.02.39.27.73.67.75.03,0,.06,0,.09,0h4.51c.39.02.73-.27.75-.67,0-.03,0-.06,0-.09v-3.76h31.56v3.76c0,.45.3.75.9.75h4.36c.39.02.73-.27.75-.67,0-.03,0-.06,0-.09V6.91c.02-.39-.27-.73-.67-.75-.03,0-.06,0-.09,0Z"/>
    <path class="st0" d="M46.92,40.88h-4.36c-.39-.02-.73.27-.75.67,0,.03,0,.06,0,.09v3.61H10.1v-3.76c0-.45-.3-.75-.9-.75h-4.36c-.45,0-.75.3-.75.9v8.87c-.02.39.27.73.67.75.03,0,.06,0,.09,0h42.08c.39.02.73-.27.75-.67,0-.03,0-.06,0-.09v-8.87c.02-.39-.27-.73-.67-.75-.03,0-.06,0-.09,0Z"/>
    <path class="st0" d="M20.62,30.96c.02.39-.27.73-.67.75-.03,0-.06,0-.09,0h-6.01c-.39.02-.73-.27-.75-.67,0-.03,0-.06,0-.09v-4.51c-.02-.39.27-.73.67-.75.03,0,.06,0,.09,0h5.86c.6,0,.9.3.9.75v4.51Z"/>
    <path class="st0" d="M20.62,39.98c.02.39-.27.73-.67.75-.03,0-.06,0-.09,0h-6.01c-.39.02-.73-.27-.75-.67,0-.03,0-.06,0-.09v-4.51c-.02-.39.27-.73.67-.75.03,0,.06,0,.09,0h5.86c.6,0,.9.3.9.75v4.51Z"/>
  </g>
  <g>
    <path class="st0" d="M63.68,17.78h5.04l7.54,21.3h-4.83l-1.4-4.38h-7.85l-1.45,4.38h-4.66l7.6-21.3ZM63.38,31.03h5.46l-2.69-8.38-2.77,8.38Z"/>
    <path class="st0" d="M77.73,26.68v-3.35h12.46v3.42l-7.73,8.95h8v3.38h-13.28v-3.21l7.81-9.19h-7.26Z"/>
    <path class="st0" d="M97.53,23.33v9.49c-.04.69.07,1.38.32,2.02.41.82,1.29,1.3,2.2,1.2,1.22.1,2.38-.58,2.88-1.71.3-.78.43-1.61.4-2.44v-8.57h4.18v15.75h-4v-2.23s-.13.19-.29.43c-.15.24-.33.45-.55.64-.54.51-1.17.92-1.87,1.19-.68.22-1.39.33-2.11.32-1.94.22-3.8-.78-4.7-2.51-.52-1.3-.75-2.7-.68-4.09v-9.49h4.22Z"/>
    <path class="st0" d="M120.26,22.96c.05,0,.17.01.35.02v4.22c-.26-.03-.49-.05-.69-.06s-.37-.01-.49-.01c-1.33-.17-2.64.47-3.34,1.62-.37.88-.53,1.84-.48,2.8v7.53h-4.15v-15.75h3.93v2.75c.44-.8,1-1.53,1.66-2.16.85-.67,1.92-1.02,3.01-.97.08,0,.14,0,.2,0Z"/>
    <path class="st0" d="M133.29,23.64c1.11.5,2.05,1.31,2.72,2.33.66.97,1.09,2.09,1.26,3.25.13,1.04.17,2.08.14,3.13h-11.47c-.07,1.32.55,2.58,1.65,3.33.69.41,1.47.61,2.27.59,1.32.1,2.56-.61,3.13-1.8h4.21c-.19,1.09-.73,2.09-1.53,2.85-1.55,1.59-3.71,2.43-5.93,2.3-2.02.03-3.99-.66-5.55-1.94-1.74-1.61-2.62-3.94-2.4-6.31-.15-2.3.63-4.57,2.17-6.28,1.5-1.47,3.54-2.26,5.63-2.18,1.27-.02,2.54.23,3.7.74ZM127.13,27.2c-.62.67-1,1.53-1.1,2.44h7.1c0-.94-.4-1.84-1.1-2.49-.68-.58-1.55-.88-2.44-.85-.91-.06-1.8.27-2.46.9Z"/>
    <path class="st0" d="M163.8,21.55h-11.27v4.53h10.35v3.7h-10.35v5.48h11.79v3.83h-16.14v-21.3h15.62v3.77Z"/>
    <path class="st0" d="M177.16,23.33h4.42l-5.69,15.75h-4.34l-5.65-15.75h4.62l3.28,11.62,3.35-11.62Z"/>
    <path class="st0" d="M194.18,23.64c1.11.5,2.05,1.31,2.72,2.33.66.97,1.09,2.09,1.26,3.25.13,1.04.17,2.08.14,3.13h-11.47c-.07,1.32.55,2.58,1.65,3.33.69.41,1.47.61,2.27.59,1.32.1,2.56-.61,3.13-1.8h4.2c-.19,1.09-.73,2.09-1.53,2.85-1.55,1.59-3.71,2.43-5.93,2.3-2.02.03-3.99-.66-5.55-1.94-1.74-1.61-2.62-3.94-2.4-6.31-.15-2.3.63-4.57,2.17-6.28,1.5-1.47,3.53-2.26,5.63-2.18,1.27-.02,2.54.23,3.7.74ZM188.02,27.2c-.62.67-1,1.53-1.1,2.44h7.1c0-.94-.41-1.84-1.1-2.49-.68-.58-1.55-.88-2.44-.85-.91-.06-1.8.27-2.46.9Z"/>
    <path class="st0" d="M213.08,24.23c1.13,1.11,1.7,2.67,1.54,4.24v10.61h-4.22v-9.58c.03-.65-.08-1.3-.33-1.91-.45-.83-1.35-1.32-2.3-1.21-1.24-.09-2.39.62-2.86,1.78-.29.76-.43,1.58-.4,2.4v8.53h-4.12v-15.72h3.99v2.3c.4-.66.91-1.25,1.5-1.75.93-.66,2.06-1,3.21-.95,1.44-.06,2.85.39,3.98,1.28Z"/>
    <path class="st0" d="M216.84,26.4v-2.93h2.2v-4.39h4.07v4.39h2.56v2.93h-2.56v8.32c-.06.42.03.85.25,1.21.47.22.99.3,1.5.24.12,0,.26,0,.4,0s.28-.01.41-.02v3.08l-1.95.07c-1.41.22-2.85-.14-3.99-1.01-.51-.61-.76-1.39-.69-2.18v-9.7h-2.2Z"/>
    <path class="st0" d="M236.84,39.08v-21.3h4.42v8.12h8.28v-8.12h4.42v21.3h-4.42v-9.51h-8.28v9.51h-4.42Z"/>
    <path class="st0" d="M262.01,23.33v9.49c-.04.69.07,1.38.31,2.02.41.82,1.29,1.3,2.2,1.2,1.22.1,2.38-.58,2.87-1.71.3-.78.44-1.61.4-2.44v-8.57h4.17v15.75h-4v-2.23s-.14.19-.29.43c-.15.24-.33.45-.55.64-.54.51-1.17.92-1.87,1.19-.68.22-1.4.33-2.11.32-1.93.22-3.8-.78-4.7-2.51-.52-1.3-.75-2.7-.68-4.09v-9.49h4.22Z"/>
    <path class="st0" d="M289.44,25.22c1.23,1.67,1.86,3.71,1.77,5.78.08,2.16-.53,4.29-1.74,6.08-1.91,2.44-5.31,3.13-8.02,1.63-.61-.44-1.13-.99-1.54-1.62v1.98h-4.06v-21.27h4.12v7.57c.46-.67,1.05-1.24,1.73-1.68.86-.51,1.85-.76,2.85-.72,1.9-.09,3.72.75,4.89,2.24ZM286,34.82c.64-1.01.95-2.19.89-3.39.03-.94-.12-1.88-.43-2.77-.43-1.31-1.69-2.16-3.06-2.08-1.37-.09-2.64.74-3.11,2.04-.32.9-.47,1.85-.44,2.8-.05,1.18.27,2.35.9,3.35.62.9,1.67,1.4,2.75,1.33,1,.04,1.94-.45,2.49-1.28Z"/>
    <path class="st0" d="M297.27,34.05c.02.57.22,1.11.57,1.56.8.65,1.82.94,2.85.83.67.03,1.33-.1,1.94-.36.44-.18.72-.61.72-1.08.02-.43-.21-.84-.58-1.06-1.39-.55-2.84-.97-4.31-1.24-1.37-.25-2.67-.82-3.78-1.66-.77-.74-1.17-1.77-1.1-2.83,0-1.44.62-2.81,1.72-3.75,1.35-1.12,3.08-1.68,4.83-1.57,1.69-.07,3.36.34,4.82,1.18,1.32.93,2.12,2.45,2.13,4.07h-4.12c-.03-.45-.18-.89-.45-1.26-.61-.62-1.46-.92-2.32-.83-.67-.06-1.34.09-1.92.42-.34.21-.56.58-.57.98-.02.43.22.84.61,1.03,1.4.5,2.84.88,4.3,1.14,1.36.25,2.64.85,3.69,1.75.8.77,1.24,1.85,1.21,2.96.04,1.48-.61,2.89-1.75,3.82-3.36,2.01-7.56,1.97-10.89-.09-1.16-1-1.81-2.47-1.77-4h4.17Z"/>
  </g>
</svg>