<?xml version="1.0" encoding="UTF-8"?>
<svg width="158px" height="48px" viewBox="0 0 158 48" version="1.1" xmlns="http://www.w3.org/2000/svg" xmlns:xlink="http://www.w3.org/1999/xlink">
    <title>Group 56</title>
    <g id="Work-file-(ignore)" stroke="none" stroke-width="1" fill="none" fill-rule="evenodd">
        <g id="Group-56">
            <rect id="Rectangle-Copy-32" x="0" y="0" width="158" height="48"></rect>
            <text id="FTP" font-family="Poppins-Bold, Poppins" font-size="18" font-weight="bold" letter-spacing="2" fill="#FFFFFF">
                <tspan x="65" y="30">FTP</tspan>
            </text>
            <path d="M12.6545314,37.6000728 L18.7091304,15.4000728 C18.9345726,14.5734584 19.6853751,14 20.5421805,14 L43.5748593,14 L43.5748593,14 L41.5040885,23.4720753 C41.2799763,24.4972047 41.929329,25.5099151 42.9544584,25.7340273 C43.0877556,25.7631685 43.2238041,25.7778663 43.3602495,25.7778663 L53.3992883,25.7778663 L53.3992883,25.7778663 L49.4623617,38.655486 C49.2181303,39.4543627 48.4807524,40 47.6453765,40 L14.4875815,40 C13.4382405,40 12.5875815,39.149341 12.5875815,38.1 C12.5875815,37.9311228 12.6100965,37.7629994 12.6545314,37.6000728 Z" id="Path-14" stroke="#FFFFFF" stroke-width="1.9"></path>
            <path d="M11,28 L15.0023618,10.4769255 C15.1997243,9.61283586 15.9683174,9 16.8546598,9 L44,9 L44,9" id="Path-19" stroke="#FFFFFF" stroke-width="1.9"></path>
        </g>
    </g>
</svg>