<?xml version="1.0" encoding="UTF-8"?>
<svg width="158px" height="48px" viewBox="0 0 158 48" version="1.1" xmlns="http://www.w3.org/2000/svg" xmlns:xlink="http://www.w3.org/1999/xlink">
    <title>Group 60</title>
    <g id="Work-file-(ignore)" stroke="none" stroke-width="1" fill="none" fill-rule="evenodd">
        <g id="Group-60">
            <rect id="Rectangle-Copy-36" x="0" y="0" width="158" height="48"></rect>
            <g id="kafka-svgrepo-com-(1)" transform="translate(15, 7)" fill="#FFFFFF" fill-rule="nonzero">
                <path d="M7.55789358,3.11433511 C7.16562196,2.72570097 6.62139268,2.48628129 6.01470463,2.48628129 C5.40953996,2.48628129 4.86949999,2.72570097 4.48217936,3.11433511 L4.47227737,3.11433511 C4.08114829,3.50033828 3.83854922,4.03893859 3.83854922,4.63391717 C3.83854922,5.23227843 4.08114829,5.76749605 4.47227737,6.14974066 L4.48217936,6.16026461 C4.86949999,6.54551606 5.40953996,6.78155303 6.01470463,6.78155303 C6.62139268,6.78155303 7.16562196,6.54551606 7.55789358,6.16026461 L7.56246373,6.14974066 C7.9551162,5.76749605 8.19466849,5.23227843 8.19466849,4.63391717 C8.19466849,4.03893859 7.9551162,3.50033828 7.56246373,3.11433511 L7.55789358,3.11433511 Z M6.01470463,32.5137188 C6.62139268,32.5137188 7.16562196,32.2697888 7.55789358,31.8882958 L7.56246373,31.8770203 C7.9551162,31.4962791 8.19466849,30.9576788 8.19466849,30.365707 C8.19466849,29.7673457 7.9551162,29.2313765 7.56246373,28.843494 L7.55789358,28.843494 C7.16562196,28.4511013 6.62139268,28.2139368 6.01470463,28.2139368 C5.40953996,28.2139368 4.86949999,28.4511013 4.48217936,28.843494 L4.47227737,28.843494 C4.08114829,29.2313765 3.83854922,29.7673457 3.83854922,30.365707 C3.83854922,30.9576788 4.08114829,31.4962791 4.47227737,31.8770203 L4.48217936,31.8882958 C4.86949999,32.2697888 5.40953996,32.5137188 6.01470463,32.5137188 Z M17.8715905,26.0065399 C18.410488,25.8667219 18.898352,25.5254454 19.1965546,25.0090206 L19.2365435,24.9334736 C19.5016124,24.4444862 19.5499799,23.8792003 19.4083051,23.3774336 C19.2654878,22.8418402 18.9158709,22.3667594 18.3937307,22.0709614 L18.3628821,22.0506653 C17.8540716,21.7747876 17.2751854,21.7146508 16.7427623,21.8578517 C16.2015798,21.9912802 15.7152391,22.3468391 15.4189408,22.8587537 C15.1188339,23.3676614 15.0563751,23.952492 15.1999541,24.4907164 C15.3481034,25.0202961 15.6950542,25.4987597 16.2141478,25.7979404 L16.2171944,25.7979404 C16.7374305,26.0929866 17.3254569,26.1459822 17.8715905,26.0065399 Z M8.24684442,15.2991806 C7.67557507,14.7369015 6.88722335,14.3843494 6.01470463,14.3843494 C5.14332844,14.3843494 4.35726181,14.7369015 3.78713498,15.2991806 C3.2189124,15.8607081 2.86853386,16.6353454 2.86853386,17.4964293 C2.86853386,18.3575133 3.2189124,19.1355334 3.78713498,19.7034504 C4.35726181,20.2623468 5.14332844,20.6115162 6.01470463,20.6115162 C6.88722335,20.6115162 7.67557507,20.2623468 8.24684442,19.7034504 C8.8165904,19.1355334 9.16696894,18.3575133 9.16696894,17.4964293 C9.16696894,16.6353454 8.8165904,15.8607081 8.24684442,15.2991806 Z M6.99157522,11.6387281 C8.2582698,11.8446967 9.39547668,12.4434338 10.2649486,13.3075246 L10.271423,13.3075246 C10.4096702,13.4435842 10.5441089,13.5935503 10.6694073,13.7431407 L12.8421351,12.5028189 C12.5500261,11.6315869 12.5363156,10.72089 12.7712977,9.86657146 C13.0809257,8.72284447 13.8323353,7.69901527 14.9588785,7.05743065 L14.9954397,7.03450351 C16.1097958,6.41246336 17.3761096,6.28279336 18.5190291,6.58836353 C19.6768016,6.89468542 20.7210821,7.63963017 21.3711866,8.74953018 L21.3711866,8.75291288 C22.0182444,9.85679923 22.1492554,11.1234308 21.84077,12.2637751 C21.5326654,13.4071262 20.7785898,14.4380967 19.6531892,15.0759227 L19.3565099,15.248816 L19.3264231,15.248816 C18.2855703,15.7378036 17.1411275,15.8144779 16.0899919,15.5412313 C15.2269943,15.3157183 14.4355958,14.8398858 13.8155781,14.1652259 L11.6458971,15.4021649 C11.8953514,16.0531459 12.0332177,16.7548673 12.0332177,17.4964293 C12.0332177,18.2342329 11.8953514,18.9461024 11.6458971,19.600466 L13.8155781,20.8340225 C14.4355958,20.1488386 15.2269943,19.6839058 16.0899919,19.4576411 C17.2481452,19.1453056 18.5315971,19.2779825 19.6531892,19.9233256 L19.7251691,19.9564008 L19.7251691,19.9597835 C20.8086767,20.6081335 21.536093,21.6086597 21.84077,22.738856 C22.1492554,23.8724348 22.0182444,25.139818 21.3711866,26.2459596 L21.3319595,26.3230099 L21.3273892,26.3166203 C20.6776656,27.3829212 19.6531892,28.1053146 18.5224567,28.4108848 C17.3627799,28.7126964 16.0789472,28.5837781 14.9588785,27.9478313 L14.9588785,27.9391867 C13.8323353,27.2964745 13.0809257,26.2703901 12.7712977,25.1289183 C12.5363156,24.2783583 12.5500261,23.3676614 12.8421351,22.4968053 L10.6694073,21.2594904 C10.5441089,21.4090806 10.4096702,21.5522815 10.271423,21.6883409 L10.2649486,21.6951064 C9.39547668,22.5561904 8.2582698,23.1545517 6.99157522,23.3537548 L6.99157522,25.8313914 C7.8941808,26.0174397 8.70233653,26.4628279 9.33530296,27.0878749 L9.33873058,27.0942645 C10.187256,27.927911 10.7128238,29.0893032 10.7128238,30.365707 C10.7128238,31.6383523 10.187256,32.7929791 9.33873058,33.63076 L9.33530296,33.6439149 C8.48068402,34.4813201 7.30843929,35 6.01470463,35 C4.72782519,35 3.55253371,34.4813201 2.69981898,33.6439149 L2.69639137,33.6439149 L2.69639137,33.63076 C1.84710425,32.7929791 1.3203939,31.6383523 1.3203939,30.365707 C1.3203939,29.0893032 1.84710425,27.927911 2.69639137,27.0942645 L2.69639137,27.0878749 L2.69981898,27.0878749 C3.33240458,26.4628279 4.14208368,26.0174397 5.04126164,25.8313914 L5.04126164,23.3537548 C3.77494791,23.1545517 2.63964527,22.5561904 1.77169669,21.6951064 L1.76255639,21.6883409 C0.678667994,20.614899 0,19.1355334 0,17.4964293 C0,15.8607081 0.678667994,14.3813426 1.76255639,13.3075246 L1.77169669,13.3075246 C2.63964527,12.4434338 3.77494791,11.8446967 5.04126164,11.6387281 L5.04126164,9.17161543 C4.14208368,8.97917764 3.33240458,8.53378938 2.69981898,7.9121251 L2.69639137,7.9121251 L2.69639137,7.9053597 C1.84710425,7.06419605 1.3203939,5.91069684 1.3203939,4.63391717 C1.3203939,3.36390288 1.84710425,2.20025559 2.69639137,1.36247463 L2.69981898,1.35909194 C3.55253371,0.518304142 4.72782519,0 6.01470463,0 C7.30843929,0 8.48068402,0.518304142 9.33530296,1.35909194 L9.33530296,1.36247463 L9.33873058,1.36247463 C10.187256,2.20025559 10.7128238,3.36390288 10.7128238,4.63391717 C10.7128238,5.91069684 10.187256,7.06419605 9.33873058,7.9053597 L9.33530296,7.9121251 C8.70233653,8.53378938 7.8941808,8.97917764 6.99157522,9.17161543 L6.99157522,11.6387281 Z M19.1965546,9.99323461 L19.1778931,9.96617306 C18.8785481,9.46778923 18.4002051,9.13553335 17.8715905,8.99233256 C17.3254569,8.84913178 16.7374305,8.9092686 16.2141478,9.20544239 L16.2171944,9.20544239 C15.6950542,9.49785763 15.3458182,9.97594528 15.1999541,10.5119146 C15.0563751,11.0437495 15.1188339,11.6315869 15.4189408,12.1438773 L15.4292236,12.1570323 C15.7297113,12.6625573 16.208435,13.0015786 16.7427623,13.138014 C17.2797555,13.2879802 17.8780649,13.2244607 18.3937307,12.9282869 L18.4215325,12.9151319 C18.9292006,12.6159513 19.2673919,12.1438773 19.4083051,11.6251973 C19.552265,11.0899797 19.4947571,10.5051492 19.1965546,9.99323461 Z" id="Shape"></path>
                <path d="M37,10.2366791 L39.4298845,10.2366791 L39.4298845,16.980299 L42.9338651,13.4564869 L45.84736,13.4564869 L41.6170097,17.5390283 L45.8649182,22.7140418 L43.0827271,22.7140418 L39.4298845,18.091511 L39.4298845,22.7140418 L37,22.7140418 L37,10.2366791 Z M48.6700111,18.1251735 C48.6700111,19.2735185 49.5784505,20.9431127 51.7671023,20.9431127 C53.1213641,20.9431127 54.0126272,20.3014415 54.4748625,19.4605713 C54.7168585,19.0524559 54.8283141,18.6162307 54.8657205,18.1623065 C54.8825151,17.7229578 54.7912896,17.2662574 54.5859363,16.8605713 C54.1599623,15.9860385 53.2144983,15.2277629 51.7491627,15.2277629 C49.7841852,15.2277629 48.6700111,16.6762947 48.6700111,18.1099039 L48.6700111,18.1251735 Z M57.2761385,22.7140418 L54.8451089,22.7140418 L54.8451089,21.3821143 C54.198132,22.4593167 52.8434885,23 51.4147958,23 C48.1501394,23 46.2405081,20.6883876 46.2405081,18.0762414 C46.2405081,15.1600908 48.5585554,13.1708756 51.4147958,13.1708756 C53.2694627,13.1708756 54.4004316,14.0644955 54.8451089,14.8071544 L54.8451089,13.4564869 L57.2761385,13.4564869 L57.2761385,22.7140418 Z M60.0274121,15.1600908 L58.768193,15.1600908 L58.768193,13.4564869 L60.0274121,13.4564869 L60.0274121,12.9348906 C60.0274121,10.1842766 62.3279013,10.0183929 64.0722575,10 L64.0722575,11.7004805 C63.4588701,11.7004805 62.4584417,11.7004805 62.4584417,13.0018687 L62.4584417,13.4564869 L64.0722575,13.4564869 L64.0722575,15.1600908 L62.4584417,15.1600908 L62.4584417,22.7140418 L60.0274121,22.7140418 L60.0274121,15.1600908 Z M65.7246249,10.2366791 L68.1537461,10.2366791 L68.1537461,16.980299 L71.65849,13.4564869 L74.5719849,13.4564869 L70.3416346,17.5390283 L74.5887797,22.7140418 L71.8065886,22.7140418 L68.1537461,18.091511 L68.1537461,22.7140418 L65.7246249,22.7140418 L65.7246249,10.2366791 Z M77.394636,18.1251735 C77.394636,19.2735185 78.3026936,20.9431127 80.4917273,20.9431127 C81.8440806,20.9431127 82.7353435,20.3014415 83.1983422,19.4605713 C83.4411017,19.0524559 83.5529391,18.6162307 83.589582,18.1623065 C83.6063766,17.7229578 83.5151509,17.2662574 83.3094162,16.8605713 C82.8842055,15.9860385 81.9387415,15.2277629 80.4737875,15.2277629 C78.5084284,15.2277629 77.394636,16.6762947 77.394636,18.1099039 L77.394636,18.1251735 Z M86,22.7140418 L83.5697337,22.7140418 L83.5697337,21.3821143 C82.9208484,22.4593167 81.56735,23 80.1394207,23 C76.8747644,23 74.9666598,20.6883876 74.9666598,18.0762414 C74.9666598,15.1600908 77.2839438,13.1708756 80.1394207,13.1708756 C81.9929424,13.1708756 83.1250564,14.0644955 83.5697337,14.8071544 L83.5697337,13.4564869 L86,13.4564869 L86,22.7140418 Z" id="Shape"></path>
            </g>
        </g>
    </g>
</svg>