<svg width="158" height="48" viewBox="0 0 158 48" fill="none" xmlns="http://www.w3.org/2000/svg">
<g clip-path="url(#clip0_502_1214)">
<path d="M130.78 30.9476H127.557C126.889 30.9476 126.337 30.5057 126.337 29.9574C126.337 29.2946 126.889 28.9673 127.557 28.9673H133.442L134.777 25.9885H127.557C124.556 25.9885 122.891 27.7561 122.891 30.072C122.891 32.3879 124.556 33.9345 127.111 33.9345H130.334C131.002 33.9345 131.554 34.3764 131.554 34.9247C131.554 35.473 131.109 35.9149 130.334 35.9149H123.221V38.8936H130.334C133.335 38.8936 135 37.126 135 34.7038C135 32.2815 133.442 30.9558 130.78 30.9558M117.78 30.9476H114.557C113.89 30.9476 113.337 30.5057 113.337 29.9574C113.337 29.2946 113.89 28.9673 114.557 28.9673H120.443L121.778 25.9885H114.557C111.557 25.9885 109.892 27.7561 109.892 30.072C109.892 32.3879 111.557 33.9345 114.112 33.9345H117.335C118.003 33.9345 118.555 34.3764 118.555 34.9247C118.555 35.473 118.11 35.9149 117.335 35.9149H110.222V38.8936H117.335C120.336 38.8936 122.001 37.126 122.001 34.7038C122.108 32.2733 120.558 30.9558 117.78 30.9558M97.2224 39H108.334V36.0213H100.775V33.9264H108.219V30.9476H100.775V28.8527H108.334V25.874H97.2224V39ZM90.3313 31.5041H86.6631V28.8527H90.3313C91.3287 28.8527 91.8892 29.5155 91.8892 30.1784C91.8892 30.9476 91.3369 31.5041 90.3313 31.5041ZM95.4419 30.072C95.4419 27.5352 93.6614 25.8822 90.7764 25.8822H83.1104V39.0082H86.6631V34.4828H87.9985L91.9964 39.0082H96.2168L91.881 34.2619C94.1066 33.7136 95.4337 32.1669 95.4337 30.072M76.4419 31.725H72.6666V28.8609H76.4419C77.4393 28.8609 77.9998 29.5237 77.9998 30.293C77.9998 31.0622 77.5547 31.725 76.4419 31.725ZM76.887 25.874H69.221V39H72.7737V34.6956H76.887C79.8874 34.6956 81.6679 32.8216 81.6679 30.2848C81.5607 27.6334 79.7803 25.874 76.887 25.874ZM68.5533 25.874H63.9949L60.6648 29.8429L57.2192 25.874H52.5537L58.4392 32.3797L52.4383 39H56.9967L60.5494 34.8101L64.1021 39H68.7676L62.7667 32.2733L68.5451 25.874H68.5533ZM40.8899 39H52.0014V36.0213H44.3354V33.9264H51.7789V30.9476H44.3354V28.8527H52.0014V25.874H40.8899V39ZM129.444 17.0524L124.004 9.10638H119.561V22.126H123.114V13.8527L128.669 22.126H132.89V9.10638H129.444V17.0524ZM109.002 16.6105L110.889 12.1997L112.777 16.6105H109.002ZM108.557 9.10638L102.778 22.2324H106.669L107.782 19.581H113.89L115.003 22.2324H119L113.115 9.10638H108.557ZM96.9998 15.7267V15.5057C96.9998 13.5172 98.1127 12.1997 100.33 12.1997H104.221V9H100C95.6645 9 93.4471 11.7578 93.4471 15.3993V15.6203C93.4471 19.7038 96.0024 22.0196 99.8931 22.0196H101.113L102.556 19.0409H100.445C98.3352 19.1473 96.9998 17.9362 96.9998 15.7349M88.1139 9.10638V22.126H91.6666V9.10638H88.1139ZM81.2228 14.6219H77.5547V11.9705H81.2228C82.2202 11.9705 82.7807 12.6334 82.7807 13.2962C82.7807 14.0655 82.2284 14.6219 81.2228 14.6219ZM86.3334 13.3044C86.3334 10.7676 84.5529 9.11457 81.6679 9.11457H74.0019V22.2406H77.5547V17.6088H78.89L82.8879 22.1342H87.2237L82.7807 17.3879C85.0063 16.946 86.3334 15.293 86.3334 13.3044ZM60.5576 22.126H71.6692V19.1473H64.1104V17.0524H71.4466V14.0736H64.1104V11.9787H71.6692V9.10638H60.5576V22.126ZM49.3307 17.2733L46.3302 9.10638H40.8899V22.126H44.3354V12.748L47.781 22.126H50.8886L54.3342 12.748V22.126H57.8869V9.10638H52.3311L49.3307 17.2651V17.2733ZM30.2235 16.6105L32.1111 12.1997L33.9987 16.6105H30.2235ZM29.7783 9.10638L24 22.126H27.8907L29.0035 19.4746H35.1115L36.2243 22.126H40.2222L34.3367 9.10638H29.7783Z" fill="white"/>
</g>
<defs>
<clipPath id="clip0_502_1214">
<rect width="111" height="30" fill="white" transform="translate(24 9)"/>
</clipPath>
</defs>
</svg>
