<svg width="158" height="48" viewBox="0 0 158 48" fill="none" xmlns="http://www.w3.org/2000/svg">
<g clip-path="url(#clip0_502_1249)">
<path d="M52.56 29.06C51.89 29.41 51.18 29.67 50.45 29.82C49.72 29.98 48.97 30.05 48.21 30.05C47.4 30.05 46.65 29.92 45.97 29.67C45.29 29.42 44.7 29.05 44.2 28.58C43.7 28.11 43.31 27.53 43.04 26.86C42.76 26.19 42.62 25.43 42.62 24.6C42.62 23.77 42.76 23.02 43.04 22.34C43.32 21.67 43.71 21.09 44.2 20.62C44.7 20.15 45.29 19.78 45.97 19.53C46.65 19.28 47.4 19.15 48.21 19.15C49.02 19.15 49.8 19.25 50.5 19.45C51.2 19.65 51.81 19.99 52.34 20.48L50.73 22.24C50.42 21.92 50.07 21.67 49.68 21.51C49.29 21.34 48.8 21.26 48.22 21.26C47.73 21.26 47.29 21.34 46.89 21.51C46.49 21.68 46.15 21.91 45.87 22.21C45.59 22.51 45.37 22.86 45.22 23.27C45.07 23.68 44.99 24.12 44.99 24.6C44.99 25.08 45.07 25.54 45.22 25.94C45.37 26.34 45.59 26.7 45.87 26.99C46.15 27.29 46.49 27.52 46.89 27.69C47.29 27.86 47.73 27.94 48.22 27.94C48.71 27.94 49.15 27.88 49.51 27.77C49.87 27.66 50.16 27.54 50.38 27.43V25.75H48.52V23.64H52.58V29.07L52.56 29.06Z" fill="white"/>
<path d="M65.51 25.8C65.51 26.41 65.42 26.98 65.23 27.5C65.04 28.02 64.77 28.47 64.4 28.85C64.03 29.23 63.58 29.53 63.03 29.74C62.48 29.96 61.85 30.06 61.14 30.06C60.43 30.06 59.78 29.95 59.24 29.74C58.69 29.52 58.24 29.23 57.87 28.85C57.5 28.47 57.23 28.02 57.04 27.5C56.85 26.98 56.76 26.42 56.76 25.8V19.43H59.05V25.71C59.05 26.03 59.1 26.33 59.2 26.6C59.3 26.87 59.45 27.11 59.63 27.31C59.82 27.51 60.04 27.67 60.3 27.78C60.56 27.89 60.84 27.95 61.14 27.95C61.44 27.95 61.72 27.89 61.98 27.78C62.23 27.67 62.45 27.51 62.64 27.31C62.83 27.11 62.97 26.87 63.07 26.6C63.17 26.33 63.22 26.03 63.22 25.71V19.43H65.51V25.8Z" fill="white"/>
<path d="M69.79 19.42H72.08V29.79H69.79V19.42Z" fill="white"/>
<path d="M79.78 19.42C80.61 19.42 81.4 19.51 82.15 19.7C82.9 19.89 83.55 20.19 84.1 20.6C84.66 21.02 85.1 21.55 85.43 22.22C85.76 22.88 85.92 23.69 85.92 24.64C85.92 25.48 85.76 26.22 85.44 26.86C85.12 27.5 84.7 28.04 84.16 28.47C83.62 28.9 83 29.24 82.3 29.46C81.6 29.68 80.86 29.8 80.09 29.8H76.35V19.42H79.78ZM78.64 27.68H79.83C80.36 27.68 80.85 27.63 81.3 27.52C81.75 27.41 82.15 27.23 82.48 26.99C82.81 26.74 83.07 26.41 83.26 26.01C83.45 25.61 83.55 25.11 83.55 24.52C83.55 24.01 83.46 23.57 83.26 23.19C83.07 22.82 82.81 22.51 82.49 22.26C82.17 22.01 81.79 21.83 81.36 21.71C80.93 21.59 80.47 21.53 79.99 21.53H78.64V27.68Z" fill="white"/>
<path d="M89.75 19.42H96.79V21.53H92.03V23.46H96.53V25.57H92.03V27.68H97.05V29.79H89.74V19.42H89.75Z" fill="white"/>
<path d="M100 19.42H102.49L104.14 26.07H104.17L106.34 19.42H108.46L110.61 26.25H110.64L112.38 19.43H114.7L111.67 29.8H109.64L107.36 22.62H107.33L105.04 29.8H103.08L100 19.43V19.42Z" fill="white"/>
<path d="M117.05 19.42H119.33V29.79H117.05V19.42Z" fill="white"/>
<path d="M123.61 19.42H127.62C128.15 19.42 128.65 19.47 129.12 19.57C129.59 19.67 130.01 19.84 130.36 20.08C130.71 20.32 131 20.64 131.21 21.05C131.42 21.45 131.53 21.96 131.53 22.56C131.53 23.29 131.34 23.92 130.96 24.43C130.58 24.94 130.02 25.27 129.29 25.4L131.93 29.78H129.19L127.02 25.64H125.89V29.78H123.6V19.42H123.61ZM125.89 23.72H127.24C127.44 23.72 127.66 23.72 127.89 23.7C128.12 23.69 128.33 23.64 128.51 23.57C128.7 23.5 128.85 23.38 128.97 23.23C129.09 23.07 129.15 22.86 129.15 22.57C129.15 22.31 129.1 22.1 128.99 21.94C128.88 21.78 128.75 21.67 128.58 21.58C128.41 21.5 128.22 21.44 128.01 21.41C127.79 21.38 127.58 21.37 127.38 21.37H125.89V23.73V23.72Z" fill="white"/>
<path d="M135.38 19.42H142.42V21.53H137.66V23.46H142.16V25.57H137.66V27.68H142.68V29.79H135.37V19.42H135.38Z" fill="white"/>
<path d="M36.06 18.01V14H16V34.06H28.04V30.05H20.01V18.01H36.06Z" fill="white"/>
<path d="M36.06 22.03V34.07H32.05V26.04H24.02V22.03H36.06Z" fill="white"/>
</g>
<defs>
<clipPath id="clip0_502_1249">
<rect width="126.69" height="20.06" fill="white" transform="translate(16 14)"/>
</clipPath>
</defs>
</svg>
