<svg width="158" height="48" viewBox="0 0 158 48" fill="none" xmlns="http://www.w3.org/2000/svg">
<g clip-path="url(#clip0_502_1226)">
<path d="M39 8V10.19H54.5715V8H39ZM56.7787 8V10.19H78.9677C78.9677 10.19 76.7001 8 73.6996 8H56.7787ZM83.3218 8V10.19H96.7464L95.9489 8H83.3218ZM106.373 8L105.575 10.19H118.879V8H106.373ZM39 12.2592V14.4491H54.5715V12.2592H39ZM56.7787 12.2592V14.4448H81.5457C81.5457 14.4448 81.2568 12.7593 80.7524 12.2592H56.7787ZM83.3218 12.2592V14.4448H98.2208L97.4836 12.2592H83.3261H83.3218ZM104.778 12.2592L104.041 14.4448H118.879V12.2592H104.778ZM43.4749 16.5141V18.7083H50.2173V16.5141H43.4749ZM61.2536 16.5141V18.7083H67.9961V16.5141H61.2536ZM74.5575 16.5141V18.7083H81.2999C81.2999 18.7083 81.7267 17.5487 81.7267 16.5141H74.5532H74.5575ZM87.7967 16.5141V18.7083H99.7512L98.9537 16.5141H87.7924H87.7967ZM103.308 16.5141L102.506 18.7083H114.521V16.5141H103.303H103.308ZM43.4749 20.7776V22.9675H50.2173V20.7776H43.4749ZM61.2536 20.7776V22.9675H78.4805C78.4805 22.9675 79.9204 21.8424 80.3817 20.7776H61.2579H61.2536ZM87.7967 20.7776V22.9675H94.5391V21.7475L94.9659 22.9675H107.317L107.778 21.7475V22.9675H114.521V20.7776H101.859L101.187 22.6313L100.51 20.7776H87.7881H87.7967ZM43.4749 25.0325V27.2224H50.2173V25.0325H43.4749ZM61.2536 25.0325V27.2224H80.3774C79.9204 26.1619 78.4762 25.0325 78.4762 25.0325H61.2493H61.2536ZM87.7967 25.0325V27.2224H94.5391V25.0325H87.7967ZM95.7678 25.0325L96.5826 27.2224H105.847L106.623 25.0325H95.7678ZM107.783 25.0325V27.2224H114.525V25.0325H107.783ZM43.4749 29.2917V31.4816H50.2173V29.2917H43.4749ZM61.2536 29.2917V31.4816H67.9961V29.2917H61.2536ZM74.5575 29.2917V31.4816H81.731C81.731 30.447 81.3042 29.2917 81.3042 29.2917H74.5618H74.5575ZM87.7967 29.2917V31.4816H94.5391V29.2917H87.7967ZM97.2982 29.2917L98.0871 31.4816H104.295L105.093 29.2917H97.2939H97.2982ZM107.783 29.2917V31.4816H114.525V29.2917H107.783ZM39.1207 33.5509V35.7451H54.6922V33.5509H39.1207ZM56.7787 33.5509V35.7451H80.7524C81.2568 35.245 81.5457 33.5509 81.5457 33.5509H56.7787ZM83.4425 33.5509V35.7451H94.5391V33.5509H83.4425ZM98.8329 33.5509L99.6434 35.7451H102.803L103.566 33.5509H98.8329ZM107.783 33.5509V35.7451H119V33.5509H107.783ZM39.1207 37.81V40H54.6922V37.81H39.1207ZM56.7787 37.81V39.9957H73.6996C76.7001 39.9957 78.9677 37.81 78.9677 37.81H56.7787ZM83.4425 37.81V40H94.5391V37.81H83.4425ZM100.372 37.81L101.152 39.9914H101.286L102.079 37.81H100.368H100.372ZM107.783 37.81V40H119V37.81H107.783Z" fill="white"/>
</g>
<defs>
<clipPath id="clip0_502_1226">
<rect width="80" height="32" fill="white" transform="translate(39 8)"/>
</clipPath>
</defs>
</svg>
