<svg width="158" height="48" viewBox="0 0 158 48" fill="none" xmlns="http://www.w3.org/2000/svg">
<path d="M79.2643 27.6278L75.8347 25.6067L75.5897 26.0048C74.8242 27.2297 73.7524 27.8421 72.4356 27.8421C70.1696 27.8421 68.4854 26.1273 68.4854 23.8919C68.4854 21.6259 70.2002 19.9416 72.4356 19.9416C73.783 19.9416 74.7629 20.5235 75.5897 21.779L75.8347 22.177L79.2643 20.156L78.9581 19.7273C77.3045 17.3388 75.1916 16.2057 72.405 16.2057C67.1687 16.2057 64.3514 20.1866 64.3514 23.9225C64.3514 27.6584 67.1687 31.6392 72.405 31.6392C75.0691 31.6392 77.5801 30.2919 78.9581 28.0871L79.2643 27.6278Z" fill="white"/>
<path d="M79.0806 31.578H83.7964L85.205 28.0871H92.2787L93.6873 31.578H98.4337L89.9821 11.1531H85.7562L86.8892 13.8785L79.0806 31.578ZM88.7878 19.2067L90.6864 24.0143H86.828L88.7878 19.2067Z" fill="white"/>
<path d="M100.394 31.6086H104.528V22.422H107.222V18.5636H104.528V16.7569C104.528 15.9608 105.048 15.134 106.028 15.134C106.549 15.134 106.885 15.2259 107.192 15.3483L107.651 15.5321L109.366 11.7656L108.906 11.6124C108.141 11.3062 107.069 11.1837 106.304 11.1837C104.436 11.1837 102.874 11.7962 101.833 12.9598C100.914 13.9703 100.394 15.379 100.394 16.9407V18.5943H98.5562V22.4526H100.394V31.6086Z" fill="white"/>
<path d="M58.0739 19.8191V31.578H62.5753V11.0306L53.7256 17.7062L44.8452 11.0306V31.5474L49.3466 31.578V19.8191L53.7256 23.0651L58.0739 19.8191Z" fill="white"/>
<path d="M116.562 16.2057C111.356 16.2057 108.539 20.156 108.539 23.8919C108.539 27.6278 111.356 31.578 116.562 31.578C118.95 31.5473 121.186 30.4756 122.931 28.4852L119.563 26.6479C118.705 27.5359 117.634 27.9952 116.47 27.9952C114.755 27.9952 113.255 26.8622 112.857 25.3617H124.126V24.3512C124.156 18.7474 119.716 16.2364 116.562 16.2057ZM112.949 22.0239C113.5 20.6153 114.663 19.8191 116.164 19.8191C117.695 19.8191 118.889 20.6153 119.502 22.0546L112.949 22.0239Z" fill="white"/>
<path d="M133.496 16.2364C128.29 16.2364 125.473 20.1866 125.473 23.9225C125.473 27.6584 128.29 31.6086 133.496 31.6086C135.884 31.5779 138.12 30.5062 139.865 28.5158L136.497 26.6785C135.639 27.5665 134.568 28.0258 133.404 28.0258C131.689 28.0258 130.189 26.8928 129.791 25.3923H141.06V24.3818C141.09 18.778 136.65 16.2364 133.496 16.2364ZM129.883 22.0239C130.434 20.6153 131.597 19.7885 133.098 19.8191C134.629 19.8191 135.823 20.6153 136.436 22.0545L129.883 22.0239Z" fill="white"/>
<path d="M140.539 15.532H142.284V15.8689H141.58V17.7062H141.213V15.8689H140.539V15.532Z" fill="white"/>
<path d="M142.56 15.532H143.081L143.693 17.2162L144.275 15.532H144.795V17.7062H144.428V16.022L143.816 17.7062H143.509L142.897 16.022V17.7062H142.529V15.532H142.56Z" fill="white"/>
<path d="M25.0022 16.1445L13.8864 11V31.4555L25.0022 36.6V31.578L18.449 28.5464V18.1349L25.0022 21.1665V16.1445Z" fill="white"/>
<path d="M25.0022 16.1445L36.1486 11V31.4555L25.0022 36.6V31.578L31.5859 28.5464V18.1349L25.0022 21.1665V16.1445Z" fill="white"/>
</svg>
