<?xml version="1.0" encoding="UTF-8"?>
<svg width="158px" height="48px" viewBox="0 0 158 48" version="1.1" xmlns="http://www.w3.org/2000/svg" xmlns:xlink="http://www.w3.org/1999/xlink">
    <title>Group 58</title>
    <g id="Work-file-(ignore)" stroke="none" stroke-width="1" fill="none" fill-rule="evenodd">
        <g id="Group-58">
            <rect id="Rectangle-Copy-34" x="0" y="0" width="158" height="48"></rect>
            <g id="Group-50" transform="translate(17, 7)" fill-rule="nonzero">
                <path d="M8.02927645,0 L8.96257006,1.62201876 C9.1657531,1.91460575 9.40228213,2.18622929 9.66810579,2.43223692 C10.4498462,3.15462869 11.1939124,3.91183452 11.8600614,4.7228439 C13.4423794,6.64315587 14.5101016,8.77551712 15.2730049,11.0843224 C15.7302331,12.4942919 15.9785406,13.9390754 15.9973777,15.401266 C16.0744387,19.7712219 14.452734,23.5240194 11.1733628,26.6430428 C10.6420073,27.1374535 10.0681655,27.591258 9.45747255,28 C9.13210413,28 8.98055095,27.7626314 8.84697865,27.5592856 C8.59010885,27.1636713 8.44626176,26.7308692 8.37005705,26.2909461 C8.25532187,25.7624053 8.17911716,25.2338646 8.21764764,24.6871256 L8.21764764,24.4402622 C8.19881052,24.3872499 7.9128288,0.1242229 8.02670775,0.000791228665 L8.02927645,0 Z" id="Path" fill="#E6E6E6"></path>
                <path d="M7.78176795,0.0357788555 C7.74310479,-0.036973228 7.70444164,0.0179950128 7.66663766,0.0535626981 C7.68553965,0.413281333 7.55150737,0.737432283 7.34014877,1.04379939 C7.11074736,1.35097485 6.80401964,1.58378152 6.49815111,1.83598874 C4.79525379,3.22232011 3.45664934,4.89642639 2.38439109,6.76858 C0.968460324,9.28903552 0.222690964,11.9889462 0.0130507294,14.8335526 C-0.0814592125,15.8601654 0.356723245,19.478369 0.702114124,20.5219572 C1.63862173,23.2946199 3.32261706,25.6162198 5.51352935,27.6322608 C6.04965847,28.1172747 6.62359157,28.5683376 7.21642666,29 C7.38826292,29 7.40802409,28.8561125 7.44582807,28.7477928 C7.5212156,28.5178891 7.57864727,28.2831101 7.61766433,28.045331 C7.78950058,27.1456302 7.88572889,26.2451211 8,25.3454203 L7.78950058,0.0357788555 L7.78176795,0.0357788555 Z" id="Path" fill="#FFFFFF"></path>
                <path d="M9.73599803,29.8264723 C9.78040957,29.4230845 10.032075,29.0898168 10.2857143,28.7565491 C10.0222058,28.6698838 9.8238342,28.4934016 9.66987417,28.2995864 C9.53762645,28.1238921 9.42807797,27.9056529 9.3402418,27.7205042 C9.03232174,26.9838487 8.96521095,26.2117392 8.87836171,25.4569628 L8.87836171,25 C8.76980015,25.070908 8.74611399,25.6665354 8.74611399,25.7547764 C8.67999013,26.5615521 8.54872934,27.3517825 8.35134468,28.1231042 C8.28522082,28.4382509 8.24278312,28.7549734 8,29.035454 C8,29.070908 8,29.106362 8.02171231,29.1583612 C8.41648162,30.0880441 8.52701702,31.0358479 8.59412781,32.0009848 L8.59412781,32.3515856 C8.59412781,32.7723065 8.57241549,32.6848533 9.01159635,32.8243057 C9.18726869,32.8770928 9.38662719,32.8952137 9.56131261,33 C9.69356033,33 9.71527264,32.9133346 9.71527264,32.8424266 L9.64914878,32.2633445 L9.64914878,30.6482175 C9.62743647,30.3677369 9.69356033,30.0864684 9.73797187,29.8233209 L9.73599803,29.8264723 Z" id="Path" fill="#C2BFBF"></path>
            </g>
            <g id="Group" transform="translate(42, 16)" fill="#FFFFFF" fill-rule="nonzero">
                <path d="M3.66158862,10.5567634 L3.66158862,13.1352941 C3.65874919,13.2374033 3.66447763,13.3395725 3.67871193,13.4406955 C3.71173545,13.7460968 3.89642254,13.9323171 4.16794926,14.0179784 C4.42128881,14.0856788 4.67867508,14.1366854 4.93849806,14.1706791 C5.08893854,14.1880597 5.13908536,14.255099 5.15620867,14.4189729 C5.17333198,14.9962559 5.12318515,15.0645367 4.57157006,15.0297755 C3.28487588,14.9614947 1.99695861,14.9453556 0.710264428,15.0297755 L0.587955095,15.0297755 C0.186780484,15.0471561 0.153756964,15.012395 0.153756964,14.6051932 C0.153756964,14.5369124 0.170880271,14.4524925 0.170880271,14.3842117 C0.170880271,14.2600649 0.254050617,14.1979914 0.371467576,14.1979914 C0.640548108,14.1644718 0.890059147,14.096191 1.14201637,14.0452908 C1.49304416,13.9608709 1.69240837,13.7398894 1.72665498,13.3835879 C1.77557872,12.9937667 1.77557872,12.5865649 1.77557872,12.1955022 L1.79270202,7.64924345 C1.80396018,7.380068 1.66098671,7.12852411 1.42577402,7.00367967 C1.12330305,6.83313911 0.80340676,6.69659761 0.471761229,6.5964779 C0.371467576,6.56295824 0.271173923,6.54681915 0.188003577,6.49467746 C-0.056615088,6.37549645 -0.0627305547,6.15575647 0.170880271,6.01919491 C0.254050617,5.96953615 0.35434427,5.93477503 0.454637922,5.91739446 C1.46900405,5.76544267 2.46560709,5.50963711 3.42920089,5.15389115 C3.6297882,5.08561036 3.67993502,5.10423239 3.69828142,5.30659181 C3.71540473,5.43073869 3.69828142,5.57971495 3.68115812,5.69641302 C3.6481346,5.91739446 3.6481346,6.13713444 3.6481346,6.3419768 C3.6481346,6.42639668 3.6652579,6.51205802 3.74842825,6.56295824 C3.8315986,6.61385847 3.91599204,6.56295824 3.99304692,6.51329949 C4.3440747,6.24017635 4.69510249,5.98691672 5.07915379,5.76841821 C5.62954579,5.46301688 6.21663058,5.19113521 6.85263911,5.10671533 C7.62318791,5.00491489 8.28977377,5.20851577 8.87563548,5.71751798 C9.11786777,5.93757575 9.33121278,6.18834011 9.51042091,6.46364074 C9.6779847,6.7119345 9.69388491,6.71814185 9.91159552,6.54806062 C10.5476041,6.07257806 11.215413,5.6492372 11.9345919,5.34383587 C12.6867943,5.02105398 13.45612,4.97139523 14.2242226,5.24203543 C15.0094485,5.53005619 15.5451634,6.08995863 15.8631677,6.85346195 C16.1322482,7.4642646 16.247219,8.09493076 16.247219,8.75290922 L16.247219,13.299168 C16.247219,13.6045693 16.3695283,13.7957555 16.6655169,13.9447318 C16.9835211,14.0688787 17.3345489,14.1309521 17.6684534,14.1992329 C17.886164,14.2488916 17.886164,14.2488916 17.886164,14.472356 C17.8531405,15.031017 17.8029937,15.0657781 17.2672788,15.031017 C15.9257829,14.9546922 14.5811283,14.9546922 13.2396325,15.031017 C12.9705519,15.0483976 12.9705519,15.0483976 12.9558748,14.7765159 L12.9558748,14.692096 C12.9387515,14.2327526 12.9387515,14.2327526 13.3741727,14.133435 L13.8083709,14.014254 C14.111171,13.9419225 14.3256197,13.6682942 14.3269624,13.3525512 L14.3758862,12.0800456 L14.3428626,8.75539216 C14.3300383,8.45854365 14.2680149,8.166012 14.1593986,7.8900884 C13.7411007,6.85470341 12.8225576,6.48226277 11.935815,6.58406321 C11.2667829,6.652344 10.6821443,6.9229842 10.1305292,7.31404687 C10.0131123,7.39846675 9.92994192,7.5002672 9.94706523,7.67034842 C10.0975057,8.75663363 9.99598896,9.84291884 10.0143354,10.9279626 L10.0143354,13.2867533 C10.0143354,13.7113357 10.1818991,13.9149365 10.5830738,14.016737 L11.3536226,14.1868182 C11.4710395,14.2041988 11.5370866,14.255099 11.5370866,14.3904191 L11.5370866,14.514566 C11.5199632,14.9900485 11.4881628,15.0111535 11.018495,15.0061876 C9.68165398,14.9379068 8.34358988,14.9565289 7.02387218,15.0061876 C6.57132765,15.0235682 6.53463485,14.972668 6.55542744,14.5096001 C6.57255074,14.236477 6.60435117,14.2215793 6.85630839,14.1706791 L7.40670039,14.0688787 C7.89593772,13.9670782 8.07573244,13.7808579 8.10875596,13.2544751 L8.15767969,12.1172897 L8.12465617,8.70697488 C8.09163265,8.28239255 8.00234684,7.87519078 7.77362839,7.48536957 C7.43972391,6.85718635 6.91746306,6.53564593 6.20195346,6.5008848 C5.48277459,6.45122605 4.84798915,6.72186625 4.24500414,7.05954577 C3.82670622,7.30783953 3.64324222,7.60206764 3.67626574,8.09493076 L3.67626574,10.571661 L3.66158862,10.5567634 Z M35.1525725,10.6598053 L35.1525725,13.0521157 C35.1552533,13.2222342 35.1662748,13.3921118 35.185596,13.5611179 C35.2002791,13.7925259 35.3637582,13.9862855 35.5867706,14.0366005 C35.8751682,14.1219325 36.1723098,14.1731722 36.4722902,14.1893011 C36.639854,14.2066817 36.6728775,14.273721 36.6900008,14.4102826 L36.6900008,14.5294636 C36.6728775,15.1228857 36.6068305,15.1911665 36.0380921,15.1576468 C34.766075,15.0732269 33.4977272,15.089366 32.2269333,15.1576468 L31.7376959,15.1750274 C31.6374023,15.1750274 31.6153866,15.1253686 31.5872555,15.0558464 C31.5384103,14.8208991 31.5384103,14.5781906 31.5872555,14.3432433 C31.6043788,14.2414428 31.6704258,14.2190964 31.7707195,14.1905426 C32.0153381,14.157023 32.223264,14.1061227 32.4556517,14.0663957 C32.8739496,13.9645953 33.0243901,13.7932726 33.0402903,13.3537926 L33.0892141,11.9285864 L33.0892141,7.7547683 C33.0892141,7.44936697 32.9717971,7.26314665 32.7051628,7.12658508 C32.4042818,6.95650386 32.0862775,6.83856432 31.75115,6.71938331 C31.6508563,6.68586366 31.5505627,6.65110253 31.4673923,6.60020231 C31.2496817,6.44750165 31.2227736,6.22776167 31.4343688,6.05768044 C31.5292531,5.97850387 31.6458144,5.93083218 31.7682733,5.92111887 C32.8384799,5.75103764 33.87444,5.5139171 34.8773765,5.10671533 C34.9947935,5.05705658 35.0449403,5.08933477 35.0950871,5.19113521 C35.1452339,5.29293565 35.1623573,5.41211666 35.1440109,5.53005619 L35.0950871,6.32707917 C35.0950871,6.42887961 35.0461634,6.57537293 35.1281106,6.61509993 C35.2284043,6.68338072 35.2956744,6.53068006 35.3788448,6.49095305 C35.872381,6.07073576 36.417537,5.71727846 37.0006665,5.43942897 C37.5192581,5.19113521 38.0525268,5.0322272 38.6555118,5.06698833 C39.7758653,5.13526911 40.5782145,5.71255211 41.095583,6.71317597 C41.3646635,7.23955875 41.4796343,7.81560027 41.5297811,8.41026383 L41.5787048,9.65173264 L41.5958281,13.4009684 C41.6129515,13.6889892 41.7132451,13.876451 41.9970028,13.9782514 C42.2911657,14.0777595 42.5931354,14.1516865 42.8996456,14.1992329 C43.1687262,14.2327526 43.1834033,14.2836528 43.2005266,14.5381539 L43.2005266,14.6225738 C43.1675031,15.1998568 43.1332565,15.2159958 42.5645181,15.1812347 C41.3174505,15.1133756 40.0676969,15.1133756 38.8206294,15.1812347 C38.6530656,15.1986153 38.4867249,15.1812347 38.3313921,15.1986153 C38.2310984,15.1986153 38.1638283,15.1812347 38.1479281,15.0794343 C38.1149045,14.8584528 38.0806579,14.6387129 38.1308048,14.4003508 C38.1479281,14.2985504 38.1980749,14.2476502 38.3142688,14.2302696 L39.0848176,14.1061227 C39.3538981,14.0378419 39.5031155,13.857829 39.5373621,13.6095352 L39.5703856,13.1340527 L39.5532623,9.58841773 C39.5532623,9.18121596 39.536139,8.77401419 39.4529686,8.36681242 C39.2523813,7.49778426 38.6004726,6.87704985 37.7161761,6.79014704 C36.9456273,6.70572716 36.2484641,6.90932804 35.6100094,7.33266891 C35.2920051,7.53626979 35.1574649,7.82429056 35.1574649,8.1805921 L35.1574649,10.7429837 C35.1574649,10.693325 35.1574649,10.693325 35.1745882,10.693325 L35.1525725,10.6598053 Z" id="Shape"></path>
                <path d="M84.108106,5.85780396 C83.924642,4.61881809 83.4720975,3.51639379 82.6868716,2.54928958 C82.002678,1.6949363 81.1171322,1.02965923 80.1122601,0.615081177 C79.0603998,0.174359749 77.9388233,0.0377981803 76.8025696,0.00427852242 C76.3341248,-0.0131020409 69.9495776,0.0886984015 69.4811329,0.00427852242 C69.3637159,-0.0131020409 69.2805456,0.0216590858 69.2120524,0.123459528 C69.128882,0.247606409 69.0444886,0.377960634 68.9943418,0.513280734 C68.7937545,0.972624194 68.7937545,0.937863067 69.2780994,1.00490238 C69.679274,1.07318317 70.0633253,1.10670283 70.4485997,1.22588383 C70.7996275,1.34506484 71.0503616,1.54866572 71.133532,1.93848693 C71.1665555,2.12470725 71.2008021,8.09617222 71.2008021,10.8795453 L71.133532,12.8658954 C71.1164087,13.0185961 71.1005085,13.1712967 71.0503616,13.3066168 C70.9830915,13.5102177 70.8668976,13.6790575 70.6663103,13.7659603 C70.4455805,13.8713702 70.2075716,13.9345021 69.9642548,13.9521806 C69.5117102,14.0018394 69.4456632,14.0204614 69.2952227,14.5294636 L69.246299,14.7156839 C69.2132755,14.9366654 69.2291757,14.970185 69.4468863,14.970185 L74.4444456,15.0198438 L76.4013949,14.9863241 L77.7553593,14.8162429 C79.2927876,14.5282221 80.6638752,13.8826583 81.8331524,12.8485148 C82.5011174,12.249737 83.0463882,11.5233169 83.4378509,10.7107055 C83.9062956,9.7609819 84.1068829,8.72435544 84.1570297,7.67407283 C84.2402001,7.08065074 84.2059535,6.46984808 84.108106,5.85904543 L84.108106,5.85780396 Z M81.683935,8.26625345 C81.6166649,9.35253866 81.4001774,10.4040627 80.8485623,11.3537864 C80.1465067,12.5927723 79.1435702,13.458076 77.7565824,13.7622359 C77.1548204,13.8863828 76.5530585,13.9484562 75.9219424,13.8640363 C75.4693978,13.8143776 75.0364228,13.7622359 74.6181249,13.6095352 C73.8659225,13.3364121 73.598065,12.8646539 73.5821648,12.1197726 L73.5650415,1.89006964 C73.5650415,1.27926699 73.8341221,1.14518836 74.2670971,1.12656633 C74.9190058,1.07690757 75.5880379,1.09304667 76.2399466,1.16008598 C76.933933,1.22821247 77.614978,1.39538946 78.262943,1.65667351 C78.7443096,1.86032471 79.1903084,2.14116602 79.5838838,2.48845761 C80.4865267,3.27058296 81.0882886,4.25134332 81.4185238,5.40590931 C81.6876043,6.33949386 81.736528,7.2892175 81.6876043,8.23894114 L81.683935,8.26625345 Z M98,9.92982166 C98,9.82802121 98,9.74360133 97.9828767,9.64180089 C97.8324362,8.70821635 97.3468682,7.99561325 96.5958889,7.45309138 C96.1115439,7.09678983 95.5599288,6.85966929 94.9911904,6.68958806 C94.8908968,6.65606841 94.8077264,6.62130728 94.7074328,6.60516818 C94.7245561,6.5207483 94.7747029,6.50336774 94.8248497,6.48598718 C95.1587542,6.31590595 95.4767585,6.12968563 95.7605161,5.87518452 C96.2791077,5.4344631 96.6166814,4.89069976 96.7964762,4.22899688 C96.8967698,3.87269533 96.8967698,3.51639379 96.8637463,3.14271167 C96.8085355,2.25720222 96.3593146,1.44531982 95.6430992,0.936621599 C94.8725504,0.359338602 93.9711306,0.122218059 93.0354642,0.104837496 C91.2301784,0.0713178381 89.4089925,0.104837496 87.6049298,0.104837496 C87.0863382,0.104837496 86.5689698,0.138357154 86.0332549,0.0551787436 C85.9329612,0.0377981803 85.7886362,0.00551999123 85.7152506,0.123459528 C85.5929413,0.344440976 85.4461701,0.564180956 85.3972464,0.818682062 C85.3801231,0.937863067 85.4143697,1.00490238 85.5476868,1.02228295 L86.7010638,1.19236417 C87.1536084,1.26064496 87.4716126,1.51514606 87.5034131,1.92234783 C87.5362014,2.20376043 87.552538,2.48689737 87.5523368,2.77027103 L87.5193133,5.94222384 L87.50219,12.2190901 C87.50219,12.5915308 87.4532662,12.9490738 87.384773,13.3215144 C87.3511402,13.5630375 87.1812646,13.7621795 86.9505749,13.8305167 C86.6166704,13.9323171 86.2986661,14.0341175 85.9476384,14.0341175 C85.7544223,14.0155162 85.5742231,14.1350494 85.5134402,14.3221383 C85.4461701,14.474839 85.3911309,14.6449202 85.3629997,14.7976209 C85.3299762,15.0012217 85.3801231,15.070744 85.5807104,15.0459146 C85.7311508,15.0285341 91.2473017,15.1650956 92.2832618,15.0632952 C92.902147,14.9950144 93.5063551,14.9105945 94.1215711,14.7243742 C95.1734313,14.3854532 96.1445674,13.8925901 96.91267,13.060806 C97.5486786,12.3817226 97.9156066,11.567319 97.9486301,10.6175954 C97.9975538,10.3966139 97.9975538,10.1768739 97.9975538,9.93851194 L98,9.92982166 Z M89.8933374,2.97759632 L89.9422612,1.62067091 C89.9422612,1.36616981 90.0425548,1.24823027 90.2932889,1.19608858 C90.6944636,1.1116687 91.0956382,1.14642983 91.4968128,1.16256892 C91.8979874,1.19608858 92.2820387,1.2469888 92.6832133,1.36616981 C93.4170693,1.58715125 93.9870308,2.01173359 94.3221584,2.72309522 C94.4741979,3.04655018 94.5539685,3.40010111 94.5557692,3.7584802 C94.5728925,4.23396276 94.5386459,4.69206475 94.3551819,5.14892527 C94.0714242,5.77710849 93.6213259,6.18431026 92.9681941,6.30349126 C92.3150622,6.42267227 90.4608527,6.37177205 90.1770951,6.37177205 C89.926361,6.37177205 89.9080146,6.33825239 89.9080146,6.08375128 L89.9080146,4.48598093 C89.8687096,3.98913312 89.8629884,3.49013564 89.8908912,2.99249395 L89.8933374,2.97759632 Z M95.3238718,12.104875 C95.0401141,12.8683783 94.5215226,13.3960026 93.7864435,13.6815404 C93.3852689,13.8342411 92.9840943,13.9298342 92.5633502,13.9025218 C92.0447586,13.8851413 91.5273901,13.9025218 91.0100216,13.8007214 C90.3079661,13.6480207 89.9899618,12.9689373 89.939815,12.4773157 C89.8566446,11.6120119 89.9067915,10.7293276 89.8908912,10.0850053 L89.8908912,7.84539552 C89.8908912,7.57227239 89.9239148,7.48909398 90.2088955,7.48909398 L91.7805704,7.50647454 L92.8507771,7.63062142 C93.6029795,7.80070265 94.2879118,8.08996488 94.8236266,8.6821455 C95.2578248,9.15762806 95.4926587,9.73366958 95.5428055,10.3618528 C95.5917292,10.9552749 95.5599288,11.5325579 95.3422182,12.0924603 L95.3238718,12.104875 Z" id="Shape"></path>
                <path d="M52.8544022,6.99374792 L53.2886004,7.06202871 C53.7570451,7.07940927 54.3086602,6.90932804 54.4750009,6.24762517 C54.5667415,5.93155922 54.5667415,5.59534544 54.4750009,5.2792795 C54.3747072,5.2792795 54.3245604,5.36369937 54.2744136,5.3984605 C54.0236794,5.60206139 53.7399218,5.72124239 53.4390408,5.75476205 C52.8372789,5.82304283 52.235517,5.78828171 51.6508784,5.56854173 L50.8314059,5.28052096 C50.2598614,5.09053575 49.6583937,5.01053866 49.0579205,5.04464189 C48.2054245,5.11292267 47.4030753,5.40094344 46.6508729,5.80814521 C45.8485236,6.24886664 45.2810083,6.91056951 45.0119278,7.8106344 C44.8614873,8.33701717 44.844364,8.87829757 44.9116342,9.42206091 C45.0791979,10.6610468 45.7139834,11.5263505 46.8502371,11.9844525 C46.9175072,12.0018331 46.967654,12.0341113 47.0337011,12.0527333 C47.1841416,12.1371532 47.2012649,12.2228145 47.0667246,12.3407541 L46.6484267,12.6287748 L45.6454902,13.2569581 C45.394756,13.4096587 45.3617325,13.5300812 45.4449028,13.7994799 C45.5443827,14.1164118 45.729583,14.398601 45.9793946,14.6138835 C46.208758,14.8136453 46.4685885,14.9742338 46.7487203,15.089366 C46.9321843,15.1737859 46.9321843,15.2135129 46.7658436,15.3624892 L45.8118308,16.0577117 C45.4938266,16.3060055 45.1758223,16.5542992 44.909188,16.8721152 C44.5325869,17.2811568 44.3820749,17.8540564 44.5080134,18.3991219 C44.6323181,18.988056 44.9361476,19.5223163 45.3764096,19.9261285 C45.8110856,20.3346495 46.3396433,20.6261599 46.9138379,20.7740517 C47.8495043,21.0471748 48.8194173,21.0620725 49.772207,20.8758522 C51.1420716,20.621351 52.340703,20.006824 53.2824849,18.9590243 C53.9343936,18.2638018 54.3184449,17.4493982 54.3526915,16.4760867 C54.4280471,15.3136561 53.6645839,14.2662361 52.5474058,13.9993564 L51.6447629,13.8292752 L48.8866875,13.5809814 C48.5858065,13.5636009 48.2849256,13.5127006 48.0341914,13.36 C47.7161872,13.1563991 47.6330168,12.7665779 47.8336041,12.5120768 C47.9840446,12.3258565 48.1675086,12.2066755 48.4023425,12.1892949 L48.9368343,12.1396361 C49.9938545,12.0304865 50.9861903,11.5715774 51.7609568,10.8336109 C52.1746605,10.4449572 52.470421,9.94447366 52.6134528,9.39102419 C52.8140401,8.66104053 52.8140401,7.90126162 52.6464764,7.15638034 C52.5975526,6.97016001 52.6134528,6.95277945 52.8470637,6.98629911 L52.8544022,6.99374792 Z M48.7570396,15.4444261 C48.8573332,15.4618067 48.9576269,15.4444261 49.0579205,15.4444261 C49.7599761,15.4779458 50.479155,15.528846 51.1640872,15.7175492 C51.3877201,15.7846276 51.6057164,15.869732 51.815996,15.9720504 C52.485028,16.344491 52.7357622,16.9900548 52.6513687,17.6852773 C52.5510751,18.4487806 52.1327772,18.9913025 51.4808684,19.3488455 C51.0466703,19.5971393 50.5611022,19.7051471 50.059634,19.7560473 C49.87617,19.7734278 49.7086062,19.7560473 49.5251422,19.7560473 C48.9405036,19.7734278 48.3717652,19.7063885 47.8201501,19.4680265 C47.4360988,19.3153259 47.1180945,19.0955859 46.8343369,18.7889431 C46.2496983,18.195521 45.9781715,17.1092358 46.8514602,16.2265515 C47.385952,15.7299639 47.988937,15.3786283 48.7570396,15.4444261 L48.7570396,15.4444261 Z M50.662619,10.1508031 C50.3115912,11.0496265 49.5422655,11.3215082 48.7741629,11.2023272 C48.0721073,11.1005267 47.5535157,10.7107055 47.2208344,10.0651418 C46.7866362,9.199838 46.6704424,8.30225605 46.9199534,7.36743003 C47.1034174,6.6722075 47.5217153,6.14582472 48.2567944,6.02664372 C49.1924608,5.85656249 50.0914344,6.19672495 50.5635484,7.14644858 C50.8081671,7.60579204 50.9145762,8.16445301 50.9145762,8.96147598 C50.8974529,9.28425788 50.8314059,9.7249793 50.6638421,10.1495616 L50.662619,10.1508031 Z M29.6033981,8.99623711 C29.4529576,8.08003313 29.1190531,7.24824903 28.5001679,6.55302649 C27.5804017,5.51764151 26.4111245,5.06326392 25.0901837,5.05953952 C23.9368067,5.04215895 22.8519229,5.38232141 21.8807868,5.99312406 C20.9260714,6.57302686 20.2262775,7.5018905 19.9250606,8.58903534 C19.6413029,9.57352011 19.6559801,10.5753854 19.8761369,11.5747678 C20.4607755,14.2563405 22.5008951,15.4084235 24.9397432,15.2395838 C25.6589221,15.189925 26.3438544,14.951563 26.99454,14.6287811 C27.964453,14.1694376 28.6665086,13.4406955 29.1508536,12.4735912 C29.5349049,11.6765683 29.7012455,10.8274036 29.6853453,9.8602994 L29.602175,8.99499564 L29.6033981,8.99623711 Z M27.230597,12.7628535 C26.9863248,13.5428902 26.3104185,14.1022637 25.5084816,14.1880597 C24.7746256,14.2898601 24.0872472,14.1036398 23.469585,13.6616769 C23.0236785,13.3287388 22.6626216,12.8924516 22.4165017,12.3891714 C21.7315694,10.9639652 21.6141525,9.47171967 21.9639572,7.94471303 C22.0765715,7.47212679 22.320199,7.04217359 22.6660127,6.70572716 C23.284898,6.12844416 24.0028537,5.99312406 24.8064261,6.16320529 C25.5769749,6.33328651 26.1603904,6.75662738 26.641066,7.40219116 C27.1217417,8.04775494 27.3431216,8.79263623 27.4764388,9.57476158 C27.5437089,9.96458278 27.5437089,10.3717846 27.5596091,10.6262857 C27.5596091,11.4406892 27.492339,12.1160482 27.2416049,12.7640949 L27.230597,12.7628535 Z M66.1249648,9.13279868 C66.0026555,8.14831391 65.6406199,7.2494905 64.9544645,6.50336774 C64.0518216,5.50274388 62.8813213,5.07816155 61.5787269,5.06078098 C60.4583734,5.04340042 59.4224134,5.36618231 58.4696237,5.92608474 C57.399417,6.57164853 56.6643379,7.48661104 56.3805803,8.72559691 C56.0417136,10.0773093 56.1837844,11.5070511 56.7817549,12.7628535 C57.3321469,13.9509391 58.2690364,14.7144424 59.5068068,15.0533634 C60.8766714,15.4258041 62.1817119,15.2569643 63.4512828,14.6287811 C64.554513,14.0862592 65.3397389,13.238336 65.7910603,12.08377 C66.0601409,11.4046866 66.1579883,10.6759444 66.1751116,9.82677975 C66.1922349,9.67407908 66.1579883,9.40219741 66.1261879,9.13155721 L66.1249648,9.13279868 Z M63.8182108,12.5431135 C63.5491303,13.4593175 62.9828381,14.0527396 62.0300484,14.1893011 C61.3279928,14.2911016 60.6601838,14.1210204 60.0571988,13.7138186 C59.5386073,13.357517 59.1716793,12.8820345 58.9038218,12.3233735 C58.6029409,11.7299514 58.4353771,11.1017682 58.36933,10.4574459 C58.2690364,9.66042292 58.2690364,8.88078051 58.4525004,8.08251607 C58.4874804,7.92510789 58.5378779,7.77164398 58.6029409,7.62441408 C59.0713856,6.43632843 60.1073456,5.89380656 61.3279928,6.16568823 C62.1474653,6.35190855 62.7651274,6.81125201 63.2335722,7.50647454 C63.6861167,8.18555798 63.9026042,8.93168073 64.004121,9.7411184 C64.0530447,10.0639003 64.0713911,10.4028213 64.0530447,10.690842 C64.0530447,11.3525449 64.004121,11.9633476 63.8084261,12.5567697 L63.8182108,12.5431135 Z" id="Shape"></path>
            </g>
        </g>
    </g>
</svg>