<?xml version="1.0" encoding="UTF-8"?>
<svg width="158px" height="48px" viewBox="0 0 158 48" version="1.1" xmlns="http://www.w3.org/2000/svg" xmlns:xlink="http://www.w3.org/1999/xlink">
    <title>Group 62</title>
    <g id="Work-file-(ignore)" stroke="none" stroke-width="1" fill="none" fill-rule="evenodd">
        <g id="Group-62">
            <rect id="Rectangle-Copy-38" x="0" y="0" width="158" height="48"></rect>
            <text id="MQTT" font-family="Poppins-SemiBold, Poppins" font-size="16" font-weight="500" fill="#FFFFFF">
                <tspan x="55" y="31">MQTT</tspan>
            </text>
            <g id="Simpleicons-Team-Simple-Mqtt" transform="translate(8, 7)" fill="#FFFFFF" fill-rule="nonzero">
                <path d="M15.985491,36 L1.81049899,36 C0.812877294,35.9958947 0.00493032382,35.1882465 0,34.1901705 L0,20.4138564 L0.10649994,20.4138564 C8.78249508,20.4138564 15.8624911,27.3920547 15.985491,36 Z M27.3944846,36 L21.326988,36 C21.2024881,24.3726708 11.6924934,14.9648589 0,14.9123348 L0,9.05364959 L0.10649994,9.05364959 C15.0809915,9.05364959 27.2879847,21.1251824 27.3944846,36 L27.3944846,36 Z M34.1894808,36 L32.7344817,36 C32.6309817,18.1072992 17.9924899,3.60465213 0,3.55212806 L0,1.81133019 C0,0.817874859 0.815999543,0.00150068782 1.81049899,0.00150068782 L13.2704926,0.00150068782 C23.5994868,3.72920922 31.8854821,11.681354 35.9999798,21.7644754 L35.9999798,34.2066781 C35.9999798,35.2016341 35.1839803,36 34.1894808,36 Z M25.0694859,0.00150068782 L34.2074808,0.00150068782 C34.6832318,-0.000501904183 35.1400969,0.187587329 35.4766474,0.524010547 C35.8131979,0.860433764 36.0015832,1.31735109 35.99999,1.79332194 L35.99999,10.6683897 C34.6349806,8.80453541 32.9309815,6.69156697 31.2629825,5.02280212 C29.3819835,3.15894785 27.1829848,1.47367543 25.0709859,0 L25.0694859,0.00150068782 Z" id="Shape"></path>
            </g>
        </g>
    </g>
</svg>