<svg width="158" height="48" viewBox="0 0 158 48" fill="none" xmlns="http://www.w3.org/2000/svg">
<g clip-path="url(#clip0_502_1235)">
<mask id="mask0_502_1235" style="mask-type:luminance" maskUnits="userSpaceOnUse" x="25" y="9" width="108" height="31">
<path d="M133 9H25V40H133V9Z" fill="white"/>
</mask>
<g mask="url(#mask0_502_1235)">
<path d="M29.8929 9.35299C22.4356 11.2602 23.9512 15.9755 32.2685 16.75L33.5481 16.8712L35.4833 13.1569C37.345 9.59534 37.4026 9.43729 37.0303 9.27923C36.8153 9.18967 35.4465 9.0843 33.9939 9.04742C31.8175 8.99473 31.0938 9.04742 29.8929 9.35299Z" fill="white"/>
<path d="M25.0629 21.2809C25.0629 22.872 25.0892 24.1681 25.1154 24.1681C25.1416 24.1681 25.8863 24.4262 26.7673 24.7423C28.5871 25.3956 29.0538 25.3956 29.3842 24.7318C29.5153 24.4737 30.0764 23.3831 30.6323 22.3136C31.7022 20.2588 31.7074 20.0534 30.711 20.0481C30.1446 20.0481 27.2813 19.2631 26.0069 18.7626L25.0577 18.3938V21.2809H25.0629Z" fill="white"/>
<path fill-rule="evenodd" clip-rule="evenodd" d="M38.0372 16.2495C38.0687 16.1178 38.698 14.8533 39.4322 13.4308C40.1664 12.0136 40.8271 10.8493 40.9006 10.8493C41.4145 10.8493 42.2011 12.0715 42.2011 12.8776C42.2011 13.7575 41.7082 14.5267 40.7432 15.1589C39.6367 15.886 37.9638 16.5551 38.0424 16.2442L38.0372 16.2495ZM83.2111 17.1715C83.2111 15.7964 83.2636 14.611 83.3318 14.5425C83.3999 14.474 84.0555 14.416 84.7897 14.416H86.1269V29.4208H83.3947V28.3039L82.5609 28.9098C81.7637 29.484 81.6431 29.5156 80.0541 29.5156C78.6958 29.5156 78.2448 29.4366 77.6522 29.11C75.5336 27.9456 74.427 25.2323 75.0091 22.6455C75.4129 20.8647 76.3097 19.7162 77.8935 18.968C78.7168 18.5782 79.0734 18.5202 80.2744 18.5729C81.4491 18.6256 81.8162 18.7257 82.4507 19.1577L83.2111 19.674V17.1715ZM87.9886 22.2925C87.9624 18.4254 87.9886 15.0641 88.0411 14.827C88.1355 14.4213 88.2141 14.4002 89.5514 14.4529L90.9569 14.5056L91.0093 17.0819L91.0618 19.6582L91.8169 19.1419C92.5039 18.673 92.7294 18.6256 94.2293 18.6256C95.7292 18.6256 95.9756 18.6835 96.7308 19.1366C98.4981 20.2062 99.3215 21.7762 99.3215 24.0627C99.3215 26.3493 98.5348 27.8877 96.7046 29.0046C95.9756 29.4471 95.6977 29.5051 94.2136 29.5051C92.6246 29.5051 92.5039 29.4735 91.7068 28.8992L90.873 28.2933V29.4261L89.4623 29.3734L88.0516 29.3207L87.9991 22.2872L87.9886 22.2925ZM47.8492 22.5138C47.8492 18.7152 47.9016 15.5488 47.9698 15.4803C48.038 15.4118 48.6306 15.3591 49.2914 15.3591H50.4923L52.611 19.0629C53.7752 21.0965 54.8817 23.0406 55.0653 23.3725C55.2488 23.7097 55.4848 23.9573 55.5845 23.9205C55.6841 23.8888 56.8378 21.9658 58.1489 19.653L60.5298 15.4487L61.8461 15.396L63.1624 15.3433V29.4261H60.2518L60.2046 25.2745L60.1574 21.1229L58.1541 24.5738C56.1613 27.9983 56.1456 28.0246 55.511 28.0246C54.8765 28.0246 54.8503 27.9878 53.0148 24.853C51.9921 23.1091 51.0692 21.597 50.9643 21.4864C50.8332 21.3494 50.7755 22.519 50.7755 25.3588V29.4313H47.8597V22.5243L47.8492 22.5138ZM37.324 19.674C38.0477 19.5423 39.3797 19.163 40.2817 18.8258C41.1838 18.4886 41.9861 18.2041 42.0648 18.1936C42.1434 18.183 42.1854 19.537 42.1539 21.2072L42.1015 24.2418L41.0054 24.6844C39.1595 25.4273 36.5321 26.0331 34.555 26.1649L32.6723 26.2913L32.987 25.6538C33.1601 25.3008 33.91 23.8678 34.6494 22.4611L35.9972 19.9058L37.3187 19.6688L37.324 19.674ZM66.0153 24.2208C64.6046 20.7962 63.8337 18.7099 63.9595 18.6519C64.0696 18.6045 64.7357 18.5782 65.4384 18.5993C65.559 18.5993 65.6691 18.5993 65.7688 18.5993C66.0677 18.5993 66.2827 18.5993 66.461 18.6783C66.9068 18.8679 67.1637 19.5265 68.0448 21.7972C68.1654 22.1081 68.2965 22.4505 68.4433 22.8246C69.0936 24.4895 69.6757 25.854 69.7282 25.854C69.7806 25.854 70.1005 25.1586 70.4362 24.3051C71.8049 20.8068 72.6702 18.8205 72.8747 18.6835C73.116 18.5255 75.2556 18.4781 75.4025 18.6309C75.4549 18.6835 74.5634 21.028 73.4149 23.8362C72.2716 26.6443 71.1756 29.3628 70.9868 29.8739C70.0428 32.3712 68.6059 33.5513 66.5397 33.525C65.4908 33.5092 64.7514 33.3195 64.012 32.8664C63.6973 32.6767 63.7078 32.6083 64.1903 31.5967C64.5678 30.8064 64.7724 30.5588 64.9769 30.6536C65.129 30.7221 65.5695 30.8696 65.9523 30.9803C66.7494 31.2121 67.3525 30.9645 67.9347 30.1584L68.2755 29.6895L66.0153 24.2102V24.2208ZM99.8354 25.1059C99.3162 22.1871 100.821 19.653 103.627 18.7099C103.879 18.6256 104.823 18.5782 105.725 18.6045C107.141 18.6467 107.497 18.731 108.336 19.1999C109.396 19.7952 109.994 20.4274 110.607 21.6181C110.932 22.2451 111.006 22.7034 111.011 24.0785C111.011 25.6222 110.964 25.854 110.445 26.7971C109.354 28.7886 107.482 29.7264 104.917 29.5683C102.153 29.3997 100.302 27.777 99.8302 25.1059H99.8354ZM112.196 26.0753C112.196 22.0712 112.249 18.7362 112.317 18.6677C112.469 18.515 114.147 18.5097 114.703 18.6625C114.981 18.7415 115.112 18.9154 115.112 19.2209C115.112 19.7583 115.243 19.7794 115.736 19.321C116.297 18.7995 117.22 18.5413 118.463 18.5571C120.424 18.5834 121.956 19.4949 122.858 21.1808C123.361 22.1239 123.403 22.3452 123.403 24.0785C123.403 25.8119 123.361 26.0331 122.858 26.9762C122.297 28.0194 121.242 28.9519 120.157 29.3628C118.799 29.8792 116.507 29.5578 115.621 28.7306C115.311 28.4409 115.295 28.5357 115.295 30.896V33.3617H112.196V26.0753ZM124.525 23.794C123.167 22.1344 124.122 19.5687 126.377 18.8258C127.813 18.3516 131.421 18.6203 132.402 19.2684C132.607 19.4053 132.565 19.6266 132.177 20.5065C131.789 21.3758 131.637 21.5549 131.38 21.4443C129.764 20.7541 128.427 20.6224 127.41 21.0597C126.927 21.2651 126.78 21.4443 126.78 21.8025C126.78 22.4189 127.121 22.5875 129.208 23.0195C131.186 23.4305 131.836 23.7308 132.502 24.5421C133.147 25.3272 133.173 26.8076 132.565 27.7401C131.616 29.1837 130.252 29.6842 127.604 29.5525C125.296 29.4366 123.608 28.8413 123.796 28.2143C124.001 27.5294 124.599 26.4125 124.761 26.4125C124.845 26.4125 125.317 26.5969 125.805 26.8181C127.079 27.403 129.345 27.424 129.901 26.855C130.163 26.5811 130.252 26.3334 130.168 26.07C130.027 25.6117 129.906 25.5695 127.871 25.2007C125.92 24.853 125.139 24.5211 124.541 23.7887L124.525 23.794ZM77.9616 23.7887C78.0456 22.5717 78.5228 21.7551 79.4248 21.2809C80.6519 20.6382 82.3196 21.2599 82.9384 22.5928C83.3318 23.4463 83.2478 25.206 82.7811 25.9436C82.3511 26.6232 80.9876 27.2344 80.2377 27.0921C78.6434 26.7813 77.841 25.6117 77.9669 23.7887H77.9616ZM91.0513 24.0574C91.0513 22.7034 91.5128 21.8341 92.5144 21.302C93.7678 20.6329 95.4302 21.223 96.0438 22.5559C96.4371 23.4094 96.4214 24.8635 96.0071 25.6749C95.5456 26.5811 94.308 27.2344 93.3325 27.0816C91.8065 26.8445 91.0565 25.8435 91.0565 24.0627L91.0513 24.0574ZM104.241 26.7865C102.232 25.7855 102.237 22.2819 104.241 21.3389C105.101 20.9385 105.578 20.9016 106.296 21.1808C108.625 22.087 108.703 25.9278 106.422 26.913C105.604 27.266 105.148 27.2396 104.235 26.7865H104.241ZM115.28 24.7634C115.023 23.0775 115.579 21.8236 116.842 21.2441C117.55 20.9227 118.08 20.9174 118.814 21.2335C120.718 22.0501 121.138 24.9794 119.554 26.4125C117.949 27.8613 115.615 26.9604 115.28 24.7634ZM33.2964 29.2996C35.8346 29.268 38.1421 28.836 40.4653 27.9562C41.2677 27.6506 41.9861 27.3924 42.0648 27.3819C42.1434 27.3713 42.1854 28.7306 42.1539 30.406L42.1015 33.4512L41.0107 33.899C37.6754 35.2636 33.7894 35.722 30.5746 35.1424C29.5625 34.958 28.6395 34.7473 28.5137 34.6683C28.3511 34.5629 28.6762 33.7989 29.6674 31.9286L31.0466 29.3312L33.2964 29.3049V29.2996ZM76.7397 35.8115C76.6401 35.8168 76.53 35.6798 76.4933 35.5059C76.4566 35.311 76.5247 35.2267 76.6768 35.2794C76.96 35.3742 77.0124 35.7957 76.7397 35.8115ZM124.001 35.8326C123.901 35.7272 123.875 35.5481 123.948 35.4269C124.038 35.2794 124.142 35.2689 124.263 35.3953C124.363 35.5007 124.384 35.6798 124.316 35.801C124.226 35.9485 124.122 35.959 124.001 35.8326ZM75.4182 38.7566C75.2451 38.8146 75.1927 38.4089 75.1927 37.1287C75.1927 35.722 75.2399 35.4269 75.4706 35.4269C75.7014 35.4269 75.7433 35.6903 75.6961 37.0549C75.6594 38.1507 75.5703 38.7039 75.4182 38.7566ZM96.0543 38.5722C95.9861 38.5037 95.9914 37.7661 96.0648 36.9337C96.1382 36.1013 96.2693 35.4217 96.3585 35.4217C96.4476 35.4217 96.521 35.6693 96.521 35.9748C96.521 36.4964 96.5525 36.5228 97.1399 36.4227C98.2936 36.2277 98.9806 37.5817 98.1625 38.4247C97.8845 38.7092 97.6014 38.7882 96.9878 38.7461C96.542 38.7145 96.1225 38.6355 96.0595 38.567L96.0543 38.5722ZM68.0972 37.4869C67.2529 37.4869 66.6655 36.3911 67.2109 35.8273C67.4784 35.5534 69.1041 35.6113 69.0307 35.8906C69.0045 35.9959 68.6741 36.0802 68.3017 36.0802C67.7563 36.0802 67.62 36.1487 67.62 36.4385C67.62 36.6914 67.8403 36.8758 68.3752 37.0549C69.2195 37.3447 69.4555 37.8136 69.0464 38.4089C68.6793 38.9516 66.9802 38.9252 66.9802 38.3826C66.9802 38.2667 67.2372 38.2456 67.6305 38.3193C68.4066 38.4669 68.9311 38.156 68.6007 37.7398C68.4853 37.5976 68.2598 37.4816 68.092 37.4816L68.0972 37.4869ZM85.1882 38.2825C85.1515 37.998 85.1463 37.2814 85.1882 36.6861L85.2512 35.6061H86.064C86.9608 35.6061 87.8471 35.9907 88.0201 36.4596C88.5131 37.7767 87.6635 38.7935 86.0693 38.7935C85.3246 38.7935 85.2511 38.7514 85.1882 38.2772V38.2825ZM110.623 38.4142C109.05 39.6892 107.02 37.5607 108.384 36.0697C108.918 35.4849 109.946 35.4585 110.623 36.0065C111.011 36.3226 111.105 36.5544 111.105 37.2129C111.105 37.8715 111.011 38.1033 110.623 38.4194V38.4142ZM91.3659 36.4174C91.4918 36.37 91.5914 36.2119 91.5914 36.0644C91.5914 35.7114 91.8904 35.722 92.0215 36.0802C92.0792 36.233 92.2522 36.3594 92.4043 36.3594C92.8081 36.3594 92.7452 36.6756 92.3204 36.7915C91.8327 36.9232 91.8379 37.7451 92.3361 38.2508C92.7924 38.7197 92.6875 38.8883 92.0582 38.725C91.6491 38.6196 91.5914 38.5037 91.5914 37.803C91.5914 37.3605 91.4866 36.8863 91.3659 36.7493C91.1824 36.5491 91.1824 36.4859 91.3659 36.4174ZM121.809 36.4385C121.935 36.3805 122.034 36.2119 122.034 36.0644C122.034 35.9169 122.155 35.801 122.307 35.801C122.459 35.801 122.58 35.9274 122.58 36.0802C122.58 36.233 122.706 36.3594 122.852 36.3594C122.999 36.3594 123.125 36.4437 123.125 36.5491C123.125 36.6545 122.999 36.7388 122.852 36.7388C122.653 36.7388 122.58 36.9495 122.58 37.508C122.58 38.1191 122.653 38.2983 122.947 38.372C123.445 38.5037 123.408 38.804 122.894 38.804C122.281 38.804 122.04 38.4511 122.04 37.5607C122.04 37.1128 121.94 36.723 121.814 36.6598C121.63 36.5702 121.63 36.528 121.814 36.4385H121.809ZM85.5815 37.2235C85.5815 36.586 85.6654 36.1698 85.807 36.1118C86.1846 35.9538 87.1129 36.1909 87.3541 36.5122C87.632 36.8758 87.6478 37.3921 87.3908 37.8768C87.2492 38.1507 87.008 38.2403 86.3892 38.2403H85.5763V37.2235H85.5815ZM108.824 37.9769C108.247 37.3868 108.247 37.0286 108.814 36.449C109.333 35.9116 109.595 35.88 110.151 36.2804C110.607 36.6071 110.717 37.6871 110.329 38.0032C109.773 38.4616 109.291 38.4511 108.829 37.9769H108.824ZM70.8662 38.7988C69.8068 38.7988 69.2772 37.2656 70.1267 36.6545C70.5987 36.312 71.0602 36.2857 71.5637 36.5597C72.0776 36.8442 71.8102 37.1445 71.27 36.8916C70.9344 36.7335 70.7613 36.7388 70.5463 36.9232C69.8488 37.5185 70.5568 38.6829 71.3487 38.2456C71.5689 38.1244 71.742 38.1191 71.8101 38.2298C71.936 38.4405 71.3434 38.804 70.8662 38.804V38.7988ZM72.9272 36.8442C72.4867 36.9601 72.2979 36.7704 72.5758 36.4859C72.644 36.4174 72.9691 36.3594 73.2995 36.3594C74.0757 36.3594 74.5057 36.9811 74.4218 37.9874L74.3641 38.7039H73.4726C72.838 38.7039 72.5286 38.6144 72.387 38.3931C72.1196 37.9558 72.5339 37.4869 73.1894 37.4869C73.4726 37.4869 73.7505 37.4132 73.803 37.3183C73.9813 37.0233 73.4149 36.7124 72.9219 36.8389L72.9272 36.8442ZM76.7397 38.7988C76.5247 38.7988 76.467 38.5406 76.467 37.5817C76.467 36.6229 76.5247 36.3647 76.7397 36.3647C76.9548 36.3647 77.0124 36.6229 77.0124 37.5817C77.0124 38.5406 76.9548 38.7988 76.7397 38.7988ZM77.9721 38.7566C77.8043 38.8146 77.7466 38.509 77.7466 37.6239V36.4121L78.6382 36.3911C79.1468 36.3805 79.6083 36.4701 79.7132 36.6018C79.9807 36.9443 80.1642 37.9874 80.0279 38.4247C79.8234 39.0885 79.5716 38.8357 79.5716 37.9663C79.5716 37.3131 79.4877 37.0812 79.194 36.9232C78.6539 36.6281 78.3235 36.9759 78.2606 37.9137C78.2291 38.3351 78.1032 38.7145 77.9774 38.7566H77.9721ZM81.8739 38.5722C80.8145 38.6987 80.2377 37.5238 80.9614 36.7072C81.1869 36.4543 81.4858 36.3753 82.1466 36.4069L83.0328 36.449V37.803C83.0328 38.9884 82.9804 39.1939 82.629 39.4521C81.9892 39.9157 80.846 39.7893 80.846 39.2624C80.846 39.0727 80.9561 39.0464 81.255 39.1623C81.7427 39.352 82.4874 39.1096 82.4874 38.7566C82.4874 38.5828 82.2986 38.5301 81.8791 38.5775L81.8739 38.5722ZM89.1214 36.8494C88.6704 36.9653 88.4869 36.6598 88.9064 36.4859C89.3836 36.291 90.1231 36.3753 90.3958 36.6545C90.5741 36.8389 90.6842 37.2814 90.6842 37.8452C90.6842 38.725 90.6737 38.7408 90.0916 38.7566C88.9536 38.7935 88.6494 38.646 88.7124 38.0875C88.7596 37.645 88.8644 37.5712 89.4518 37.5185C89.8713 37.4816 90.1335 37.3657 90.1335 37.2129C90.1335 36.881 89.6616 36.7072 89.1162 36.8494H89.1214ZM94.0038 36.86C93.4427 36.8863 93.2801 36.7546 93.5371 36.4912C93.7416 36.2804 94.7852 36.3542 95.0212 36.5913C95.1418 36.7124 95.2414 37.2498 95.2414 37.7767C95.2414 38.7356 95.2414 38.7408 94.6488 38.7566C93.5108 38.7935 93.2067 38.646 93.2696 38.0875C93.3168 37.645 93.4164 37.5712 94.0195 37.5185C94.5597 37.4711 94.7013 37.3868 94.6488 37.1445C94.6016 36.9179 94.4181 36.8336 93.9986 36.8547L94.0038 36.86ZM99.5417 36.8442C99.1012 36.9601 98.9124 36.7704 99.1904 36.4859C99.2585 36.4174 99.5837 36.3594 99.9141 36.3594C100.69 36.3594 101.12 36.9811 101.042 37.9874L100.984 38.7039H100.092C99.4578 38.7039 99.1484 38.6144 99.0068 38.3931C98.7393 37.9558 99.1536 37.4869 99.8092 37.4869C100.092 37.4869 100.37 37.4132 100.423 37.3183C100.601 37.0233 100.035 36.7124 99.5417 36.8389V36.8442ZM102.3 37.7503C101.655 37.5291 101.461 37.0654 101.818 36.6229C101.965 36.4437 102.284 36.3594 102.699 36.3963C103.412 36.4596 103.438 36.802 102.73 36.8178C102.054 36.8336 102.064 37.2604 102.746 37.4395C103.879 37.7398 103.522 38.8831 102.326 38.7619C101.514 38.6776 101.393 38.2298 102.195 38.2825C102.987 38.3404 103.05 38.0085 102.3 37.7451V37.7503ZM104.193 38.3141C103.711 37.6871 103.711 37.4764 104.188 36.8547C104.623 36.2804 105.342 36.2014 105.845 36.6703C106.564 37.3394 106.128 37.8452 104.812 37.8662C104.288 37.8768 104.277 37.8873 104.629 38.156C104.865 38.3404 105.174 38.3931 105.515 38.3193C105.913 38.2298 106.024 38.2614 105.961 38.4563C105.913 38.5986 105.588 38.7356 105.232 38.7672C104.707 38.8146 104.508 38.725 104.199 38.3193L104.193 38.3141ZM112.102 39.7366C111.881 39.7366 111.829 39.4257 111.829 38.0717V36.4069L112.689 36.3911C113.743 36.37 114.199 36.7388 114.199 37.6028C114.199 38.3457 113.549 38.8936 112.831 38.7514C112.432 38.6723 112.374 38.725 112.374 39.1992C112.374 39.5522 112.28 39.7366 112.102 39.7366ZM116.266 38.7303C115.122 39.0253 114.262 37.5976 115.044 36.7072C115.5 36.1856 116.344 36.3173 116.822 36.9759C117.147 37.429 117.162 37.5238 116.932 37.6871C116.785 37.7872 116.355 37.8452 115.977 37.8136C115.516 37.7767 115.295 37.8346 115.295 37.9927C115.295 38.2403 115.621 38.3193 116.344 38.2561C116.921 38.2034 116.858 38.5775 116.266 38.7303ZM117.891 38.7566C117.724 38.8146 117.666 38.509 117.666 37.6344V36.4385L118.306 36.4174C119.008 36.3963 119.134 36.6176 118.589 36.9179C118.342 37.0549 118.216 37.3499 118.18 37.8926C118.148 38.3246 118.022 38.7092 117.897 38.7514L117.891 38.7566ZM119.764 36.8125C119.328 36.9232 119.16 36.7599 119.428 36.4859C119.638 36.2699 120.713 36.3489 120.912 36.5965C121.017 36.7282 121.132 37.2498 121.164 37.7556L121.221 38.6776L120.419 38.7356C119.554 38.7988 119.124 38.5722 119.124 38.0454C119.124 37.6818 119.47 37.4869 120.131 37.4869C120.367 37.4869 120.608 37.4132 120.66 37.3183C120.839 37.0233 120.241 36.6861 119.764 36.8125ZM124.132 38.7988C123.917 38.7988 123.859 38.5406 123.859 37.5817C123.859 36.6229 123.917 36.3647 124.132 36.3647C124.347 36.3647 124.405 36.6229 124.405 37.5817C124.405 38.5406 124.347 38.7988 124.132 38.7988ZM126.224 38.7988C125.155 38.7988 124.583 37.4922 125.317 36.7335C126.088 35.938 127.32 36.4648 127.32 37.5923C127.32 38.351 126.911 38.7935 126.219 38.7935L126.224 38.7988ZM128.327 38.7988C128.112 38.7988 128.055 38.5406 128.055 37.6028V36.4069L128.91 36.3911C129.381 36.3805 129.869 36.4648 130.006 36.5755C130.289 36.8178 130.341 38.7988 130.063 38.7988C129.964 38.7988 129.88 38.4669 129.88 38.0612C129.88 37.3921 129.528 36.7335 129.177 36.7335C128.841 36.7335 128.605 37.2498 128.605 37.9927C128.605 38.5828 128.532 38.7988 128.333 38.7988H128.327ZM131.138 37.4711C130.776 37.097 130.771 37.0654 131.075 36.723C131.463 36.2804 132.612 36.2172 132.612 36.6387C132.612 36.8442 132.476 36.8863 132.088 36.8073C131.227 36.6281 131.201 37.0865 132.051 37.429C132.832 37.7451 133.016 38.1876 132.533 38.5986C132.208 38.8778 131.117 38.783 131.018 38.4669C130.965 38.3035 131.123 38.2456 131.532 38.2772C131.878 38.3088 132.156 38.2298 132.203 38.0928C132.25 37.9558 132.129 37.8557 131.904 37.8557C131.694 37.8557 131.353 37.6818 131.144 37.4658L131.138 37.4711ZM81.2603 37.94C80.9561 37.508 80.9614 37.3921 81.3075 37.0338C81.8581 36.4648 82.5609 36.8863 82.4455 37.7135C82.3668 38.2719 81.5959 38.4194 81.255 37.94H81.2603ZM96.5158 37.5817C96.5158 37.4395 96.6469 37.1971 96.8042 37.0338C97.3286 36.4912 97.9737 36.8125 97.9737 37.6134C97.9737 37.9663 97.5227 38.4247 97.1766 38.4247C96.9878 38.4247 96.5158 37.8241 96.5158 37.5817ZM105.127 37.4869C104.477 37.4869 104.293 37.3236 104.566 36.9811C104.849 36.6334 105.52 36.7493 105.594 37.1603C105.641 37.4132 105.531 37.4869 105.127 37.4869ZM112.726 38.2298C112.338 38.0138 112.264 37.3078 112.595 36.9653C112.936 36.6123 113.25 36.6966 113.591 37.234C113.895 37.7135 113.89 37.7398 113.486 38.077C113.166 38.3404 112.988 38.3773 112.721 38.235L112.726 38.2298ZM115.851 37.4869C115.316 37.4869 115.107 37.1761 115.421 36.8547C115.652 36.6176 116.287 36.8231 116.35 37.1603C116.397 37.4132 116.287 37.4869 115.851 37.4869ZM126.298 38.4247C125.648 38.4247 125.26 37.4395 125.721 36.9601C125.842 36.8336 126.041 36.7335 126.162 36.7335C126.46 36.7335 126.959 37.2604 126.959 37.5765C126.959 37.8188 126.487 38.4194 126.293 38.4194L126.298 38.4247ZM89.2945 38.351C89.0585 38.2561 89.0427 38.1824 89.2263 37.9558C89.52 37.5923 90.1335 37.5976 90.1335 37.9663C90.1335 38.3141 89.6983 38.5143 89.2945 38.351ZM94.1926 38.3931C93.7993 38.4511 93.6262 38.0928 93.9042 37.803C93.9723 37.7345 94.1821 37.6766 94.3709 37.6766C94.8691 37.6766 94.7065 38.3193 94.1873 38.3931H94.1926ZM99.5784 38.2719C99.4788 38.1666 99.4526 37.9874 99.5207 37.8662C99.6781 37.6028 100.381 37.6871 100.475 37.9874C100.57 38.2772 99.8092 38.5143 99.5732 38.2719H99.5784ZM120.01 38.4247C119.674 38.4247 119.543 38.0506 119.79 37.7978C119.942 37.6397 120.104 37.6397 120.477 37.7872C120.86 37.94 120.503 38.4194 120.01 38.4194V38.4247ZM73.5512 38.3299C73.1579 38.4563 72.8223 38.3246 72.8223 38.0401C72.8223 37.9453 73.0688 37.861 73.3677 37.861C73.9865 37.861 74.1019 38.1507 73.5512 38.3299Z" fill="white"/>
<path d="M25.063 30.111V32.7031L25.4826 31.955C25.7133 31.544 26.2377 30.5641 26.652 29.7791L27.402 28.3566L26.458 28.0352C25.9388 27.856 25.4144 27.6664 25.2885 27.6137C25.1102 27.5399 25.063 28.1089 25.063 30.111Z" fill="white"/>
</g>
</g>
<defs>
<clipPath id="clip0_502_1235">
<rect width="108" height="31" fill="white" transform="translate(25 9)"/>
</clipPath>
</defs>
</svg>
