<?xml version="1.0" encoding="UTF-8"?>
<svg width="158px" height="48px" viewBox="0 0 158 48" version="1.1" xmlns="http://www.w3.org/2000/svg" xmlns:xlink="http://www.w3.org/1999/xlink">
    <title>REDIS</title>
    <g id="Page-1" stroke="none" stroke-width="1" fill="none" fill-rule="evenodd">
        <g id="REDIS">
            <g id="Group-9">
                <rect id="Rectangle" x="0" y="0" width="158" height="48"></rect>
                <rect id="Rectangle-Copy-33" x="24" y="0" width="111" height="48"></rect>
                <path d="M84.5134458,19.9508256 C84.5134458,20.8309509 83.8028415,21.6164732 82.8761637,21.6164732 C82.1655593,21.6164732 81.5479335,21.805193 81.0228081,22.2137619 C80.4360158,22.5912017 79.9725573,23.1252595 79.6020774,23.722305 C78.8606396,24.7281626 78.4903987,25.9222536 78.3357532,26.3619515 L78.3357532,32.3333796 C78.3357532,33.2448772 77.5637209,33.9992704 76.6370431,33.9992704 C75.7411988,33.9992704 75,33.2448772 75,32.3333796 L75,19.9508256 C75,19.0393279 75.7411988,18.3165502 76.6370431,18.3165502 C77.5637209,18.3165502 78.3357532,19.0395711 78.3357532,19.9508256 L78.3357532,20.1709177 C78.5209932,19.9508256 78.7681391,19.6996044 78.9844516,19.5422567 C80.0038689,18.8510944 81.3318601,18.285178 82.8761637,18.3165502 C83.8028415,18.3165502 84.5134458,19.0395711 84.5134458,19.9508256 L84.5134458,19.9508256 Z M83.6075627,26.142589 C83.6386352,21.8684239 86.9127215,18.2856644 91.14408,18.2856644 C95.1596041,18.2856644 98.3409509,21.3341229 98.5883359,25.5766725 L98.5883359,25.733777 C98.5883359,25.7967646 98.5883359,25.9536259 98.5575024,26.0166136 C98.4645239,26.7710068 97.8160645,27.2739355 96.9510537,27.2739355 L87.1287949,27.2739355 C87.2832014,27.9969565 87.6228478,28.8138509 88.1790457,29.348152 C88.8277441,30.1025451 90.0632348,30.667732 91.14408,30.762092 C92.2559978,30.8562087 93.584228,30.5736153 94.3564993,29.9765698 C95.0049586,29.2849211 96.2715219,29.3795242 96.6730743,29.8819666 C97.0746267,30.3223941 97.3834396,31.265264 96.6730743,31.9248108 C95.1593651,33.3387508 93.337082,33.9990272 91.143841,33.9990272 C86.9127215,33.9681414 83.6386352,30.416754 83.6075627,26.142589 L83.6075627,26.142589 Z M86.9743885,24.6026736 L95.715563,24.6026736 C95.4067501,23.3455948 93.8313739,21.4914705 91.14408,21.2713784 C88.5189311,21.3968674 87.2215344,23.3142226 86.9743885,24.6026736 Z M114.323932,32.302737 C114.323932,33.2142346 113.582494,34 112.655816,34 C111.821878,34 111.173419,33.4029545 111.018773,32.6485613 C109.845188,33.4654558 108.362552,34 106.818009,34 C102.648318,34 99.3123253,30.4172404 99.3123253,26.1744476 C99.3123253,21.8686671 102.648318,18.2859076 106.818009,18.2859076 C108.331718,18.2859076 109.814116,18.7885931 110.956867,19.6057308 L110.956867,13.6975336 C110.956867,12.786036 111.698305,12.0002706 112.655577,12.0002706 C113.582255,12.0002706 114.323693,12.786036 114.323693,13.6975336 L114.323693,32.302737 L114.323932,32.302737 Z M106.818248,21.7115627 C105.70633,21.7115627 104.686913,22.182876 103.91512,23.0000137 C103.142848,23.7857791 102.67939,24.9168825 102.67939,26.1742044 C102.67939,27.3682955 103.142609,28.4996421 103.91512,29.2854075 C104.686913,30.1027883 105.70633,30.5741017 106.818248,30.5741017 C107.960999,30.5741017 108.949583,30.1027883 109.721615,29.2854075 C110.493648,28.4998852 110.957106,27.3682955 110.957106,26.1742044 C110.957106,24.9168825 110.493887,23.7857791 109.721615,23.0000137 C108.949583,22.182876 107.960999,21.7115627 106.818248,21.7115627 Z M120.201416,14.3573236 C120.201416,15.3001935 119.491051,16.0857157 118.533301,16.0857157 C117.606623,16.0857157 116.865395,15.3001935 116.865395,14.3573236 L116.865395,13.6972904 C116.863572,13.2466155 117.038692,12.8138513 117.351875,12.4951504 C117.665058,12.1764495 118.090365,11.9982078 118.533301,12 C119.491051,12 120.201416,12.7544206 120.201416,13.6972904 L120.201416,14.3573236 Z M120.201416,20.0456719 L120.201416,32.3024938 C120.201416,33.2453636 119.491051,33.9997842 118.533301,33.9997842 C118.090365,34.0015764 117.665058,33.8233347 117.351875,33.5046338 C117.038692,33.1859329 116.863572,32.7531687 116.865395,32.3024938 L116.865395,20.0456719 C116.865395,19.0400575 117.606623,18.3170366 118.533301,18.3170366 C119.49129,18.3170366 120.201416,19.0400575 120.201416,20.0456719 L120.201416,20.0456719 Z M122.323908,29.503554 C122.879866,28.7496473 123.96119,28.6552873 124.640483,29.2523329 C125.443587,29.9439815 126.833724,30.6662729 128.038142,30.6351438 C128.87208,30.6351438 129.644351,30.3525504 130.138643,30.0380983 C130.571029,29.6609017 130.694363,29.346936 130.694363,29.0952284 C130.694363,28.938124 130.66353,28.8753795 130.601863,28.7807763 C130.57079,28.6866596 130.447456,28.5609274 130.200071,28.4040661 C129.767685,28.089614 128.841008,27.7437897 127.72909,27.5239408 L127.698256,27.5239408 C126.740506,27.3354641 125.813828,27.0839997 125.010962,26.7065599 C124.177024,26.2982343 123.435586,25.732561 122.879627,24.8840511 C122.539981,24.3183778 122.354741,23.6269723 122.354741,22.9041946 C122.354741,21.4583959 123.157846,20.2326894 124.177024,19.446924 C125.258108,18.692774 126.555505,18.2842052 127.976475,18.2842052 C130.107571,18.2842052 131.621041,19.321435 132.609625,20.0125973 C133.351063,20.5155261 133.567136,21.5527559 133.103678,22.3380349 C132.609625,23.0924281 131.590208,23.3125202 130.818175,22.7782192 C129.82983,22.1184292 128.96482,21.6152572 127.976475,21.6152572 C127.204203,21.6152572 126.524672,21.8667216 126.123119,22.1809305 C125.721567,22.4640103 125.629066,22.7468469 125.629066,22.9039514 C125.629066,23.0294404 125.629066,23.0610558 125.690733,23.1551726 C125.721806,23.2179171 125.814306,23.3436493 126.030619,23.4693815 C126.43241,23.7522181 127.235276,24.0350547 128.285527,24.2237746 L128.31636,24.2553901 L128.347433,24.2553901 C129.36685,24.4436236 130.324361,24.7267034 131.219967,25.1666445 C132.053905,25.5438411 132.888082,26.1408866 133.413208,27.0207688 C133.783927,27.6491866 134,28.3722075 134,29.0949852 C134,30.6349006 133.166062,31.9235948 132.053905,32.7404893 C130.941987,33.5260115 129.551851,33.9978112 128.038381,33.9978112 C125.629305,33.966439 123.77595,32.8350924 122.540459,31.8294781 C121.860688,31.2638048 121.768188,30.1949595 122.323908,29.503554 L122.323908,29.503554 Z" id="Shape" fill="#FFFFFF" fill-rule="nonzero"></path>
            </g>
            <g id="Group-57" transform="translate(24, 0)" fill-rule="nonzero">
                <g id="Group-51" transform="translate(1, 8)">
                    <path d="M36.5111486,24.4654564 C34.4832727,25.5336937 23.9779908,29.8987479 21.7414747,31.0769242 C19.5049585,32.255552 18.2624992,32.2440389 16.4957587,31.3904875 C14.7290181,30.5369361 3.5495647,25.9734499 1.53576194,25.0007038 C0.529195643,24.5144436 3.79110077e-11,24.1042603 3.79110077e-11,23.7166518 L3.79110077e-11,19.8349231 C3.79110077e-11,19.8349231 14.5541088,16.6329202 16.9038804,15.7811747 C19.2534286,14.9292036 20.0685552,14.8985019 22.0680614,15.638728 C24.067791,16.3789542 36.0237257,18.5589981 38,19.29042 L37.9991065,23.1170664 C37.9993298,23.5008372 37.543404,23.9218563 36.5111486,24.4654564 L36.5111486,24.4654564 Z" id="Path" fill="#E6E6E6"></path>
                    <path d="M36.5104572,20.9740567 C34.4826462,22.0327504 23.9777007,26.3610843 21.7412561,27.5292285 C19.5048116,28.6978205 18.262392,28.6864054 16.495708,27.8401219 C14.7288007,26.9942861 3.54992856,22.4687621 1.53619028,21.5047465 C-0.477547998,20.5402832 -0.519766139,19.8764174 1.45845529,19.100415 C3.43645334,18.323965 14.5541203,13.9533282 16.9040401,13.1086115 C19.2535131,12.2643424 20.0686136,12.2334545 22.0680558,12.9676015 C24.0677214,13.7015247 34.5098981,17.8662423 36.4858858,18.5914363 C38.4623202,19.3173018 38.5382682,19.9149153 36.5104572,20.9740567 L36.5104572,20.9740567 Z" id="Path" fill="#FFFFFF"></path>
                    <path d="M36.5111486,18.2431738 C34.4832727,19.3114133 23.9779908,23.6764766 21.7414747,24.8551069 C19.5049585,26.0332857 18.2624992,26.0217725 16.4957587,25.1682193 C14.7287947,24.3151176 3.5495647,19.7511704 1.53576194,18.7784223 C0.529195643,18.2921611 3.79110077e-11,17.8824285 3.79110077e-11,17.4948192 L3.79110077e-11,13.6126309 C3.79110077e-11,13.6126309 14.5541088,10.410847 16.9038804,9.55887409 C19.2534286,8.7071269 20.0685552,8.67619943 22.0680614,9.41642711 C24.067791,10.1566548 36.0237257,12.3362517 38,13.067901 L37.9991065,16.8950067 C37.9993298,17.2785526 37.543404,17.6995726 36.5111486,18.2431738 L36.5111486,18.2431738 Z" id="Path" fill="#E6E6E6"></path>
                    <path d="M36.5104572,14.7517586 C34.4826462,15.8109044 23.9777007,20.1388089 21.7412561,21.3074058 C19.5048116,22.475555 18.262392,22.4641399 16.495708,21.6178528 C14.7288007,20.7720134 3.54992856,16.2466942 1.53619028,15.2824507 C-0.477547998,14.3182071 -0.519766139,13.6543385 1.45845529,12.8778852 C3.43645334,12.1018796 14.5541203,7.73100046 16.9040401,6.88650399 C19.2535131,6.04200753 20.0686136,6.01134334 22.0680558,6.74526963 C24.0677214,7.47919592 34.5098981,11.6437072 36.4858858,12.3691281 C38.4623202,13.0947728 38.5382682,13.6926128 36.5104572,14.7517586 L36.5104572,14.7517586 Z" id="Path" fill="#FFFFFF"></path>
                    <path d="M36.5111486,12.9095496 C34.4832727,13.9777983 23.9779908,18.3431251 21.7414747,19.5217655 C19.5049585,20.6999545 18.2624992,20.6884413 16.4957587,19.8348807 C14.7287947,18.9817717 3.5495647,14.4175592 1.53576194,13.4450285 C0.529195643,12.9587631 3.79110077e-11,12.5488012 3.79110077e-11,12.1614143 L3.79110077e-11,8.27919241 C3.79110077e-11,8.27919241 14.5541088,5.07738091 16.9038804,4.22562636 C19.2534286,3.37364606 20.0685552,3.34294406 22.0680614,4.08317814 C24.067791,4.82341222 36.0237257,7.00302796 38,7.73468354 L37.9991065,11.5615967 C37.9993298,11.9449201 37.543404,12.3659437 36.5111486,12.9095496 L36.5111486,12.9095496 Z" id="Path" fill="#E6E6E6"></path>
                    <path d="M36.5104572,8.52943499 C34.4826462,9.58859028 23.9777007,13.9167572 21.7412561,15.0851407 C19.5048116,16.2533003 18.262392,16.2418851 16.495708,15.3958143 C14.729024,14.5497435 3.54992856,10.0246077 1.53619028,9.0603556 C-0.477547998,8.09610349 -0.519766139,7.43200507 1.45845529,6.65576869 C3.43645334,5.87953231 14.5541203,1.50906186 16.9040401,0.664334033 C19.2535131,-0.180393791 20.0686136,-0.210834434 22.0680558,0.523322234 C24.0677214,1.25725507 34.5098981,5.42180354 36.4858858,6.1472309 C38.4623202,6.87243444 38.5382682,7.47050353 36.5104572,8.52943499 Z" id="Path" fill="#FFFFFF"></path>
                    <path d="M19.3053547,7.6465339 L18.0589931,5.64100555 L14.079054,5.29467842 L17.0488088,4.25796061 L16.1578823,2.66666667 L18.9382275,3.71922951 L21.5595623,2.88849712 L20.8510302,4.53411688 L23.5238095,5.50292741 L20.0770233,5.84925454 L19.3053547,7.6465339 Z M21.8845984,10.2700185 L19.0995764,14.2222222 L12.6666667,11.639482 L21.8845984,10.2700185 Z" id="Shape" fill="#101827"></path>
                    <ellipse id="Oval" fill="#101827" cx="11.3095238" cy="7.11111111" rx="4.97619048" ry="1.77777778"></ellipse>
                    <polygon id="Path" fill="#101827" points="28.0522728 8.88888889 28.047619 4.44444444 33.4761905 6.66787243"></polygon>
                    <polygon id="Path" fill="#101827" points="27.1428571 8.66231834 26.6111388 8.88888889 21.7142857 6.78109624 27.1386538 4.44444444"></polygon>
                </g>
            </g>
        </g>
    </g>
</svg>