<?xml version="1.0" encoding="UTF-8"?>
<svg width="158px" height="48px" viewBox="0 0 158 48" version="1.1" xmlns="http://www.w3.org/2000/svg" xmlns:xlink="http://www.w3.org/1999/xlink">
    <title>Group 61</title>
    <g id="Work-file-(ignore)" stroke="none" stroke-width="1" fill="none" fill-rule="evenodd">
        <g id="Group-61">
            <rect id="Rectangle-Copy-37" x="0" y="0" width="158" height="48"></rect>
            <g id="Sql_data_base_with_logo-Copy-2" transform="translate(13, 6)" stroke="#FFFFFF" stroke-width="2.4">
                <ellipse id="Oval" cx="13.6" cy="5.56686058" rx="13.6" ry="5.56686058"></ellipse>
                <path d="M0,5.56686058 L0,29.4248345 C0.170995053,31.4166493 2.92114635,33.2571621 7.21449852,34.2530695 C11.5078507,35.2489768 16.6921414,35.2489768 20.8144985,34.2530695 C24.9368556,33.2571621 27.3709951,31.4166493 27.2,29.4248345 L27.2,5.56686058 M0,13.5195185 C0.170995053,15.5113333 2.92114635,17.3518461 7.21449852,18.3477535 C11.5078507,19.3436609 16.6921414,19.3436609 20.8144985,18.3477535 C24.9368556,17.3518461 27.3709951,15.5113333 27.2,13.5195185 M0,21.4721765 C0.170994982,23.4639913 2.92114627,25.3045041 7.21449847,26.3004116 C11.5078507,27.296319 16.6921414,27.296319 20.8144986,26.3004116 C24.9368557,25.3045041 27.3709951,23.4639913 27.2,21.4721765" id="Shape"></path>
                <path d="M48.4,13.5195185 C48.4,12.098913 47.6376043,10.7862193 46.4,10.0759166 C45.1623957,9.36561379 43.6376043,9.36561379 42.4,10.0759166 C41.1623957,10.7862193 40.4,12.098913 40.4,13.5195185 C40.3575685,14.7783807 40.7975985,15.9830848 41.5861713,16.766991 C42.3747441,17.5508973 43.4185809,17.8212788 44.4,17.4958475 C45.2531375,17.487582 46.0709424,17.9028706 46.6717864,18.6494811 C47.2726304,19.3960915 47.6067717,20.4122144 47.6,21.4721765 C47.3790861,23.6682424 45.409139,25.2704792 43.2,25.0508726 C40.990861,24.831266 39.3790861,22.8729766 39.6,20.6769107" id="Path"></path>
                <path d="M62.4,25.4485055 C58.2830451,26.1214448 54.3371226,23.5361514 53.3358073,19.5098188 C52.334492,15.4834863 54.6140459,11.3682387 58.5721787,10.0566688 C62.5303115,8.74509901 66.8378019,10.6776587 68.4669304,14.4959586 C70.0960589,18.3142584 68.499731,22.7360361 64.8,24.6532397 M62.4,21.4721765 L67.2,27.8343029" id="Shape"></path>
                <path d="M74.8,8.74792377 L74.8,21.4721765 C74.8,22.5267645 75.2214274,23.5381594 75.9715729,24.2838657 C76.7217184,25.029572 77.739134,25.4485055 78.8,25.4485055 L82,25.4485055" id="Path"></path>
            </g>
        </g>
    </g>
</svg>