<svg width="158" height="48" viewBox="0 0 158 48" fill="none" xmlns="http://www.w3.org/2000/svg">
<g clip-path="url(#clip0_502_1261)">
<g opacity="0.54">
<mask id="mask0_502_1261" style="mask-type:luminance" maskUnits="userSpaceOnUse" x="17" y="11" width="21" height="15">
<path d="M37.37 11H17.41V25.86H37.37V11Z" fill="white"/>
</mask>
<g mask="url(#mask0_502_1261)">
<path d="M27.19 11.04C31.23 10.69 35.37 12.89 37.27 16.48C37.53 16.88 37.27 17.39 36.85 17.52C30.95 20.27 25.05 23.02 19.15 25.76C18.79 25.96 18.29 25.83 18.15 25.43C17.2 23.09 17.18 20.4 18.04 18.03C18.72 16.11 19.97 14.4 21.59 13.17C23.19 11.94 25.17 11.19 27.19 11.04Z" fill="white"/>
</g>
</g>
<path d="M90.02 12.26C89.97 11.64 90.78 11.33 91.24 11.68C91.52 11.87 91.53 12.24 91.53 12.55C91.53 14.2 91.53 15.86 91.53 17.51C93.21 15.66 96.29 15.5 98.24 17.01C99.36 17.88 99.91 19.33 99.93 20.72C99.93 22.4 99.93 24.07 99.93 25.75C99.92 26.01 99.94 26.32 99.73 26.52C99.44 26.84 98.88 26.84 98.6 26.51C98.4 26.31 98.43 26.01 98.42 25.75C98.42 24.08 98.42 22.4 98.42 20.73C98.41 19.69 97.98 18.6 97.09 18.01C95.94 17.26 94.39 17.21 93.16 17.79C92.26 18.21 91.54 19.12 91.54 20.14C91.51 22.15 91.57 24.16 91.52 26.17C91.46 26.89 90.28 26.97 90.08 26.29C90 25.87 90.05 25.44 90.04 25.01C90.04 20.75 90.04 16.5 90.04 12.24M126.36 12.03C127.06 11.71 127.97 12.35 127.82 13.13C127.78 13.92 126.75 14.38 126.13 13.89C125.47 13.45 125.58 12.29 126.35 12.04M82.78 13.3C82.84 12.74 83.59 12.53 83.99 12.88C84.25 13.07 84.26 13.42 84.26 13.71C84.26 14.64 84.26 15.57 84.26 16.5C85.07 16.52 85.88 16.45 86.69 16.54C87.3 16.67 87.3 17.64 86.69 17.78C85.88 17.87 85.07 17.79 84.26 17.82C84.26 19.56 84.26 21.29 84.26 23.03C84.23 23.89 84.71 24.79 85.52 25.12C86.04 25.36 86.63 25.21 87.17 25.33C87.79 25.58 87.72 26.63 87.04 26.75C86.11 26.88 85.11 26.73 84.33 26.17C83.31 25.48 82.76 24.24 82.78 23.03C82.78 21.29 82.78 19.55 82.78 17.81C82.27 17.8 81.76 17.86 81.25 17.77C80.68 17.61 80.69 16.69 81.26 16.54C81.75 16.45 82.26 16.51 82.76 16.5C82.78 15.44 82.72 14.37 82.78 13.31M50.82 16.03C52.47 15.84 54.35 16.35 55.32 17.78C55.7 18.39 54.85 19 54.31 18.65C53.84 18.31 53.46 17.81 52.89 17.62C51.88 17.25 50.66 17.22 49.72 17.81C49.25 18.08 48.99 18.65 49.1 19.17C49.19 19.69 49.65 20.06 50.11 20.24C51.1 20.67 52.22 20.65 53.23 21.01C53.95 21.26 54.69 21.59 55.18 22.22C55.94 23.17 55.86 24.67 55.04 25.55C54.4 26.28 53.45 26.65 52.51 26.81C51.22 27.02 49.88 26.79 48.7 26.26C48.15 25.99 47.61 25.63 47.26 25.12C46.98 24.52 47.76 23.88 48.32 24.18C48.72 24.45 49.02 24.85 49.46 25.05C50.44 25.53 51.58 25.56 52.63 25.37C53.3 25.25 53.99 24.83 54.18 24.14C54.38 23.51 54.01 22.81 53.43 22.54C52.33 21.9 51.01 21.97 49.83 21.54C49.14 21.3 48.46 20.93 48.02 20.32C47.33 19.36 47.47 17.92 48.31 17.09C48.96 16.41 49.91 16.12 50.82 16.01M70.49 17.51C72.19 15.6 75.4 15.5 77.33 17.12C78.37 18 78.87 19.39 78.89 20.73C78.89 22.4 78.89 24.07 78.89 25.74C78.89 26.05 78.89 26.42 78.6 26.61C78.15 26.98 77.35 26.64 77.39 26.03C77.37 24.26 77.39 22.49 77.38 20.72C77.37 19.61 76.85 18.44 75.85 17.89C74.36 17.08 72.27 17.26 71.12 18.56C70.7 19.03 70.47 19.66 70.48 20.3C70.48 22.21 70.49 24.12 70.48 26.03C70.55 26.67 69.71 26.99 69.25 26.62C68.96 26.43 68.97 26.05 68.97 25.75C68.98 22.78 68.97 19.81 68.98 16.84C68.93 16.23 69.72 15.9 70.19 16.24C70.61 16.52 70.47 17.08 70.5 17.51M104.14 17.48C105.81 15.72 108.82 15.49 110.76 16.95C112.01 17.89 112.64 19.48 112.68 21.01C112.68 21.27 112.69 21.59 112.47 21.77C112.26 21.96 111.96 21.93 111.7 21.94C109.16 21.94 106.62 21.94 104.09 21.94C104.23 23.14 104.86 24.3 105.92 24.93C107.39 25.85 109.38 25.65 110.73 24.6C111.27 24.15 112.17 24.88 111.74 25.47C109.87 27.15 106.79 27.34 104.76 25.83C102.19 23.93 101.98 19.74 104.16 17.47M105.34 18.24C104.63 18.86 104.27 19.77 104.1 20.68C106.48 20.68 108.87 20.68 111.26 20.67C111.11 19.59 110.63 18.5 109.68 17.89C108.37 17.05 106.5 17.19 105.34 18.24ZM117.78 16.1C119.52 15.76 121.55 16.19 122.67 17.66C123 18.01 122.78 18.65 122.3 18.72C121.9 18.83 121.56 18.56 121.3 18.29C120.5 17.46 119.25 17.24 118.15 17.41C117.53 17.54 116.82 17.81 116.57 18.45C116.34 19 116.55 19.67 117.05 19.98C118.02 20.61 119.22 20.6 120.3 20.9C121.1 21.14 121.94 21.46 122.49 22.11C123.3 23.01 123.31 24.5 122.55 25.43C122.11 25.98 121.5 26.37 120.84 26.58C119.33 27.1 117.64 26.91 116.19 26.28C115.62 26.01 115.07 25.65 114.69 25.14C114.36 24.55 115.1 23.85 115.69 24.14C116.07 24.38 116.35 24.76 116.76 24.97C117.77 25.51 118.98 25.57 120.09 25.36C120.74 25.23 121.4 24.82 121.6 24.15C121.81 23.54 121.46 22.83 120.89 22.56C119.77 21.89 118.42 21.98 117.23 21.53C116.54 21.29 115.86 20.91 115.43 20.3C114.75 19.32 114.92 17.88 115.77 17.06C116.31 16.51 117.04 16.23 117.78 16.09M135.13 16.1C136.66 15.84 138.31 16.14 139.55 17.1C142.1 19.01 142.32 23.22 140.01 25.41C137.97 27.41 134.32 27.39 132.31 25.36C130.42 23.49 130.25 20.21 131.84 18.1C132.63 17.04 133.84 16.34 135.13 16.11M135.1 17.52C134.06 17.78 133.15 18.52 132.68 19.49C131.83 21.17 132.19 23.45 133.69 24.65C135.3 25.96 137.96 25.73 139.25 24.08C140.6 22.39 140.39 19.61 138.68 18.24C137.69 17.44 136.31 17.2 135.09 17.53M56.98 16.47C57.24 15.98 58.08 15.94 58.27 16.52C59.54 19.18 60.8 21.85 62.06 24.51C63.25 21.89 64.44 19.28 65.62 16.66C65.72 16.48 65.79 16.25 65.99 16.16C66.53 15.87 67.39 16.47 67.01 17.08C64.89 21.73 62.77 26.39 60.65 31.05C60.36 31.82 58.98 31.27 59.35 30.51C59.99 29.04 60.67 27.58 61.32 26.11C59.89 23.18 58.49 20.24 57.06 17.31C56.94 17.06 56.79 16.74 56.97 16.48M126.37 16.21C126.85 15.9 127.59 16.26 127.52 16.86C127.52 19.92 127.52 22.97 127.52 26.03C127.58 26.67 126.73 27 126.28 26.61C126.01 26.41 126.02 26.04 126.02 25.74C126.02 22.82 126.02 19.91 126.02 16.99C126.01 16.69 126.09 16.35 126.37 16.2M34.22 21.63C34.57 21.42 35.08 21.57 35.22 21.96C36.19 24.37 36.19 27.15 35.27 29.57C34.56 31.45 33.31 33.11 31.7 34.31C29.67 35.82 27.09 36.57 24.57 36.37C21.07 36.13 17.76 34.02 16.1 30.93C15.85 30.54 16.1 30.02 16.53 29.89C22.43 27.14 28.32 24.38 34.22 21.63ZM70.93 32.8C71.02 32.8 71.2 32.78 71.3 32.78C71.76 33.97 72.25 35.15 72.69 36.35C72.03 36.43 72.05 35.62 71.81 35.19C71.34 35.19 70.87 35.19 70.4 35.19C70.26 35.57 70.11 35.94 69.97 36.31H69.55C70.01 35.14 70.48 33.98 70.93 32.8ZM71.11 33.26C70.94 33.79 70.74 34.3 70.54 34.82H71.67C71.47 34.3 71.28 33.78 71.1 33.26M74.78 32.78H75.24C75.88 33.77 76.53 34.76 77.17 35.75C77.12 34.76 77.16 33.77 77.15 32.78H77.54C77.54 33.96 77.54 35.13 77.53 36.31C77.37 36.31 77.21 36.31 77.06 36.31C76.42 35.32 75.77 34.33 75.13 33.34C75.18 34.33 75.16 35.32 75.16 36.31H74.78V32.78ZM83.03 32.79C83.13 32.79 83.34 32.79 83.44 32.79V36.32C83.34 36.32 83.13 36.32 83.03 36.32V32.8M86.02 32.78C86.59 32.8 87.2 32.7 87.75 32.93C88.43 33.23 88.44 34.33 87.82 34.69C87.41 34.96 86.9 34.92 86.43 34.93C86.43 35.39 86.43 35.85 86.43 36.31C86.33 36.31 86.12 36.31 86.02 36.31C86.02 35.13 86.02 33.96 86.02 32.78ZM86.44 33.14C86.44 33.62 86.44 34.11 86.44 34.59C86.78 34.57 87.13 34.6 87.45 34.47C87.95 34.28 87.95 33.43 87.45 33.25C87.13 33.13 86.78 33.17 86.45 33.15M90.82 32.95C91.34 32.61 91.98 32.78 92.54 32.92C92.51 33.01 92.45 33.19 92.42 33.28C91.99 33.2 91.51 33 91.09 33.24C90.79 33.4 90.79 33.89 91.05 34.08C91.48 34.39 92.07 34.43 92.44 34.84C92.76 35.25 92.63 35.94 92.16 36.18C91.62 36.49 90.97 36.36 90.39 36.23C90.39 36.13 90.39 35.93 90.38 35.83C90.87 35.93 91.4 36.12 91.88 35.91C92.24 35.78 92.31 35.23 92.01 35C91.62 34.73 91.13 34.66 90.75 34.37C90.33 34.03 90.33 33.25 90.82 32.96M95.83 32.8C96.5 32.59 97.35 32.77 97.73 33.41C98.12 34.06 98.12 34.93 97.78 35.61C97.21 36.66 95.41 36.6 94.95 35.48C94.55 34.56 94.75 33.15 95.83 32.81M95.83 33.24C95.14 33.61 95.11 34.57 95.3 35.24C95.53 36.13 96.92 36.29 97.36 35.5C97.65 34.93 97.65 34.2 97.36 33.63C97.07 33.1 96.34 33.02 95.83 33.25M100.57 32.95C101.09 32.59 101.75 32.76 102.32 32.9C102.29 32.99 102.24 33.17 102.21 33.26C101.77 33.18 101.28 32.97 100.86 33.22C100.54 33.41 100.59 33.94 100.9 34.1C101.29 34.34 101.78 34.42 102.14 34.73C102.56 35.09 102.49 35.84 102.02 36.12C101.49 36.45 100.79 36.41 100.22 36.19C100.2 36.1 100.15 35.91 100.13 35.82C100.63 35.9 101.15 36.1 101.65 35.9C102.04 35.77 102.11 35.17 101.76 34.95C101.37 34.7 100.88 34.62 100.52 34.32C100.11 33.98 100.11 33.23 100.57 32.93M108.04 33.12C108.62 32.6 109.46 32.69 110.15 32.9C110.11 32.99 110.02 33.17 109.98 33.26C109.45 33.09 108.77 32.96 108.33 33.41C107.79 34.03 107.79 35.07 108.35 35.68C108.82 36.12 109.5 35.93 110.07 35.86C110.08 36.38 109.47 36.3 109.11 36.33C108.51 36.37 107.88 36.04 107.65 35.47C107.33 34.71 107.41 33.71 108.03 33.12M113.31 32.8C114.02 32.59 114.92 32.82 115.25 33.53C115.61 34.28 115.57 35.28 114.99 35.91C114.24 36.63 112.76 36.44 112.37 35.42C111.99 34.5 112.23 33.11 113.3 32.8M113.31 33.22C112.57 33.57 112.52 34.6 112.76 35.28C113.03 36.14 114.4 36.26 114.82 35.47C115.09 34.91 115.1 34.21 114.82 33.65C114.55 33.11 113.83 33.01 113.31 33.22ZM117.87 32.78C118.07 32.78 118.28 32.78 118.48 32.78C118.85 33.75 119.23 34.72 119.61 35.69C119.99 34.72 120.36 33.74 120.74 32.77C120.94 32.77 121.15 32.77 121.36 32.77V36.29H120.94C120.94 35.24 120.93 34.19 120.96 33.14C120.56 34.2 120.15 35.25 119.75 36.3C119.67 36.3 119.51 36.3 119.43 36.3C119.03 35.25 118.62 34.2 118.22 33.14C118.27 34.19 118.24 35.24 118.25 36.29C118.16 36.29 117.97 36.29 117.87 36.29V32.77M123.95 32.78C124.5 32.8 125.07 32.72 125.6 32.9C126.32 33.14 126.38 34.27 125.78 34.67C125.37 34.96 124.84 34.92 124.36 34.93C124.36 35.39 124.36 35.85 124.36 36.3H123.95C123.95 35.12 123.95 33.95 123.95 32.77M124.36 34.58C124.71 34.56 125.08 34.6 125.4 34.44C125.86 34.23 125.86 33.45 125.4 33.25C125.07 33.11 124.7 33.15 124.36 33.13C124.36 33.61 124.36 34.1 124.36 34.58ZM129.45 32.78C129.54 32.78 129.72 32.79 129.81 32.8C130.26 33.97 130.73 35.14 131.19 36.31H130.75C130.61 35.93 130.45 35.56 130.31 35.19C129.84 35.19 129.37 35.19 128.91 35.19C128.77 35.56 128.62 35.93 128.48 36.3C128.33 36.3 128.19 36.3 128.05 36.31C128.51 35.13 128.98 33.95 129.45 32.77M129.05 34.82H130.19C130 34.3 129.8 33.79 129.62 33.26C129.45 33.79 129.25 34.3 129.05 34.82ZM133.28 32.79C133.4 32.79 133.63 32.79 133.75 32.79C134.39 33.78 135.04 34.76 135.68 35.75C135.65 34.76 135.68 33.78 135.67 32.79H136.06C136.06 33.97 136.06 35.14 136.05 36.32C135.89 36.32 135.73 36.32 135.58 36.32C134.94 35.33 134.29 34.34 133.65 33.35C133.7 34.34 133.68 35.34 133.68 36.33C133.58 36.33 133.39 36.33 133.29 36.33V32.81M138.15 32.8C138.26 32.8 138.49 32.8 138.6 32.8C138.91 33.38 139.22 33.96 139.52 34.54C139.83 33.96 140.14 33.39 140.44 32.8C140.6 32.78 140.75 32.77 140.91 32.77C140.54 33.5 140.09 34.19 139.75 34.94C139.69 35.39 139.73 35.85 139.72 36.3C139.58 36.3 139.44 36.3 139.3 36.3C139.27 35.83 139.37 35.33 139.24 34.87C138.9 34.17 138.49 33.49 138.13 32.79" fill="white"/>
</g>
<defs>
<clipPath id="clip0_502_1261">
<rect width="125.61" height="25.4" fill="white" transform="translate(16 11)"/>
</clipPath>
</defs>
</svg>
