<svg width="158" height="48" viewBox="0 0 158 48" fill="none" xmlns="http://www.w3.org/2000/svg">
<g clip-path="url(#clip0_1173_578)">
<path d="M88.8201 25.4968C88.8201 22.4354 87.5125 19.7305 83.0903 19.7305C80.8215 19.7305 79.0192 20.3786 78.042 20.9459L78.7582 23.402C79.6579 22.8363 81.0934 22.3704 82.4484 22.3704C84.6872 22.3672 85.054 23.6365 85.054 24.4525V24.649C80.1669 24.6411 77.0776 26.3334 77.0776 29.7799C77.0776 31.8858 78.646 33.8602 81.3876 33.8602C83.0603 33.8602 84.4737 33.1836 85.318 32.1156H85.4002C85.4002 32.1156 85.9568 34.4497 89.0351 33.5576C88.8786 32.5799 88.8201 31.5499 88.8201 30.2981V25.4968ZM85.1742 28.7293C85.1742 28.9765 85.1537 29.2332 85.0809 29.4535C84.7994 30.3963 83.8287 31.1854 82.6207 31.1854C81.601 31.1854 80.8009 30.6071 80.8009 29.3949C80.8009 27.5409 82.8436 27.0307 85.1742 27.0433" fill="white"/>
<path d="M14 15.5651C14 15.5651 17.1921 28.6537 17.6997 30.7739C18.2973 33.2522 19.3677 34.1681 22.4571 33.558L24.4523 25.4418C24.9567 23.431 25.2997 21.989 25.6255 19.9401H25.6808C25.9069 22.0096 26.2326 23.431 26.6452 25.4481C26.6452 25.4481 27.4595 29.1355 27.8816 31.0671C28.2927 32.9987 29.45 34.2172 32.4809 33.558L37.2304 15.5651H33.3963L31.7663 23.3486C31.3347 25.6034 30.9425 27.3797 30.6374 29.446H30.582C30.307 27.4019 29.9575 25.6985 29.5085 23.4896L27.82 15.5651H23.8199L22.0175 23.2868C21.5036 25.6446 21.023 27.535 20.721 29.5364H20.6689C20.3574 27.6586 19.9353 25.2675 19.4878 22.9984C19.4878 22.9984 18.4174 17.4698 18.0396 15.5651" fill="white"/>
<path d="M47.9152 25.4968C47.9152 22.4354 46.6045 19.7305 42.1823 19.7305C39.9198 19.7305 38.1143 20.3786 37.1372 20.9459L37.8534 23.402C38.7499 22.8363 40.1839 22.3704 41.5436 22.3704C43.7823 22.3672 44.1491 23.6365 44.1491 24.4525V24.649C39.2621 24.6411 36.1696 26.3334 36.1696 29.7799C36.1696 31.8858 37.7443 33.8602 40.4732 33.8602C42.1617 33.8602 43.5626 33.1836 44.4069 32.1156H44.4922C44.4922 32.1156 45.0519 34.4497 48.1271 33.5576C47.969 32.5799 47.9152 31.5499 47.9152 30.2981V25.4968ZM44.2662 28.7293C44.2662 28.9765 44.2456 29.2332 44.1761 29.4535C43.8914 30.3963 42.9207 31.1854 41.7096 31.1854C40.6961 31.1854 39.893 30.6071 39.893 29.3949C39.893 27.5409 41.9356 27.0307 44.2662 27.0433" fill="white"/>
<path d="M49.9048 15.5651V33.5517H53.5538V29.7376V15.5651H49.9048Z" fill="white"/>
<path d="M100.02 15.5651V28.836C100.02 30.6678 100.363 31.9449 101.101 32.7277C101.749 33.4138 102.81 33.8607 104.073 33.8607C105.158 33.8607 106.219 33.6515 106.72 33.4693L106.676 30.6123C106.301 30.6994 105.873 30.7739 105.284 30.7739C104.039 30.7739 103.627 29.9832 103.627 28.3384V23.2582H106.805V19.8213H103.627V15.5651" fill="white"/>
<path d="M90.588 20.0426V33.5576H94.3603V26.6361C94.3603 26.2637 94.384 25.9421 94.4425 25.6442C94.7239 24.1847 95.8291 23.2609 97.4212 23.2609C97.8655 23.2609 98.1674 23.3101 98.5027 23.3624V19.8192C98.2212 19.7685 98.0299 19.7416 97.6837 19.7416C96.2718 19.7416 94.6717 20.64 93.9966 22.597H93.9034V20.0426" fill="white"/>
<path d="M55.6729 20.0426V33.5576H59.3488V25.6251C59.3488 25.2528 59.3899 24.8725 59.5211 24.5286C59.82 23.7252 60.5615 22.7951 61.752 22.7951C63.2318 22.7951 63.9307 24.0469 63.9307 25.8533V33.5576H67.5972V25.5301C67.5972 25.1799 67.6462 24.7504 67.7489 24.4399C68.043 23.5287 68.8462 22.7951 69.9561 22.7951C71.4518 22.7951 72.1759 24.02 72.1759 26.1496V33.5576H75.8391V25.5887C75.8391 21.4022 73.7142 19.7416 71.3015 19.7416C70.2407 19.7416 69.3964 20.003 68.6374 20.4721C67.9955 20.8666 67.4327 21.4228 66.9283 22.1501H66.873C66.2928 20.6955 64.9299 19.7416 63.1496 19.7416C60.8666 19.7416 59.8294 20.8967 59.2192 21.8728H59.1638V20.0426" fill="white"/>
<path d="M126.548 19.4361C127.269 19.4361 127.876 19.0589 127.955 18.5741L128.669 10.461C128.669 9.6576 127.726 9 126.548 9C125.364 9 124.426 9.6576 124.426 10.461L125.147 18.5741C125.223 19.0589 125.827 19.4361 126.548 19.4361Z" fill="white"/>
<path d="M122.163 21.9747C122.52 21.3409 122.5 20.6373 122.114 20.3236L115.442 15.6475C114.748 15.2418 113.709 15.7251 113.115 16.7488C112.522 17.7708 112.642 18.9181 113.322 19.3158L120.708 22.748C121.181 22.9255 121.799 22.5959 122.163 21.9684" fill="white"/>
<path d="M130.932 21.9681C131.309 22.5956 131.928 22.9252 132.388 22.7572L139.774 19.3155C140.46 18.9098 140.563 17.7737 139.983 16.7516C139.39 15.728 138.345 15.2479 137.653 15.6456L130.979 20.3169C130.609 20.6354 130.582 21.3422 130.939 21.9744" fill="white"/>
<path d="M126.548 29.5703C127.269 29.5703 127.876 29.9474 127.955 30.4323L128.669 38.5453C128.669 39.3487 127.726 40 126.548 40C125.364 40 124.426 39.3487 124.426 38.5453L125.147 30.4323C125.223 29.9474 125.827 29.5703 126.548 29.5703Z" fill="white"/>
<path d="M130.932 27.0387C131.309 26.4097 131.928 26.0737 132.388 26.256L139.774 29.6913C140.46 30.0891 140.563 31.2347 139.983 32.2584C139.39 33.2741 138.345 33.7574 137.653 33.3596L130.979 28.682C130.609 28.3666 130.582 27.6631 130.939 27.0387" fill="white"/>
<path d="M122.163 27.0318C122.52 27.664 122.5 28.366 122.114 28.6829L115.442 33.3527C114.748 33.7583 113.709 33.2734 113.115 32.2577C112.522 31.2357 112.642 30.0884 113.322 29.6907L120.708 26.2553C121.181 26.0747 121.799 26.4074 122.163 27.0318Z" fill="white"/>
<path d="M141.936 32.6477H142.028C142.153 32.6477 142.203 32.6873 142.217 32.7871C142.244 32.8981 142.258 32.9725 142.285 33.0042H142.523C142.502 32.9805 142.475 32.9202 142.461 32.7808C142.434 32.6604 142.372 32.5922 142.285 32.5685V32.5463C142.405 32.5193 142.475 32.4385 142.475 32.3387C142.475 32.2484 142.434 32.1834 142.393 32.1422C142.314 32.1042 142.238 32.0741 142.07 32.0741C141.922 32.0741 141.813 32.0867 141.726 32.1073V33.0042H141.936V32.6477ZM141.942 32.2389L142.05 32.2246C142.176 32.2246 142.244 32.2832 142.244 32.3656C142.244 32.4575 142.153 32.5003 142.036 32.5003H141.942V32.2389ZM142.077 31.6304C141.558 31.6304 141.147 32.036 141.147 32.5336C141.147 33.0438 141.558 33.4495 142.077 33.4495C142.602 33.4495 143 33.0438 143 32.5336C143 32.036 142.602 31.6304 142.077 31.6304ZM142.077 31.8126C142.475 31.8126 142.771 32.1359 142.771 32.5336C142.771 32.9345 142.475 33.2673 142.077 33.2609C141.678 33.2609 141.376 32.9345 141.376 32.5336C141.376 32.1359 141.678 31.8126 142.07 31.8126" fill="white"/>
</g>
<defs>
<clipPath id="clip0_1173_578">
<rect width="129" height="31" fill="white" transform="translate(14 9)"/>
</clipPath>
</defs>
</svg>
