<svg width="158" height="48" viewBox="0 0 158 48" fill="none" xmlns="http://www.w3.org/2000/svg">
<g clip-path="url(#clip0_502_1258)">
<path d="M32.07 21.86V25.85C32.05 30.16 35.48 33.7 39.79 33.82C43.86 33.82 47.26 30.7 47.61 26.64C47.67 26.04 47.7 24.52 47.7 23.91C47.7 23.3 47.67 21.79 47.61 21.19C47.25 16.88 43.47 13.69 39.16 14.04C37.71 14.16 36.32 14.68 35.15 15.55C35.08 15.63 35.08 15.75 35.15 15.82L36.78 18.53C36.83 18.61 36.93 18.63 37.01 18.58C37.02 18.58 37.03 18.57 37.04 18.56C38.86 17.03 41.57 17.26 43.1 19.07C43.62 19.68 43.95 20.42 44.07 21.21C44.21 22.98 44.21 24.75 44.07 26.52C43.78 28.66 41.96 30.25 39.8 30.25C38.68 30.23 37.62 29.77 36.84 28.97C36.05 28.16 35.61 27.08 35.61 25.95V21.96C35.63 17.64 32.19 14.09 27.86 13.99C23.81 14.02 20.43 17.14 20.09 21.19C20 21.78 20 23.3 20 23.91C20 24.52 20.02 26.03 20.09 26.63C20.45 30.93 24.24 34.12 28.54 33.76C29.98 33.64 31.36 33.12 32.52 32.26C32.59 32.19 32.6 32.07 32.54 31.99L30.89 29.29C30.83 29.22 30.73 29.21 30.66 29.26C28.84 30.79 26.13 30.56 24.6 28.74C24.08 28.13 23.75 27.38 23.63 26.58C23.49 24.81 23.49 23.04 23.63 21.27C23.92 19.14 25.74 17.56 27.89 17.55C29.01 17.57 30.08 18.03 30.86 18.83C31.65 19.64 32.08 20.72 32.08 21.85L32.07 21.86ZM68.41 31.87H71.58L76.63 16.06H73.35L69.93 27.09L66.32 16.06H63.26L59.63 27.09L56.24 16.06H52.96L58.02 31.86H61.18L64.81 20.88L68.4 31.87H68.41ZM114.12 31.87H117.93L124.09 16.06H120.79L116.03 28.15L111.27 16.06H107.97L114.11 31.87H114.12ZM93.21 25.65C93.63 29.42 96.81 32.27 100.6 32.28C102.17 32.28 103.7 31.8 104.99 30.91L105.17 30.79L105.75 31.89H108.3C108.12 31.02 108.03 30.13 108.03 29.23V22.9C107.89 18.8 104.44 15.59 100.34 15.73C96.67 15.86 93.64 18.65 93.22 22.3C93.16 22.85 93.16 23.44 93.16 23.88V24.06C93.16 24.5 93.16 25.09 93.22 25.63L93.21 25.65ZM100.59 29.49C98.38 29.47 96.49 27.89 96.08 25.72V25.81L96.05 25.59C96 25.09 95.98 24.59 95.99 24.09V23.91C95.99 23.41 96.01 22.91 96.05 22.41L96.08 22.2C96.54 19.71 98.94 18.08 101.42 18.54C103.28 18.89 104.73 20.34 105.08 22.2L105.1 22.41C105.15 22.91 105.17 23.4 105.16 23.9V24.08C105.16 24.58 105.14 25.08 105.1 25.57L105.08 25.71V25.76C104.67 27.91 102.78 29.47 100.59 29.46V29.49ZM91.47 23.08C91.45 19.03 88.2 15.74 84.15 15.66C80.13 15.68 76.87 18.93 76.85 22.96V24.96C76.92 29.05 80.27 32.32 84.36 32.28C87.09 32.28 89.63 30.85 91.04 28.51L88.5 27.21C87.58 28.61 86.02 29.45 84.34 29.44C82.19 29.41 80.32 27.95 79.76 25.87C79.76 25.81 79.76 25.75 79.76 25.69L91.41 25.64L91.46 23.08H91.47ZM79.69 22.94V22.57C79.83 20.11 81.94 18.22 84.4 18.36C86.64 18.49 88.45 20.26 88.6 22.5V22.89L79.68 22.93L79.69 22.94ZM138.54 23.08C138.52 19.03 135.27 15.74 131.22 15.66C127.19 15.66 123.93 18.93 123.91 22.96V24.96C123.98 29.05 127.33 32.32 131.42 32.28C134.15 32.28 136.69 30.85 138.1 28.51L135.56 27.21C134.64 28.61 133.08 29.44 131.41 29.44C129.26 29.4 127.41 27.94 126.85 25.87C126.85 25.81 126.85 25.75 126.85 25.69L138.45 25.66L138.53 23.08H138.54ZM126.75 22.95V22.58C126.89 20.12 129 18.23 131.46 18.37C133.7 18.5 135.51 20.27 135.66 22.51V22.89L126.74 22.94L126.75 22.95Z" fill="white"/>
</g>
<defs>
<clipPath id="clip0_502_1258">
<rect width="118.54" height="19.81" fill="white" transform="translate(20 14)"/>
</clipPath>
</defs>
</svg>
