<svg width="158" height="48" viewBox="0 0 158 48" fill="none" xmlns="http://www.w3.org/2000/svg">
<path d="M20.2253 22.4392L20.219 21.7782L18.3838 21.7942C17.8464 21.7506 17.5831 21.4108 17.5947 20.7739C17.5742 20.8246 17.5742 20.0906 17.5947 18.5712L16.2718 17.8728C15.9943 17.7937 16.1562 17.517 16.2718 17.17C16.3341 16.9841 16.577 16.4059 17.0013 15.4353C16.9617 15.1679 16.9418 14.8979 16.9417 14.6275C16.9417 11.3982 19.7662 8.77924 22.9884 8.77924C26.2106 8.77924 29.1623 11.3947 29.1623 14.6249C29.1623 16.5073 28.1739 18.2616 26.7123 19.3985L26.7221 22.4552L27.5281 22.457C27.537 20.7312 27.545 19.8665 27.5494 19.862C29.0208 18.581 29.9247 16.5188 29.9647 14.4683H30.7004V28.1416C30.7004 29.4849 29.6151 30.5702 28.165 30.5738C25.2907 29.9849 19.9175 30.0222 17.0938 30.5738C15.795 30.5756 14.5584 29.4849 14.5584 28.1425V14.4692L16.2398 14.4674C16.246 14.7521 16.2647 15.1293 16.2736 15.277L15.32 17.581C15.1714 17.8461 15.2043 18.0081 15.4178 18.0694L16.9426 18.8745L16.9408 21.3076C17.036 22.0238 17.3927 22.4072 18.0128 22.457L19.9788 22.4392H20.2262H20.2253ZM22.4724 10.014C21.8595 10.014 22.1246 9.98466 21.6744 10.0638C20.8871 10.3209 20.4147 10.9712 20.4379 11.7612C18.8161 11.9302 18.9113 14.3384 20.3231 14.3384H25.9721C27.2692 14.3384 27.5316 11.8368 25.6385 11.7799C25.7426 10.7319 24.4171 10.0069 23.548 10.6519C23.2215 10.2426 22.9644 10.1608 22.4724 10.014Z" fill="white"/>
<path fill-rule="evenodd" clip-rule="evenodd" d="M48.659 28.8782V30.6432C47.8414 30.5177 47.2961 30.4964 46.2063 30.4964H38.3431C37.0851 30.4964 36.6234 30.5177 35.9527 30.5587V29.0668C36.3726 28.6674 36.7711 28.2057 37.4828 27.2805L45.4306 16.8338C45.6397 16.5811 45.8914 16.2875 46.2063 15.9299C45.7864 15.9717 45.2206 15.9922 44.9271 15.9922H39.182C38.0913 15.9922 37.4828 16.0349 36.7498 16.1399V14.3749C37.4624 14.4807 38.0913 14.5226 39.182 14.5226H45.9546C46.8139 14.5226 47.4847 14.5012 48.3031 14.4594V15.9095C47.8628 16.3302 47.4642 16.8133 46.7935 17.6967L39.0556 27.8703C38.7621 28.2484 38.4898 28.5642 38.0504 29.0677C38.7621 29.0259 39.1606 29.0259 39.6641 29.0259H46.2063C47.1911 29.0259 47.8832 28.9841 48.659 28.8791V28.8782ZM55.9138 30.7695C52.4754 30.7695 50.295 28.4788 50.295 24.842C50.295 21.2053 52.4745 18.8932 55.8933 18.8932C59.3103 18.8932 61.4703 21.2062 61.4703 24.8216C61.4703 28.4156 59.2898 30.7695 55.9138 30.7695ZM55.9351 20.2178C53.4398 20.2178 51.9087 21.9624 51.9087 24.7993C51.9087 27.6585 53.4398 29.4031 55.8933 29.4031C58.346 29.4031 59.8556 27.6594 59.8556 24.8216C59.8556 21.9837 58.346 20.2178 55.9351 20.2178ZM65.7689 34.9106H63.9238C64.0279 34.0904 64.0706 33.4179 64.0706 32.5567V21.5843C64.0706 20.5755 64.0279 19.9652 63.9238 19.1672H65.6007V20.3646C65.5979 20.6533 65.5771 20.9415 65.5385 21.2275C66.4814 19.7348 67.9493 18.9564 69.8157 18.9564C73.045 18.9564 75.0155 21.1635 75.0155 24.8216C75.0155 28.3942 73.0023 30.6859 69.8575 30.6859C68.0125 30.6859 66.5232 29.9075 65.5376 28.4574C65.6007 29.0463 65.6221 29.3613 65.6221 29.9288V32.5354C65.6221 33.5229 65.6639 34.1331 65.7689 34.9106ZM69.7098 29.3194C71.9961 29.3194 73.3795 27.6167 73.3795 24.8216C73.3795 21.9624 72.0379 20.3228 69.6894 20.3228C67.2785 20.3228 65.6425 22.1305 65.6425 24.842C65.6425 26.2085 66.0829 27.4699 66.8382 28.2048C67.5721 28.92 68.6201 29.3194 69.7107 29.3194H69.7098Z" fill="white"/>
<path fill-rule="evenodd" clip-rule="evenodd" d="M76.5509 25.9772L79.5703 25.6623C79.6539 26.6079 79.7802 27.0278 80.1574 27.5118C80.7659 28.3106 81.8566 28.7519 83.2186 28.7519C85.3154 28.7519 86.5733 27.8062 86.5733 26.2298C86.5733 25.3669 86.1756 24.6526 85.5253 24.2958C84.8964 23.9596 84.77 23.9382 81.877 23.2657C80.3042 22.908 79.4662 22.5718 78.71 21.9837C77.6416 21.143 77.0963 19.9865 77.0963 18.5783C77.0963 15.6568 79.4448 13.7655 83.0513 13.7655C85.4417 13.7655 87.2449 14.5003 88.2716 15.8881C88.7964 16.582 89.0482 17.2119 89.2991 18.3256L86.3011 18.6833C86.1756 17.9689 86.0288 17.6113 85.6721 17.1914C85.1268 16.5393 84.2043 16.1817 83.0513 16.1817C81.2276 16.1817 79.9902 17.1069 79.9902 18.4733C79.9902 19.3558 80.451 19.9652 81.4153 20.386C81.877 20.5755 82.0443 20.6173 84.3724 21.1422C86.0288 21.4998 87.035 21.8992 87.7894 22.425C88.985 23.3075 89.5303 24.464 89.5303 26.0403C89.5303 27.5331 89.0686 28.7519 88.2093 29.6139C87.0973 30.6859 85.4417 31.2108 83.1981 31.2108C81.4785 31.2108 79.8007 30.7909 78.7945 30.1183C77.9556 29.5508 77.348 28.7519 76.9495 27.7217C76.7609 27.2387 76.6773 26.8392 76.5509 25.9772ZM94.8556 30.8745H91.8994C92.0044 29.9706 92.0462 29.2776 92.0462 28.1425V21.5416C92.0462 20.2178 92.0044 19.6085 91.8994 18.8096H94.7088V19.8816C94.7088 20.0079 94.7088 20.3228 94.6883 20.6591C95.2959 19.3772 96.8474 18.5569 98.5884 18.5569C99.72 18.5569 100.643 18.8728 101.293 19.5035C101.67 19.8398 101.838 20.1129 102.09 20.7641C102.802 19.8184 103.201 19.4403 103.851 19.1041C104.543 18.7251 105.256 18.5569 106.2 18.5569C107.541 18.5569 108.631 18.9777 109.345 19.7553C110.036 20.5114 110.329 21.458 110.329 22.9507V28.1425C110.329 29.3195 110.371 30.0133 110.498 30.8745H107.436C107.562 30.0133 107.604 29.3826 107.604 28.1425V23.4338C107.604 21.5834 106.954 20.7436 105.549 20.7436C104.857 20.7436 104.333 20.9322 103.83 21.3743C103.096 22.0042 102.761 22.6767 102.509 23.9809V28.1425C102.509 29.299 102.551 30.0133 102.656 30.8745H99.6363C99.7618 29.992 99.8045 29.3408 99.8045 28.1425V23.4338C99.8045 21.6679 99.1328 20.7854 97.7699 20.7854C96.8892 20.7854 96.1775 21.143 95.6108 21.8787C95.1491 22.4881 94.9392 22.9712 94.7088 23.98V28.1425C94.7088 29.2776 94.7506 29.9075 94.8556 30.8745ZM121.044 30.8745V29.5089C120.205 30.3069 119.681 30.6014 118.822 30.8327C118.186 31.0032 117.53 31.0882 116.872 31.0853C114.313 31.0853 112.762 29.7607 112.762 27.5536C112.762 26.0822 113.684 24.7584 115.132 24.1481C116.494 23.5806 118.046 23.3706 121.044 23.3075V22.2355C121.044 21.0167 120.226 20.386 118.633 20.386C117.794 20.386 116.934 20.6173 116.453 20.9954C116.054 21.2898 115.865 21.5843 115.614 22.3405L112.93 21.8574C113.412 20.6386 113.789 20.0915 114.586 19.524C115.614 18.7678 116.788 18.452 118.591 18.452C120.604 18.452 121.821 18.8096 122.722 19.6921C123.434 20.3646 123.707 21.1635 123.707 22.5922V28.2475C123.707 29.3613 123.749 29.9288 123.875 30.8745H121.044ZM121.044 26.1871V25.1365C117.039 25.2201 115.466 25.914 115.466 27.5536C115.466 28.541 116.201 29.1513 117.375 29.1513C118.486 29.1513 119.576 28.7305 120.29 28.0375C120.792 27.5331 121.044 26.9228 121.044 26.1871ZM135.155 18.8096L134.421 21.458C133.54 21.2053 133.101 21.1217 132.555 21.1217C131.507 21.1217 130.71 21.458 130.123 22.1519C129.598 22.7612 129.389 23.2443 129.263 24.254V28.1416C129.263 29.2776 129.306 29.887 129.41 30.8745H126.412C126.515 29.9675 126.564 29.0553 126.559 28.1425V21.5416C126.559 20.2605 126.537 19.6716 126.412 18.8096H129.263V20.7845C130.018 19.2927 131.318 18.5783 133.205 18.5783C133.708 18.5783 134.212 18.6406 135.155 18.8096ZM138.091 15.5723H141.089C140.992 16.4307 140.943 17.2937 140.942 18.1575V18.8096H141.823C142.808 18.8096 143.27 18.7882 143.94 18.6833V21.1635C143.249 21.0585 142.85 21.0372 141.886 21.0372H140.943V27.5536C140.943 28.5837 141.32 28.9618 142.326 28.9618C142.871 28.9618 143.207 28.8569 143.856 28.4992L144.234 30.7277C143.332 31.064 142.704 31.169 141.613 31.169C139.203 31.169 138.237 30.3069 138.237 28.0998V21.0381H137.44C136.665 21.0381 136.266 21.0594 135.575 21.1644V18.6842C136.182 18.7891 136.581 18.8105 137.462 18.8105H138.237V18.1584C138.237 17.2546 138.175 16.3294 138.091 15.5723Z" fill="white"/>
</svg>
