<?xml version="1.0" encoding="UTF-8"?>
<svg width="200px" height="66px" viewBox="0 0 200 66" version="1.1" xmlns="http://www.w3.org/2000/svg" xmlns:xlink="http://www.w3.org/1999/xlink">
    <title>24 hrs</title>
    <defs>
        <linearGradient x1="50%" y1="0%" x2="50%" y2="100%" id="linearGradient-1">
            <stop stop-color="#33ABEF" offset="0%"></stop>
            <stop stop-color="#7990F7" offset="100%"></stop>
        </linearGradient>
        <linearGradient x1="50%" y1="0%" x2="50%" y2="100%" id="linearGradient-2">
            <stop stop-color="#33ABEF" offset="0%"></stop>
            <stop stop-color="#7990F7" offset="100%"></stop>
        </linearGradient>
        <linearGradient x1="50%" y1="0%" x2="50%" y2="100%" id="linearGradient-3">
            <stop stop-color="#33ABEF" offset="0%"></stop>
            <stop stop-color="#7990F7" offset="100%"></stop>
        </linearGradient>
        <linearGradient x1="50%" y1="0%" x2="50%" y2="100%" id="linearGradient-4">
            <stop stop-color="#33ABEF" offset="0%"></stop>
            <stop stop-color="#7990F7" offset="100%"></stop>
        </linearGradient>
        <linearGradient x1="50%" y1="0%" x2="50%" y2="100%" id="linearGradient-5">
            <stop stop-color="#33ABEF" offset="0%"></stop>
            <stop stop-color="#7990F7" offset="100%"></stop>
        </linearGradient>
    </defs>
    <g id="HACKATONS" stroke="none" stroke-width="1" fill="none" fill-rule="evenodd">
        <g id="hackathon-new" transform="translate(-123, -1896)" fill-rule="nonzero">
            <g id="24-hrs" transform="translate(123.3984, 1896.5469)">
                <path d="M34.7265625,53.671875 L34.7265625,64.453125 L0,64.453125 L0,55.4296875 C10.2864583,38.6067708 16.3997396,28.1966146 18.3398438,24.1992187 C20.2799479,20.2018229 21.25,17.0833333 21.25,14.84375 C21.25,13.125 20.9570312,11.8424479 20.3710938,10.9960938 C19.7851563,10.1497396 18.8932292,9.7265625 17.6953125,9.7265625 C16.4973958,9.7265625 15.6054688,10.1953125 15.0195313,11.1328125 C14.4335938,12.0703125 14.140625,13.9322917 14.140625,16.71875 L14.140625,22.734375 L0,22.734375 L0,20.4296875 C0,16.8880208 0.182291667,14.0950521 0.546875,12.0507813 C0.911458333,10.0065104 1.80989583,7.99479167 3.2421875,6.015625 C4.67447917,4.03645833 6.53645833,2.5390625 8.828125,1.5234375 C11.1197917,0.5078125 13.8671875,0 17.0703125,0 C23.3463542,0 28.0924479,1.55598958 31.3085938,4.66796875 C34.5247396,7.77994792 36.1328125,11.71875 36.1328125,16.484375 C36.1328125,20.1041667 35.2278646,23.9322917 33.4179688,27.96875 C31.6080729,32.0052083 26.2760417,40.5729167 17.421875,53.671875 L34.7265625,53.671875 Z" id="Path" fill="url(#linearGradient-1)"></path>
                <path d="M73.046875,1.2109375 L73.046875,42.5390625 L77.5390625,42.5390625 L77.5390625,53.3203125 L73.046875,53.3203125 L73.046875,64.453125 L57.265625,64.453125 L57.265625,53.3203125 L38.515625,53.3203125 L38.515625,42.5390625 L52.1484375,1.2109375 L73.046875,1.2109375 Z M57.265625,42.5390625 L57.265625,15.625 L50.3125,42.5390625 L57.265625,42.5390625 Z" id="Shape" fill="url(#linearGradient-2)"></path>
                <path d="M110.703125,1.2109375 L110.703125,15.4296875 C112.057292,14.1796875 113.522135,13.2421875 115.097656,12.6171875 C116.673177,11.9921875 118.359375,11.6796875 120.15625,11.6796875 C122.916667,11.6796875 125.266927,12.3828125 127.207031,13.7890625 C129.147135,15.1953125 130.332031,16.8164062 130.761719,18.6523438 C131.191406,20.4882813 131.40625,23.8411458 131.40625,28.7109375 L131.40625,64.453125 L115.625,64.453125 L115.625,27.96875 C115.625,24.9479167 115.47526,23.0078125 115.175781,22.1484375 C114.876302,21.2890625 114.205729,20.859375 113.164062,20.859375 C112.200521,20.859375 111.549479,21.3020833 111.210938,22.1875 C110.872396,23.0729167 110.703125,24.8307292 110.703125,27.4609375 L110.703125,64.453125 L94.921875,64.453125 L94.921875,1.2109375 L110.703125,1.2109375 Z" id="Path" fill="url(#linearGradient-3)"></path>
                <path d="M152.617188,12.6171875 L151.992188,19.4140625 C154.283854,14.5442708 157.604167,11.9661458 161.953125,11.6796875 L161.953125,29.921875 C159.0625,29.921875 156.940104,30.3125 155.585938,31.09375 C154.231771,31.875 153.398438,32.9622396 153.085938,34.3554688 C152.773438,35.7486979 152.617188,38.9583333 152.617188,43.984375 L152.617188,64.453125 L136.835938,64.453125 L136.835938,12.6171875 L152.617188,12.6171875 Z" id="Path" fill="url(#linearGradient-4)"></path>
                <path d="M197.695312,29.1796875 L183.710938,29.1796875 L183.710938,26.3671875 C183.710938,23.9713542 183.574219,22.4544271 183.300781,21.8164063 C183.027344,21.1783854 182.34375,20.859375 181.25,20.859375 C180.364583,20.859375 179.700521,21.1523437 179.257812,21.7382812 C178.815104,22.3242187 178.59375,23.203125 178.59375,24.375 C178.59375,25.9635417 178.704427,27.1289063 178.925781,27.8710938 C179.147135,28.6132812 179.811198,29.4270833 180.917969,30.3125 C182.02474,31.1979167 184.296875,32.4869792 187.734375,34.1796875 C192.317708,36.4192708 195.325521,38.5286458 196.757812,40.5078125 C198.190104,42.4869792 198.90625,45.3645833 198.90625,49.140625 C198.90625,53.359375 198.359375,56.5429687 197.265625,58.6914062 C196.171875,60.8398437 194.342448,62.4934896 191.777344,63.6523438 C189.21224,64.8111979 186.119792,65.390625 182.5,65.390625 C178.489583,65.390625 175.058594,64.765625 172.207031,63.515625 C169.355469,62.265625 167.395833,60.5729167 166.328125,58.4375 C165.260417,56.3020833 164.726562,53.0729167 164.726562,48.75 L164.726562,46.25 L178.710938,46.25 L178.710938,49.53125 C178.710938,52.3177083 178.886719,54.1276042 179.238281,54.9609375 C179.589844,55.7942708 180.286458,56.2109375 181.328125,56.2109375 C182.447917,56.2109375 183.229167,55.9309896 183.671875,55.3710938 C184.114583,54.8111979 184.335938,53.6328125 184.335938,51.8359375 C184.335938,49.3619792 184.049479,47.8125 183.476562,47.1875 C182.877604,46.5625 179.817708,44.7135417 174.296875,41.640625 C169.661458,39.0364583 166.835938,36.6731771 165.820312,34.5507813 C164.804688,32.4283854 164.296875,29.9088542 164.296875,26.9921875 C164.296875,22.8515625 164.84375,19.7981771 165.9375,17.8320313 C167.03125,15.8658854 168.886719,14.3489583 171.503906,13.28125 C174.121094,12.2135417 177.161458,11.6796875 180.625,11.6796875 C184.0625,11.6796875 186.985677,12.1158854 189.394531,12.9882813 C191.803385,13.8606771 193.652344,15.0130208 194.941406,16.4453125 C196.230469,17.8776042 197.011719,19.2057292 197.285156,20.4296875 C197.558594,21.6536458 197.695312,23.5677083 197.695312,26.171875 L197.695312,29.1796875 Z" id="Path" fill="url(#linearGradient-5)"></path>
            </g>
        </g>
    </g>
</svg>