<?xml version="1.0" encoding="UTF-8"?>
<svg width="208px" height="67px" viewBox="0 0 208 67" version="1.1" xmlns="http://www.w3.org/2000/svg" xmlns:xlink="http://www.w3.org/1999/xlink">
    <title>PRIZES</title>
    <defs>
        <linearGradient x1="50%" y1="0%" x2="50%" y2="100%" id="linearGradient-1">
            <stop stop-color="#36AAF0" offset="0%"></stop>
            <stop stop-color="#7791F7" offset="100%"></stop>
        </linearGradient>
        <linearGradient x1="50%" y1="0%" x2="50%" y2="100%" id="linearGradient-2">
            <stop stop-color="#36AAF0" offset="0%"></stop>
            <stop stop-color="#7791F7" offset="100%"></stop>
        </linearGradient>
        <linearGradient x1="50%" y1="0%" x2="50%" y2="100%" id="linearGradient-3">
            <stop stop-color="#36AAF0" offset="0%"></stop>
            <stop stop-color="#7791F7" offset="100%"></stop>
        </linearGradient>
        <linearGradient x1="50%" y1="0%" x2="50%" y2="100%" id="linearGradient-4">
            <stop stop-color="#36AAF0" offset="0%"></stop>
            <stop stop-color="#7791F7" offset="100%"></stop>
        </linearGradient>
        <linearGradient x1="50%" y1="0%" x2="50%" y2="100%" id="linearGradient-5">
            <stop stop-color="#36AAF0" offset="0%"></stop>
            <stop stop-color="#7791F7" offset="100%"></stop>
        </linearGradient>
        <linearGradient x1="50%" y1="0%" x2="50%" y2="100%" id="linearGradient-6">
            <stop stop-color="#36AAF0" offset="0%"></stop>
            <stop stop-color="#7791F7" offset="100%"></stop>
        </linearGradient>
    </defs>
    <g id="HACKATONS" stroke="none" stroke-width="1" fill="none" fill-rule="evenodd">
        <g id="hackathon-new" transform="translate(-123, -2766)" fill-rule="nonzero">
            <g id="PRIZES" transform="translate(123.4531, 2766.4297)">
                <path d="M0,1.328125 L16.5625,1.328125 C21.0416667,1.328125 24.4856771,1.6796875 26.8945312,2.3828125 C29.3033854,3.0859375 31.1132813,4.1015625 32.3242188,5.4296875 C33.5351562,6.7578125 34.3554688,8.36588542 34.7851563,10.2539063 C35.2148438,12.1419271 35.4296875,15.0651042 35.4296875,19.0234375 L35.4296875,24.53125 C35.4296875,28.5677083 35.0130208,31.5104167 34.1796875,33.359375 C33.3463542,35.2083333 31.8164063,36.6276042 29.5898437,37.6171875 C27.3632813,38.6067708 24.453125,39.1015625 20.859375,39.1015625 L16.4453125,39.1015625 L16.4453125,64.5703125 L0,64.5703125 L0,1.328125 Z M16.4453125,12.1484375 L16.4453125,28.2421875 C16.9140625,28.2682292 17.3177083,28.28125 17.65625,28.28125 C19.1666667,28.28125 20.2148438,27.9101562 20.8007812,27.1679688 C21.3867188,26.4257813 21.6796875,24.8828125 21.6796875,22.5390625 L21.6796875,17.34375 C21.6796875,15.1822917 21.3411458,13.7760417 20.6640625,13.125 C19.9869792,12.4739583 18.5807292,12.1484375 16.4453125,12.1484375 Z" id="Shape" fill="url(#linearGradient-1)"></path>
                <path d="M40.15625,1.328125 L51.796875,1.328125 C59.5572917,1.328125 64.8111979,1.62760417 67.5585938,2.2265625 C70.3059896,2.82552083 72.5455729,4.35546875 74.2773438,6.81640625 C76.0091146,9.27734375 76.875,13.203125 76.875,18.59375 C76.875,23.515625 76.2630208,26.8229167 75.0390625,28.515625 C73.8151042,30.2083333 71.40625,31.2239583 67.8125,31.5625 C71.0677083,32.3697917 73.2552083,33.4505208 74.375,34.8046875 C75.4947917,36.1588542 76.1914062,37.4023438 76.4648438,38.5351563 C76.7382812,39.6679688 76.875,42.7864583 76.875,47.890625 L76.875,64.5703125 L61.6015625,64.5703125 L61.6015625,43.5546875 C61.6015625,40.1692708 61.3346354,38.0729167 60.8007813,37.265625 C60.2669271,36.4583333 58.8671875,36.0546875 56.6015625,36.0546875 L56.6015625,64.5703125 L40.15625,64.5703125 L40.15625,1.328125 Z M56.6015625,12.1484375 L56.6015625,26.2109375 C58.4505208,26.2109375 59.7460938,25.9570313 60.4882812,25.4492187 C61.2304688,24.9414062 61.6015625,23.2942708 61.6015625,20.5078125 L61.6015625,17.03125 C61.6015625,15.0260417 61.2434896,13.7109375 60.5273438,13.0859375 C59.8111979,12.4609375 58.5026042,12.1484375 56.6015625,12.1484375 Z" id="Shape" fill="url(#linearGradient-2)"></path>
                <polygon id="Path" fill="url(#linearGradient-3)" points="99.6875 1.328125 99.6875 64.5703125 83.2421875 64.5703125 83.2421875 1.328125"></polygon>
                <polygon id="Path" fill="url(#linearGradient-4)" points="133.789062 1.328125 133.789062 13.984375 121.523438 51.9140625 133.789062 51.9140625 133.789062 64.5703125 103.476562 64.5703125 103.476562 55.390625 116.132812 13.984375 104.960938 13.984375 104.960938 1.328125"></polygon>
                <polygon id="Path" fill="url(#linearGradient-5)" points="138.046875 1.328125 165.46875 1.328125 165.46875 13.984375 154.492188 13.984375 154.492188 25.9765625 164.765625 25.9765625 164.765625 38.0078125 154.492188 38.0078125 154.492188 51.9140625 166.5625 51.9140625 166.5625 64.5703125 138.046875 64.5703125"></polygon>
                <path d="M206.132812,20.46875 L190.859375,20.46875 L190.859375,15.78125 C190.859375,13.59375 190.664062,12.2005208 190.273438,11.6015625 C189.882812,11.0026042 189.231771,10.703125 188.320312,10.703125 C187.330729,10.703125 186.582031,11.1067708 186.074219,11.9140625 C185.566406,12.7213542 185.3125,13.9453125 185.3125,15.5859375 C185.3125,17.6953125 185.598958,19.2838542 186.171875,20.3515625 C186.71875,21.4192708 188.268229,22.7083333 190.820312,24.21875 C198.138021,28.5677083 202.747396,32.1354167 204.648438,34.921875 C206.549479,37.7083333 207.5,42.2005208 207.5,48.3984375 C207.5,52.9036458 206.972656,56.2239583 205.917969,58.359375 C204.863281,60.4947917 202.825521,62.2851563 199.804688,63.7304688 C196.783854,65.1757813 193.268229,65.8984375 189.257813,65.8984375 C184.856771,65.8984375 181.10026,65.0651042 177.988281,63.3984375 C174.876302,61.7317708 172.838542,59.609375 171.875,57.03125 C170.911458,54.453125 170.429688,50.7942708 170.429688,46.0546875 L170.429688,41.9140625 L185.703125,41.9140625 L185.703125,49.609375 C185.703125,51.9791667 185.917969,53.5026042 186.347656,54.1796875 C186.777344,54.8567708 187.539062,55.1953125 188.632812,55.1953125 C189.726562,55.1953125 190.540365,54.765625 191.074219,53.90625 C191.608073,53.046875 191.875,51.7708333 191.875,50.078125 C191.875,46.3541667 191.367188,43.9192708 190.351562,42.7734375 C189.309896,41.6276042 186.744792,39.7135417 182.65625,37.03125 C178.567708,34.3229167 175.859375,32.3567708 174.53125,31.1328125 C173.203125,29.9088542 172.102865,28.2161458 171.230469,26.0546875 C170.358073,23.8932292 169.921875,21.1328125 169.921875,17.7734375 C169.921875,12.9296875 170.540365,9.38802083 171.777344,7.1484375 C173.014323,4.90885417 175.013021,3.15755208 177.773438,1.89453125 C180.533854,0.631510417 183.867188,0 187.773438,0 C192.044271,0 195.683594,0.690104167 198.691406,2.0703125 C201.699219,3.45052083 203.691406,5.18880208 204.667969,7.28515625 C205.644531,9.38151042 206.132812,12.9427083 206.132812,17.96875 L206.132812,20.46875 Z" id="Path" fill="url(#linearGradient-6)"></path>
            </g>
        </g>
    </g>
</svg>